<?xml version="1.0" encoding="utf-8"?>
<!-- Generator: Adobe Illustrator 16.0.0, SVG Export Plug-In . SVG Version: 6.00 Build 0)  -->
<!DOCTYPE svg PUBLIC "-//W3C//DTD SVG 1.1//EN" "http://www.w3.org/Graphics/SVG/1.1/DTD/svg11.dtd">
<svg version="1.1" xmlns="http://www.w3.org/2000/svg" xmlns:xlink="http://www.w3.org/1999/xlink" x="0px" y="0px" width="2921px"
	 height="1800px" viewBox="0 0 2921 1800" enable-background="new 0 0 2921 1800" xml:space="preserve">
<g id="Layer_4">
</g>
<g id="Layer_2">
	<g>
		<rect fill="#A3D0F0" width="2921" height="1800"/>
		
			<linearGradient id="SVGID_1_" gradientUnits="userSpaceOnUse" x1="3689.4629" y1="812.75" x2="3465.4629" y2="932.75" gradientTransform="matrix(-1 0 0 1 4120.6699 0)">
			<stop  offset="0" style="stop-color:#FFFFFF;stop-opacity:0"/>
			<stop  offset="0.0917" style="stop-color:#F9FCFE;stop-opacity:0.0917"/>
			<stop  offset="0.2174" style="stop-color:#E7F2FA;stop-opacity:0.2174"/>
			<stop  offset="0.3627" style="stop-color:#CAE2F5;stop-opacity:0.3627"/>
			<stop  offset="0.5228" style="stop-color:#A2CBED;stop-opacity:0.5228"/>
			<stop  offset="0.6949" style="stop-color:#6EAEE3;stop-opacity:0.6949"/>
			<stop  offset="0.8743" style="stop-color:#308CD7;stop-opacity:0.8743"/>
			<stop  offset="1" style="stop-color:#0071CE"/>
		</linearGradient>
		<polygon opacity="0.4" fill="url(#SVGID_1_)" points="382.068,827.122 798,827.122 798,1007.085 454,1007.085 		"/>
		<g>
			<line fill="none" stroke="#FAFCFD" stroke-width="7" stroke-miterlimit="10" x1="173.666" y1="84" x2="273" y2="84"/>
			<line fill="none" stroke="#FAFCFD" stroke-width="7" stroke-miterlimit="10" x1="173.666" y1="116" x2="273" y2="116"/>
			<line fill="none" stroke="#FAFCFD" stroke-width="7" stroke-miterlimit="10" x1="173.666" y1="148" x2="273" y2="148"/>
		</g>
		<path fill="#2B68B3" d="M618.769,882.151c0.146,0,0.293,0.005,0.44,0.005c8.536-52.854,54.366-93.222,109.632-93.222
			c41.564,0,77.792,22.838,96.831,56.646c11.109-5.166,23.491-8.055,36.545-8.055c47.923,0,86.771,38.849,86.771,86.77
			c0,47.922-38.848,86.77-86.771,86.77H618.769c-35.602,0-64.459-28.857-64.459-64.459
			C554.31,911.009,583.167,882.151,618.769,882.151z"/>
		<linearGradient id="SVGID_2_" gradientUnits="userSpaceOnUse" x1="2219.1611" y1="915.7969" x2="1995.1606" y2="1035.7971">
			<stop  offset="0" style="stop-color:#FFFFFF;stop-opacity:0"/>
			<stop  offset="0.0917" style="stop-color:#F9FCFE;stop-opacity:0.0917"/>
			<stop  offset="0.2174" style="stop-color:#E7F2FA;stop-opacity:0.2174"/>
			<stop  offset="0.3627" style="stop-color:#CAE2F5;stop-opacity:0.3627"/>
			<stop  offset="0.5228" style="stop-color:#A2CBED;stop-opacity:0.5228"/>
			<stop  offset="0.6949" style="stop-color:#6EAEE3;stop-opacity:0.6949"/>
			<stop  offset="0.8743" style="stop-color:#308CD7;stop-opacity:0.8743"/>
			<stop  offset="1" style="stop-color:#0071CE"/>
		</linearGradient>
		<polygon opacity="0.4" fill="url(#SVGID_2_)" points="2268.301,930.169 1852.369,930.169 1852.369,1110.132 2196.369,1110.132 		
			"/>
		<path fill="#F7F8F9" d="M975.227,723.131l1.312,0.017c12.492-77.329,51.908-145.64,108.328-195.006
			c57.897-50.654,133.701-81.347,216.674-81.347c123.222,0,230.608,67.708,287.055,167.926
			c32.93-15.314,69.631-23.879,108.337-23.879c130.573,0,238.419,97.303,255.005,223.351c11.769-3.01,24.101-4.612,36.808-4.612
			c81.802,0,148.116,66.314,148.116,148.117c0,81.801-66.314,148.115-148.116,148.115c-4.156,0-8.27-0.18-12.339-0.516h-279.474
			h-123.331H975.227c-105.532,0-191.087-85.548-191.087-191.078C784.14,808.687,869.694,723.131,975.227,723.131z"/>
		<linearGradient id="SVGID_3_" gradientUnits="userSpaceOnUse" x1="1346.7637" y1="1075.1016" x2="1169.745" y2="1303.126">
			<stop  offset="0" style="stop-color:#FFFFFF;stop-opacity:0"/>
			<stop  offset="0.0917" style="stop-color:#F9FCFE;stop-opacity:0.0917"/>
			<stop  offset="0.2174" style="stop-color:#E7F2FA;stop-opacity:0.2174"/>
			<stop  offset="0.3627" style="stop-color:#CAE2F5;stop-opacity:0.3627"/>
			<stop  offset="0.5228" style="stop-color:#A2CBED;stop-opacity:0.5228"/>
			<stop  offset="0.6949" style="stop-color:#6EAEE3;stop-opacity:0.6949"/>
			<stop  offset="0.8743" style="stop-color:#308CD7;stop-opacity:0.8743"/>
			<stop  offset="1" style="stop-color:#0071CE"/>
		</linearGradient>
		<path opacity="0.2" fill="url(#SVGID_3_)" d="M2136.86,957.7c0,81.8-66.311,148.109-148.12,148.109c-4.15,0-8.271-0.18-12.33-0.51
			H975.23c-105.54,0-191.091-85.55-191.091-191.08c0-105.53,85.551-191.09,191.091-191.09l1.31,0.02
			c12.49-77.33,51.91-145.64,108.33-195.01c57.89-50.65,133.7-81.35,216.67-81.35c42.32,0,82.77,7.99,119.93,22.53
			c71.04,27.81,130.061,79.6,167.12,145.4c32.93-15.31,69.641-23.88,108.34-23.88c35.71,0,69.71,7.27,100.61,20.42
			c0.01,0,0.02,0,0.02,0.01c82.11,34.94,142.33,111.34,154.381,202.92c11.77-3.01,24.1-4.61,36.8-4.61
			C2070.55,809.58,2136.86,875.89,2136.86,957.7z"/>
		<path fill="#BCE6FB" d="M1913.166,987.577c-15.619,0-30.511,3.107-44.099,8.728c-22.916-64.569-84.533-110.815-156.96-110.815
			c-91.965,0-166.517,74.552-166.517,166.517s74.552,166.517,166.517,166.517c7.975,0,15.814-0.573,23.49-1.657h158.011
			c6.357,1.085,12.891,1.657,19.558,1.657c63.773,0,115.473-51.699,115.473-115.473S1976.939,987.577,1913.166,987.577z"/>
		<linearGradient id="SVGID_4_" gradientUnits="userSpaceOnUse" x1="1704.5625" y1="918.46" x2="1842.5352" y2="1194.4053">
			<stop  offset="0" style="stop-color:#FFFFFF;stop-opacity:0"/>
			<stop  offset="0.0917" style="stop-color:#F9FCFE;stop-opacity:0.0917"/>
			<stop  offset="0.2174" style="stop-color:#E7F2FA;stop-opacity:0.2174"/>
			<stop  offset="0.3627" style="stop-color:#CAE2F5;stop-opacity:0.3627"/>
			<stop  offset="0.5228" style="stop-color:#A2CBED;stop-opacity:0.5228"/>
			<stop  offset="0.6949" style="stop-color:#6EAEE3;stop-opacity:0.6949"/>
			<stop  offset="0.8743" style="stop-color:#308CD7;stop-opacity:0.8743"/>
			<stop  offset="1" style="stop-color:#0071CE"/>
		</linearGradient>
		<path opacity="0.2" fill="url(#SVGID_4_)" d="M1913.166,987.577c-15.619,0-30.511,3.107-44.099,8.728
			c-22.916-64.569-84.533-110.815-156.96-110.815c-91.965,0-166.517,74.552-166.517,166.517s74.552,166.517,166.517,166.517
			c7.975,0,15.814-0.573,23.49-1.657h158.011c6.357,1.085,12.891,1.657,19.558,1.657c63.773,0,115.473-51.699,115.473-115.473
			S1976.939,987.577,1913.166,987.577z"/>
		<g>
			<path fill="#C5E5F8" d="M1109.521,1725.005l15-0.01l-0.548-799.395l-15,0.01l0.051,74.249H956.538l-0.051-74.259l-15,0.01
				l0.548,799.395l15-0.01l-0.066-96.741h152.486L1109.521,1725.005z M1109.201,1257.174l0.076,111.188H956.791l-0.076-111.188
				H1109.201z M956.704,1242.174l-0.069-101.126h152.486l0.069,101.126H956.704z M1109.287,1383.362l0.071,103.703H956.872
				l-0.071-103.703H1109.287z M1109.035,1014.859l0.076,111.188H956.625l-0.076-111.188H1109.035z M956.959,1613.254l-0.076-111.188
				h152.486l0.076,111.188H956.959z"/>
			<linearGradient id="SVGID_5_" gradientUnits="userSpaceOnUse" x1="912.6387" y1="1564.0654" x2="908.6387" y2="1788.0654">
				<stop  offset="0" style="stop-color:#FFFFFF;stop-opacity:0"/>
				<stop  offset="0.0917" style="stop-color:#F9FCFE;stop-opacity:0.0917"/>
				<stop  offset="0.2174" style="stop-color:#E7F2FA;stop-opacity:0.2174"/>
				<stop  offset="0.3627" style="stop-color:#CAE2F5;stop-opacity:0.3627"/>
				<stop  offset="0.5228" style="stop-color:#A2CBED;stop-opacity:0.5228"/>
				<stop  offset="0.6949" style="stop-color:#6EAEE3;stop-opacity:0.6949"/>
				<stop  offset="0.8743" style="stop-color:#308CD7;stop-opacity:0.8743"/>
				<stop  offset="1" style="stop-color:#0071CE"/>
			</linearGradient>
			<path opacity="0.4" fill="url(#SVGID_5_)" d="M501,1733.502h817.226C1318.226,1733.502,881,1634.004,501,1733.502z"/>
			<path fill="#70B7DD" d="M1109.098,1105.812l0.014,20.235H956.625l-0.014-20.235h-15l0.424,619.192l15-0.01l-0.066-96.741h152.486
				l0.066,96.751l15-0.01l-0.424-619.183H1109.098z M956.635,1141.048h152.486l0.069,101.126H956.704L956.635,1141.048z
				 M956.715,1257.174h152.486l0.076,111.188H956.791L956.715,1257.174z M956.801,1383.362h152.486l0.071,103.703H956.872
				L956.801,1383.362z M956.959,1613.254l-0.076-111.188h152.486l0.076,111.188H956.959z"/>
			<path fill="#F7F8F9" d="M1124.746,927.56c1.079-4.568-1.749-9.146-6.318-10.227c-4.575-1.079-9.148,1.75-10.227,6.318
				l-17.768,75.208H940.415l16.845-71.3c1.079-4.568-1.749-9.146-6.318-10.227c-4.572-1.079-9.147,1.75-10.227,6.318
				l-76.203,322.548c-0.426,0.948-0.678,1.987-0.729,3.082l-28.919,122.406c-0.697,1.234-1.101,2.656-1.101,4.175
				c0,0.135,0.014,0.266,0.02,0.399l-81.929,346.784c-1.079,4.568,1.749,9.146,6.318,10.227c0.657,0.155,1.314,0.229,1.961,0.229
				c3.853,0,7.342-2.636,8.266-6.548l23.082-97.7H941.5l-22.159,93.792c-1.079,4.568,1.749,9.146,6.318,10.227
				c0.657,0.155,1.314,0.229,1.961,0.229c3.853,0,7.342-2.636,8.266-6.548l169.228-716.294c0.352-0.834,0.566-1.738,0.634-2.684
				L1124.746,927.56z M1086.416,1015.859l-25.796,109.188H910.603l25.796-109.188H1086.416z M1033.186,1241.174H883.167
				l23.419-99.126h150.018L1033.186,1241.174z M1003.373,1367.362H853.354l25.796-109.188h150.019L1003.373,1367.362z
				 M975.328,1486.065H825.311l24.027-101.703h150.019L975.328,1486.065z M795.498,1612.254l25.796-109.188h150.019l-25.797,109.188
				H795.498z"/>
			<g>
				<g>
					<path fill="#F7F8F9" d="M799.003,1556.003l-7.75,33.333c0,0,1.332,9.334,14.666,9.334s17.702-16,17.702-16l4.965-20.667
						L799.003,1556.003z"/>
					<path fill="#2D2B6F" d="M790.183,1591.251c0,0-4.87,17.045,0,21.102c4.869,4.058,26.781,0,36.521,0
						c9.738,0,32.463-0.001,36.521-1.623c4.058-1.623,7.931-2.436,7.931-2.436s-3.146-14.275-13.387-15.624
						c-15.182-2-27.205-11.623-34.146-10c-6.941,1.622-0.165,6.96-6.657,7.771S804.79,1596.932,790.183,1591.251z"/>
				</g>
				<path fill="#2D2B6F" d="M877.441,1141.698c0,0,11.194,91.98,4.654,138.132c-6.54,46.152-46.209,288.367-46.209,288.367
					s-33.229,8.415-47.869-7.212c0,0,31.654-215.77,24.735-283.087s0-115.18,0-115.18L877.441,1141.698z"/>
				<path fill="#F7F8F9" d="M923.668,1330.003l-5.333,22.666c0,0,1.332,9.334,14.666,9.334s17.702-16,17.702-16l4.965-20.667
					L923.668,1330.003z"/>
				<path fill="#2D2B6F" d="M783.752,1166.987c0,0-16.287,59.013,4.98,90.013s76.688,21.406,121.531-17
					c18.966-16.243,18.966-16.243,18.966-16.243L917,1336c0,0,25.527,8,43.264-4c0,0,42.507-142.243,15.736-164.243
					S874.113,1198,864.557,1191s-16.891-38.931-16.891-38.931L783.752,1166.987z"/>
				<path fill="none" stroke="#FAFCFD" stroke-width="7" stroke-miterlimit="10" d="M812.31,1273.395
					c0,0,34.415,13.174,71.546-14.702"/>
				<path fill="#2D2B6F" d="M917.265,1354.584c0,0-4.87,17.045,0,21.102c4.869,4.058,26.781,0,36.521,0
					c9.738,0,32.463-0.001,36.521-1.623c4.058-1.623,7.931-2.436,7.931-2.436s-3.146-14.275-13.387-15.624
					c-15.182-2-27.205-11.623-34.146-10c-6.941,1.622-0.165,6.96-6.657,7.771S931.872,1360.265,917.265,1354.584z"/>
				<g>
					<g>
						<polygon fill="#EA7200" points="724.265,1312.992 743.377,1296.186 753.252,1307.943 748.295,1317.856 						"/>
						<g>
							<path fill="#EA7200" d="M877,1357.268c0,4.271-3.475,7.732-7.76,7.732H748.76c-4.285,0-7.76-3.462-7.76-7.732v-55.535
								c0-4.271,3.475-7.732,7.76-7.732h120.48c4.285,0,7.76,3.462,7.76,7.732V1357.268z"/>
							<polygon fill="#EA7200" points="853.342,1314.104 874,1296.186 874,1343.348 874,1362.466 854.939,1379.501 							"/>
							<path fill="#2B68B3" d="M856,1375.268c0,4.271-3.475,7.732-7.76,7.732H727.76c-4.285,0-7.76-3.462-7.76-7.732v-55.535
								c0-4.271,3.475-7.732,7.76-7.732h120.48c4.285,0,7.76,3.462,7.76,7.732V1375.268z"/>
						</g>
						<g>
							<rect x="720" y="1346" fill="#A3D0F0" width="136" height="7"/>
						</g>
						<g>
							<polyline fill="#A3D0F0" points="779,1312 779,1321 798,1321 798,1312 							"/>
							<polygon fill="#A3D0F0" points="802,1324 776,1324 776,1312 783,1312 783,1317 795,1317 795,1312 802,1312 							"/>
						</g>
						<path fill="#2B68B3" d="M748,1302.043c0,2.737-2.219,4.957-4.956,4.957h-0.088c-2.737,0-4.956-2.22-4.956-4.957v-22.086
							c0-2.737,2.219-4.957,4.956-4.957h0.088c2.737,0,4.956,2.22,4.956,4.957V1302.043z"/>
						<path fill="#2B68B3" d="M858,1302.043c0,2.737-2.219,4.957-4.957,4.957h-0.086c-2.738,0-4.957-2.22-4.957-4.957v-22.086
							c0-2.737,2.219-4.957,4.957-4.957h0.086c2.738,0,4.957,2.22,4.957,4.957V1302.043z"/>
					</g>
					<path fill="#2B68B3" d="M859,1275.043c0,2.737-2.219,4.957-4.957,4.957H741.957c-2.738,0-4.957-2.22-4.957-4.957v-0.086
						c0-2.737,2.219-4.957,4.957-4.957h112.086c2.738,0,4.957,2.22,4.957,4.957V1275.043z"/>
				</g>
				<path fill="#F7A1A1" d="M724.871,1077.345c0,0-12.976,58.62-11.782,83.665c1.192,25.044,45.833,79.914,58.693,93.623
					c0,0,4.514,10.131,4.514,14.306c0,4.174,1.192,19.677,13.118,18.484s22.659-3.577,24.448-4.771c1.788-1.192,0-11.329,0-11.329
					l7.155-0.597c0,0-7.71-15.503-13.694-18.484c-5.983-2.981-17.606-8.818-21.336-14.547c-3.729-5.728-25.792-64.76-32.947-76.686
					c0,0,6.367-43.919,13.975-67.145C774.622,1070.639,731.884,1064.042,724.871,1077.345z"/>
				<g>
					<path fill="#F7A1A1" d="M932.315,1027.923c0,0,46.685,18.097,82.685,6.587s58-28.719,58-28.719s0.111-16.664,9.056-19.228
						s8.944,2.542,5.944,8.489s-8.161,36.901-8.161,36.901s-86.067,71.046-173.625,32.798L932.315,1027.923z"/>
					<path fill="#EA7200" d="M892.018,1064.752c0,0,6.883,6.054,14.196,0c7.312-6.054,22.524-16.414,26.102-36.829
						c0,0,0.136-4.927-6.746-1.056C918.687,1030.738,892.018,1064.752,892.018,1064.752z"/>
					<path fill="#F9C910" d="M840.83,993.746c0,0,1.127-7.313,10.672-8.173c9.546-0.86,38.365,19.786,48.688,28.391
						c10.323,8.602,25.379,12.903,25.379,12.903s-13.583,39.144-40.128,37.854C858.896,1063.43,832.658,1033.319,840.83,993.746z"/>
					<path fill="#EA7200" d="M725.054,1111.75l-7.528,0.748c0,0-3.247,10.662,1.354,15.348c4.601,4.687,19.102,24.097,35.64,24.022
						c0,0,8.978-0.778,3.105-13.778C751.752,1125.09,725.054,1111.75,725.054,1111.75z"/>
					<path fill="#F9EC08" d="M735.671,1033.478c4.52-6.27,82.626-46.184,115.831-47.904c0,0,9.115,12.79,12.556,47.904
						c3.442,35.114,7.942,94.006,14.511,108.221c0,0-89.085,31.312-94.816,25.289c-5.731-6.023-28.697-56.564-36.01-72.91
						S731.447,1039.338,735.671,1033.478z"/>
					<g>
						<path fill="#2D2B6F" d="M807.016,988.331c0,0,9.243-6.929,14.525-24.814c5.283-17.885,10.874-31.718-4.201-42.246
							c-15.074-10.526-48.891-20.896-53.981,15.798C758.27,973.763,807.016,988.331,807.016,988.331z"/>
						<path fill="#F7A1A1" d="M760.27,946.662c0,0-5.711,46.104,1.915,53.22c7.626,7.114,22.082,0.146,25.651,7.438
							c3.57,7.292,21.916,19.312,24.436,7.188c2.521-12.127-3.211-21.268-1.709-31.499c0,0,10.118-5.009,8.514-15.642
							c-1.604-10.632-13.787-4.879-15.825-1.091s-4.847,2.472-4.253,0.642c0.595-1.829,5.795-13.49,3.548-28.377
							S766.578,913.519,760.27,946.662z"/>
						<path fill="none" stroke="#2D2B6F" stroke-width="3" stroke-miterlimit="10" d="M769.158,966.628
							c0,0-6.088,15.867,2.258,14.968"/>
						<path fill="none" stroke="#2D2B6F" stroke-width="3" stroke-miterlimit="10" d="M771.336,988.676
							c0,0,5.923,8.769,13.994-2.112"/>
						<path fill="#2D2B6F" d="M761.592,941.473c0,0-16.623-5.662-21.172-27.161l27.224-17.674c0,0,10.198,9.895,33.716,16.873
							c23.516,6.979,14.579,33.06,14.579,33.06l-13.393-8.028C802.546,938.542,783.931,954.756,761.592,941.473z"/>
					</g>
					<path fill="#EA7200" d="M812.189,995.682c0,0-6.32,14.02-7.98,23.463c-1.663,9.443-2.19,15.896,2.59,14.175
						C811.58,1031.6,829.574,989.443,812.189,995.682z"/>
					<path fill="#EA7200" d="M787.492,1005.791c0,0,12.998,8.213,15.531,13.354c2.534,5.142,2.965,19.033-1.337,14.453
						C797.384,1029.019,775.018,1006.65,787.492,1005.791z"/>
					<path fill="none" stroke="#EA7200" stroke-width="3" stroke-miterlimit="10" d="M804.209,1034.51c0,0-0.902,29.78,7.105,38.813
						"/>
					<path fill="#F9C910" d="M726.25,1046.413c0,0-8.8,49.548-8.725,66.085c0,0,20.67,35.959,42.573,32.501
						c0,0,7.171-36.809,6.917-51.136C765,980.132,726.25,1046.413,726.25,1046.413z"/>
				</g>
			</g>
		</g>
		<g>
			<g>
				<circle fill="none" stroke="#2B68B3" stroke-width="7" stroke-miterlimit="10" cx="1306.182" cy="583.803" r="16"/>
				
					<line fill="none" stroke="#2B68B3" stroke-width="7" stroke-miterlimit="10" x1="1306.182" y1="599.803" x2="1306.182" y2="682.247"/>
			</g>
			<g>
				<circle fill="none" stroke="#2B68B3" stroke-width="7" stroke-miterlimit="10" cx="1421" cy="699.937" r="16"/>
				
					<line fill="none" stroke="#2B68B3" stroke-width="7" stroke-miterlimit="10" x1="1405" y1="699.937" x2="1322.555" y2="699.937"/>
			</g>
			<circle fill="none" stroke="#2B68B3" stroke-width="7" stroke-miterlimit="10" cx="1306.182" cy="698.937" r="16"/>
			<g>
				<circle fill="none" stroke="#2B68B3" stroke-width="7" stroke-miterlimit="10" cx="1421" cy="814.035" r="16"/>
				<line fill="none" stroke="#2B68B3" stroke-width="7" stroke-miterlimit="10" x1="1421" y1="798.035" x2="1421" y2="715.591"/>
			</g>
		</g>
		<g>
			<g>
				<circle fill="none" stroke="#2B68B3" stroke-width="7" stroke-miterlimit="10" cx="1529.591" cy="768.884" r="16"/>
				
					<line fill="none" stroke="#2B68B3" stroke-width="7" stroke-miterlimit="10" x1="1529.591" y1="784.884" x2="1529.591" y2="867.328"/>
			</g>
			<g>
				<circle fill="none" stroke="#2B68B3" stroke-width="7" stroke-miterlimit="10" cx="1414.772" cy="885.018" r="16"/>
				
					<line fill="none" stroke="#2B68B3" stroke-width="7" stroke-miterlimit="10" x1="1430.772" y1="885.018" x2="1513.218" y2="885.018"/>
			</g>
			<circle fill="none" stroke="#2B68B3" stroke-width="7" stroke-miterlimit="10" cx="1529.591" cy="884.018" r="16"/>
			<g>
				<circle fill="none" stroke="#2B68B3" stroke-width="7" stroke-miterlimit="10" cx="1414.772" cy="999.116" r="16"/>
				
					<line fill="none" stroke="#2B68B3" stroke-width="7" stroke-miterlimit="10" x1="1414.772" y1="983.116" x2="1414.772" y2="900.672"/>
			</g>
		</g>
		<g>
			<g>
				<circle fill="none" stroke="#2B68B3" stroke-width="7" stroke-miterlimit="10" cx="1208.182" cy="654.763" r="16"/>
				
					<line fill="none" stroke="#2B68B3" stroke-width="7" stroke-miterlimit="10" x1="1208.182" y1="670.763" x2="1208.182" y2="753.207"/>
			</g>
			<g>
				<circle fill="none" stroke="#2B68B3" stroke-width="7" stroke-miterlimit="10" cx="1323" cy="770.896" r="16"/>
				
					<line fill="none" stroke="#2B68B3" stroke-width="7" stroke-miterlimit="10" x1="1307" y1="770.896" x2="1224.555" y2="770.896"/>
			</g>
			<g>
				<circle fill="none" stroke="#2B68B3" stroke-width="7" stroke-miterlimit="10" cx="1072.056" cy="829.035" r="16"/>
				
					<line fill="none" stroke="#2B68B3" stroke-width="7" stroke-miterlimit="10" x1="1088.056" y1="829.035" x2="1249" y2="829.035"/>
			</g>
			<g>
				<circle fill="none" stroke="#2B68B3" stroke-width="7" stroke-miterlimit="10" cx="1126.109" cy="884" r="16"/>
				<line fill="none" stroke="#2B68B3" stroke-width="7" stroke-miterlimit="10" x1="1142.109" y1="884" x2="1306.182" y2="884"/>
			</g>
			<circle fill="none" stroke="#2B68B3" stroke-width="7" stroke-miterlimit="10" cx="1208.182" cy="769.896" r="16"/>
			<circle fill="none" stroke="#2B68B3" stroke-width="7" stroke-miterlimit="10" cx="1265.777" cy="830.035" r="16"/>
			<g>
				<circle fill="none" stroke="#2B68B3" stroke-width="7" stroke-miterlimit="10" cx="1323" cy="884.995" r="16"/>
				<line fill="none" stroke="#2B68B3" stroke-width="7" stroke-miterlimit="10" x1="1323" y1="868.995" x2="1323" y2="786.551"/>
			</g>
		</g>
		<g>
			<g>
				<rect x="1264.292" y="447.341" fill="#2D2B6F" width="85.539" height="129.688"/>
			</g>
			<g>
				<rect x="1264.292" y="465.966" fill="#2B68B3" width="85.539" height="129.688"/>
			</g>
			<g>
				<rect x="1296.024" y="447.341" fill="#F9C910" width="22.201" height="114.167"/>
			</g>
			<g>
				<g>
					<rect x="1349.831" y="578.358" fill="#2B68B3" width="22.076" height="7"/>
				</g>
				<g>
					<rect x="1349.831" y="487.3" fill="#2B68B3" width="22.076" height="7"/>
				</g>
				<g>
					<rect x="1349.831" y="548.35" fill="#2B68B3" width="22.076" height="7"/>
				</g>
				<g>
					<rect x="1349.831" y="516.963" fill="#2B68B3" width="22.076" height="7"/>
				</g>
			</g>
			<g>
				<g>
					<rect x="1242.218" y="578.358" fill="#2B68B3" width="22.074" height="7"/>
				</g>
				<g>
					<rect x="1242.218" y="487.3" fill="#2B68B3" width="22.074" height="7"/>
				</g>
				<g>
					<rect x="1242.218" y="548.35" fill="#2B68B3" width="22.074" height="7"/>
				</g>
				<g>
					<rect x="1242.218" y="516.963" fill="#2B68B3" width="22.074" height="7"/>
				</g>
			</g>
		</g>
		<linearGradient id="SVGID_6_" gradientUnits="userSpaceOnUse" x1="1430.3398" y1="514.4492" x2="1553.4645" y2="628.9838">
			<stop  offset="0" style="stop-color:#3084D6;stop-opacity:0.2"/>
			<stop  offset="0.1781" style="stop-color:#2580D4;stop-opacity:0.3425"/>
			<stop  offset="0.6956" style="stop-color:#0A75CF;stop-opacity:0.7565"/>
			<stop  offset="1" style="stop-color:#0071CE"/>
		</linearGradient>
		<path opacity="0.1" fill="url(#SVGID_6_)" d="M1588.59,614.72c0,0-48.359,32.59-59,50.24c-10.64,17.64,0-10.2,0-10.2
			s-28.939-116.67-108.12-185.44C1492.51,497.13,1551.53,548.92,1588.59,614.72z"/>
		<linearGradient id="SVGID_7_" gradientUnits="userSpaceOnUse" x1="1796.9795" y1="673.9282" x2="1936.7043" y2="803.9048">
			<stop  offset="0" style="stop-color:#3084D6;stop-opacity:0.2"/>
			<stop  offset="0.1781" style="stop-color:#2580D4;stop-opacity:0.3425"/>
			<stop  offset="0.6956" style="stop-color:#0A75CF;stop-opacity:0.7565"/>
			<stop  offset="1" style="stop-color:#0071CE"/>
		</linearGradient>
		<path opacity="0.1" fill="url(#SVGID_7_)" d="M1951.94,814.19c0,0-40.011,18.4-49.011,42.4c0,0,14.79-144.89-105.37-245.32
			C1879.67,646.21,1939.89,722.61,1951.94,814.19z"/>
		<g>
			<path fill="none" stroke="#FAFCFD" stroke-width="7" stroke-miterlimit="10" d="M812.011,559.182
				c17.772,0,32.176,14.402,32.176,32.176c0,17.771-14.403,32.176-32.176,32.176s-32.176-14.404-32.176-32.176
				C779.835,573.584,794.238,559.182,812.011,559.182z"/>
			<path fill="none" stroke="#FAFCFD" stroke-width="7" stroke-miterlimit="10" d="M681.415,591.357
				c0-72.133,58.457-130.604,130.596-130.604"/>
			<path fill="none" stroke="#FAFCFD" stroke-width="7" stroke-miterlimit="10" d="M561.835,623.533
				c0-152.396,123.508-275.924,275.916-275.924"/>
		</g>
		<rect x="1669.117" y="561.508" fill="#2B68B3" width="657.065" height="38.294"/>
		<g>
			<rect x="1669.117" y="347.609" fill="#2D2B6F" width="27.812" height="243.23"/>
			<rect x="2298.37" y="347.609" fill="#2D2B6F" width="27.812" height="243.23"/>
			<path fill="#2D2B6F" d="M1894.211,497.694c0,0-96.062,23.537-85.062,50.581c11,27.044,174.852,31.238,183.852,10.186
				s6.586-42.012-5.707-60.39C1975,479.693,1894.211,497.694,1894.211,497.694z"/>
			<g>
				<path fill="#F9EC08" d="M1884.943,436.468c2.678,28.722,6.716,56.211,9.268,63.503c0,0,73.696,9.067,93.082,0.313
					c0,0,8.74,0.119,9.672-10.48c0.531-5.99,4.036-21.712,4.036-30.77c0-44.351,13.038-102.699,8.185-108.098
					c-17.723-19.714-37.433-24.182-37.433-24.182c-8.755-2.502-75.176-3.127-98.313,8.754c0,0-1.859,16.935-3.109,52.578
					C1869.811,402.944,1883.024,415.933,1884.943,436.468z"/>
				<path fill="#F7A1A1" d="M1929.352,307.989c2.253,1.536,3.483,4.283,4.048,7.621c0.095,0.614,0.173,1.255,0.234,1.904
					c0.233,2.628,0.13,5.524-0.174,8.409c-0.987,9.525-4.108,7.405-4.108,7.405s5.455,10.517,13.516,10.439
					c6.154-0.052,16.904-5.029,19.643-10.413c0-0.009,0.007,3.77,0.007,3.76c0.842-1.664,1.288,4.896,1.149,4.385
					c-0.546-2.072-3.631-26.565,1.995-31.975c0.103-0.104,0.198-0.191,0.312-0.277c0.181-0.149,0.381-0.278,0.59-0.391
					c18.661-9.795,17.619-63.83,17.619-63.83c-0.207-11.51-10.98-28.94-30.621-29.417c-19.649-0.477-41.032,6.259-41.605,34.176
					C1911.375,277.713,1916.576,299.324,1929.352,307.989z"/>
				<path fill="#EA7200" d="M1942.555,343.769c0,0,17.538-37.856,32.244-17.538C1974.799,326.23,1962.711,351.994,1942.555,343.769z
					"/>
				<path fill="#EA7200" d="M1942.867,343.769c0,0-9.213-36.284-23.92-15.965C1918.947,327.804,1925.536,348.95,1942.867,343.769z"
					/>
				<path fill="none" stroke="#2D2B6F" stroke-width="3" stroke-miterlimit="10" d="M1945.586,279.366c0,0-5.469,7.67,1.073,8.6"/>
				<path fill="none" stroke="#2D2B6F" stroke-width="3" stroke-miterlimit="10" d="M1953.672,296.216c0,0-8.436,4.483-14.463-0.889
					"/>
				<path fill="none" stroke="#EA7200" stroke-width="3" stroke-miterlimit="10" d="M1942.867,343.769
					c0,0-2.566,30.337-2.308,44.317"/>
				<path fill="#F7A1A1" d="M1981.352,276.428c0,0,10.054,0.916,5.721,8.716c-4.334,7.799-10.241,6.136-10.241,6.136
					L1981.352,276.428z"/>
				<path fill="#F7A1A1" d="M1915.161,276.428c0,0-10.052,0.916-5.72,8.716c4.334,7.799,10.24,6.136,10.24,6.136L1915.161,276.428z"
					/>
				<path fill="#2A2768" d="M1974,249.604v11.268c0,0,4.515,2.312,4.225,8.09s1.834,11.894,1.834,11.894s4.163-5.533,4.161-19.694
					s7.132-51.592-39.062-48.331c-46.193,3.259-32.702,45.152-33.238,50.932c-0.537,5.779,3.002,14.246,4.426,18.929
					c0,0,2.51-9.973,1.646-13.149c-0.869-3.18,2.009-6.935,4.009-7.225v-12.712C1922,249.604,1960,256.827,1974,249.604z"/>
				<path fill="#F9C910" d="M1985.995,240.083c0.429,9.603-35.038,6.859-51.017,5.931c-15.981-0.929-25.369-1.61-25.369-1.61
					c3.458-32.135,21.35-36.468,40.139-36.468C1949.748,207.936,1984.729,211.863,1985.995,240.083z"/>
				<path fill="#EA7200" d="M1983.22,245c0,0-1.892,15.233-38.168,13.132c-36.278-2.101-34.577-13.132-34.577-13.132H1983.22z"/>
			</g>
			<rect x="1669.117" y="436.014" fill="#2B68B3" width="657.065" height="23.02"/>
			<line fill="none" stroke="#B7B7B7" stroke-width="7" stroke-miterlimit="10" x1="1686.93" y1="347.609" x2="1686.93" y2="0"/>
			<line fill="none" stroke="#B7B7B7" stroke-width="7" stroke-miterlimit="10" x1="2312.276" y1="347.609" x2="2312.276" y2="0"/>
			<g>
				
					<line fill="none" stroke="#FAFCFD" stroke-width="7" stroke-miterlimit="10" x1="1683.023" y1="447.523" x2="1819.148" y2="583.648"/>
				
					<line fill="none" stroke="#FAFCFD" stroke-width="7" stroke-miterlimit="10" x1="1683.023" y1="581.858" x2="1750.191" y2="514.69"/>
			</g>
			<g>
				
					<line fill="none" stroke="#FAFCFD" stroke-width="7" stroke-miterlimit="10" x1="2312.276" y1="447.523" x2="2176.151" y2="583.648"/>
				
					<line fill="none" stroke="#FAFCFD" stroke-width="7" stroke-miterlimit="10" x1="2312.276" y1="581.858" x2="2245.108" y2="514.69"/>
			</g>
			<g>
				<g>
					<path fill="#F7F8F9" d="M1907.924,733.598l-0.563,22.297c0,0,1.499,8.62-10.269,12.441c-11.77,3.821-20.209-9.048-20.209-9.048
						l1.46-20.638L1907.924,733.598z"/>
					<path fill="#2D2B6F" d="M1908.854,757.278c0,0,9.183,13.648,6.047,18.624c-3.134,4.977-23.636,7.676-32.232,10.467
						c-8.594,2.791-28.651,9.303-32.697,9.034c-4.046-0.27-7.697,0.124-7.697,0.124s-1.315-13.501,7.337-17.626
						c12.826-6.116,20.68-18.056,27.271-18.613c6.591-0.558,2.14,6.096,8.103,4.95
						C1890.946,763.093,1897.59,766.479,1908.854,757.278z"/>
				</g>
				<path fill="#2D2B6F" d="M1871.746,733.459c0,0-9.243-192.409,19.505-201.86c28.749-9.451,38.348,13.484,36.796,41.918
					c-1.552,28.435-16.858,171.013-16.858,171.013S1872.357,747.39,1871.746,733.459z"/>
			</g>
			<g>
				<g>
					<path fill="#F7F8F9" d="M1832.528,733.549l-0.563,22.297c0,0,1.5,8.62-10.269,12.441c-11.769,3.821-20.209-9.048-20.209-9.048
						l1.461-20.638L1832.528,733.549z"/>
					<path fill="#2D2B6F" d="M1833.459,757.229c0,0,9.183,13.648,6.047,18.624c-3.133,4.977-23.635,7.675-32.231,10.467
						c-8.595,2.791-28.651,9.303-32.698,9.035c-4.046-0.27-7.697,0.123-7.697,0.123s-1.314-13.501,7.337-17.626
						c12.827-6.117,20.68-18.056,27.271-18.613c6.592-0.558,2.141,6.096,8.104,4.95
						C1815.552,763.044,1822.195,766.43,1833.459,757.229z"/>
				</g>
				<path fill="#2D2B6F" d="M1796.351,733.41c0,0-9.243-192.409,19.506-201.86c28.748-9.452,38.347,13.483,36.795,41.918
					c-1.551,28.435-16.858,171.013-16.858,171.013S1796.963,747.341,1796.351,733.41z"/>
			</g>
			<g>
				<path fill="#F7A1A1" d="M1823.294,407.001c0,0-14.147,21.333-4.147,32.667s74.559,4.667,87.279,4s42.053,0,49.387-0.667
					s11.104,1.333,14.886-0.667s7.781-6.321,9.781-6.321s14.667,10.091,16,10.206s0.299-10.575-7.851-17.896
					s-8.15-6.765-20.816-4.71s-35.566,4.607-42.783,2.998s-59.217-9.646-59.217-9.646L1823.294,407.001z"/>
				<path fill="#EA7200" d="M1824.479,399.668c0,0-2.667,6,0,10s35.104,24.207,45.208,7.297L1824.479,399.668z"/>
				<path fill="#F9C910" d="M1873.439,335.508c0,0-42.293,40.16-48.96,64.16c0,0,31.749,23.261,45.208,17.297
					S1882.732,354.681,1873.439,335.508z"/>
			</g>
			<g>
				<path fill="#F7A1A1" d="M2047.437,373.438l0.887,2.313c0,0,4.42,2.464,6.582,3.515c2.158,1.051-2.389-82.157-9.246-100.61
					c-6.856-18.453-11.695-32.848,7.43-30.139c15.761,2.232,17.541,12.964,16.431,21.677c0,0-0.579,9.362,0.245,13.021
					c0.828,3.66,41.215,151.484,7.317,144.893c-32.539-6.328-47.747-17.877-47.747-17.877L2047.437,373.438z"/>
				<path fill="#EA7200" d="M2039.312,374.838l4.903-4.413c0,0,8.782,4.172,9.099,9.892c0.317,5.72,4.309,26.473-5.457,37.089
					c0,0-5.779,5.33-10.709-6.095C2032.22,399.886,2039.312,374.838,2039.312,374.838z"/>
				<path fill="#F9C910" d="M1996.491,337.215c0,0,37.109,23.443,47.724,33.209c0,0,11.033,34.455-4.065,46.541
					c0,0-20.624-1.946-36.296-13.559C1988.183,391.794,1996.491,337.215,1996.491,337.215z"/>
				<g>
					<path fill="#2D2B6F" d="M2022.877,245.29l56.038,2.621c0,0,8.803,2.36,8.051,9.355c-0.75,6.995-10.005,6-10.005,6
						l-54.985-9.583c0,0-4.488,4.896-8.684,4.445c-4.197-0.451-9.613-2.73-9.434-4.409c0.181-1.679,10.602,1.421,11.043-5.323
						c0.441-6.745-6.803-7.806-9.571-8.386c-2.767-0.581,6.978-4.346,11.522-1.875
						C2021.397,240.603,2022.877,245.29,2022.877,245.29z"/>
					<path fill="#4A4B7D" d="M2076.989,257.937c1.236,0.133,2.347-0.762,2.479-1.998l0,0c0.133-1.236-0.762-2.346-1.998-2.479
						l-43.367-4.656c-1.235-0.133-2.346,0.762-2.479,1.998l0,0c-0.132,1.235,0.762,2.345,1.998,2.478L2076.989,257.937z"/>
				</g>
				<path fill="#F7A1A1" d="M2066.94,246.624c0,0,1.174-4.992,3.197-3.516c2.022,1.477,7.107,9.727,4.473,10.733
					c-2.636,1.005-6.617-6.211-6.617-6.211L2066.94,246.624z"/>
				<path fill="#F7A1A1" d="M2062.089,245.527c0,0,1.176-4.993,3.199-3.516c2.021,1.477,7.107,9.728,4.473,10.733
					c-2.636,1.005-6.617-6.21-6.617-6.21L2062.089,245.527z"/>
				<path fill="#F7A1A1" d="M2056.431,244.39c0,0,1.229-5.224,3.346-3.679c2.117,1.545,7.439,10.18,4.682,11.232
					c-2.758,1.052-6.924-6.5-6.924-6.5L2056.431,244.39z"/>
				<path fill="#F7A1A1" d="M2049.409,243.353c0,0,1.387-5.891,3.774-4.148c2.387,1.742,8.388,11.479,5.276,12.665
					c-3.108,1.186-7.807-7.328-7.807-7.328L2049.409,243.353z"/>
				<path fill="#F7A1A1" d="M2039.671,258.245c0,0-0.836-2.865,2.131-5.581c2.967-2.715,6.73-3.866,8.863-6.075
					c2.135-2.208,5.939-2.101,3.014,3.215s-4.961,7.409-4.961,7.409s8.164,0.044,10.702,4.367
					C2061.958,265.903,2043.685,267.519,2039.671,258.245z"/>
			</g>
		</g>
		<g>
			<defs>
				<rect id="SVGID_8_" x="2090.609" y="1199.849" width="769.627" height="599.875"/>
			</defs>
			<clipPath id="SVGID_9_">
				<use xlink:href="#SVGID_8_"  overflow="visible"/>
			</clipPath>
			<g clip-path="url(#SVGID_9_)">
				<linearGradient id="SVGID_10_" gradientUnits="userSpaceOnUse" x1="2811.793" y1="1625.3828" x2="2644.1562" y2="1715.1882">
					<stop  offset="0" style="stop-color:#FFFFFF;stop-opacity:0"/>
					<stop  offset="0.0917" style="stop-color:#F9FCFE;stop-opacity:0.0917"/>
					<stop  offset="0.2174" style="stop-color:#E7F2FA;stop-opacity:0.2174"/>
					<stop  offset="0.3627" style="stop-color:#CAE2F5;stop-opacity:0.3627"/>
					<stop  offset="0.5228" style="stop-color:#A2CBED;stop-opacity:0.5228"/>
					<stop  offset="0.6949" style="stop-color:#6EAEE3;stop-opacity:0.6949"/>
					<stop  offset="0.8743" style="stop-color:#308CD7;stop-opacity:0.8743"/>
					<stop  offset="1" style="stop-color:#0071CE"/>
				</linearGradient>
				<polygon opacity="0.4" fill="url(#SVGID_10_)" points="2835.971,1612.624 2548.956,1612.624 2548.956,1792.587 
					2786.334,1792.587 				"/>
				<g id="Iphone">
					<g id="Phone">
						<g>
							<g>
								<g>
									<path fill="#2D2B6F" d="M2168.604,1425.646c-3.957,0-7.176,3.212-7.176,7.159v34.12c0,3.948,3.219,7.159,7.176,7.159
										s7.176-3.211,7.176-7.159v-34.12C2175.78,1428.858,2172.562,1425.646,2168.604,1425.646z"/>
									<path fill="#2D2B6F" d="M2168.604,1517.143c-3.957,0-7.176,3.224-7.176,7.188v56.5v11.648c0,3.964,3.219,7.188,7.176,7.188
										s7.176-3.225,7.176-7.188v-11.648v-56.5C2175.78,1520.366,2172.562,1517.143,2168.604,1517.143z"/>
									<path fill="#2D2B6F" d="M2168.604,1615.814c-3.957,0-7.176,3.225-7.176,7.188v11.648v56.5c0,3.965,3.219,7.188,7.176,7.188
										s7.176-3.224,7.176-7.188v-56.5v-11.648C2175.78,1619.039,2172.562,1615.814,2168.604,1615.814z"/>
									<path fill="#2D2B6F" d="M2692.463,1517.143c-3.957,0-7.176,3.224-7.176,7.188v68.148c0,3.964,3.219,7.188,7.176,7.188
										c3.958,0,7.177-3.225,7.177-7.188v-68.148C2699.64,1520.366,2696.421,1517.143,2692.463,1517.143z"/>
								</g>
							</g>
							<g>
								<path fill="#F9F9FA" d="M2168.604,1362.845c0-39.627,32.128-71.751,71.776-71.751h380.307
									c39.641,0,71.775,32.14,71.775,71.751v744.189h-523.858V1362.845z"/>
							</g>
							<g>
								<path fill="#FFFFFF" d="M2175.78,1368.303c0-38.541,31.248-69.785,69.81-69.785h369.888c38.555,0,69.81,31.259,69.81,69.785
									v738.392H2175.78V1368.303z"/>
							</g>
							<g>
								<circle fill-rule="evenodd" clip-rule="evenodd" fill="#2B68B3" cx="2432.328" cy="1325.181" r="7.176"/>
								<circle fill-rule="evenodd" clip-rule="evenodd" fill="#2B68B3" cx="2348.008" cy="1359.267" r="8.97"/>
								<path fill-rule="evenodd" clip-rule="evenodd" fill="#2B68B3" d="M2389.271,1359.267c0-2.973,2.41-5.382,5.37-5.382h73.579
									c2.966,0,5.37,2.416,5.37,5.382c0,2.973-2.41,5.383-5.37,5.383h-73.579
									C2391.676,1364.649,2389.271,1362.233,2389.271,1359.267z"/>
							</g>
						</g>
						<rect x="2195.683" y="1445.627" fill="#C5E5F8" width="471.464" height="661.407"/>
						<g>
							<rect x="2195.683" y="1405.132" fill="#4383C4" width="471.464" height="40.949"/>
							<g>
								<g>
									<g>
										<defs>
											<polygon id="SVGID_16_" points="2625.049,1417.08 2653.986,1417.08 2654.018,1421.622 2656.268,1421.638 
												2656.268,1426.638 2654.018,1426.638 2654.049,1431.36 2625.049,1431.36 											"/>
										</defs>
										<clipPath id="SVGID_11_">
											<use xlink:href="#SVGID_16_"  overflow="visible"/>
										</clipPath>
										<g clip-path="url(#SVGID_11_)">
											<defs>
												<rect id="SVGID_18_" x="2195.683" y="1411.42" width="471.464" height="100.579"/>
											</defs>
											<clipPath id="SVGID_12_">
												<use xlink:href="#SVGID_18_"  overflow="visible"/>
											</clipPath>
										</g>
									</g>
									<g>
										<defs>
											<rect id="SVGID_20_" x="2627.32" y="1419.563" width="18.594" height="9.313"/>
										</defs>
										<clipPath id="SVGID_13_">
											<use xlink:href="#SVGID_20_"  overflow="visible"/>
										</clipPath>
									</g>
									<g>
										<g>
											<defs>
												<path id="SVGID_22_" d="M2223.746,1418.011h1.242c0.686,0,1.242,0.557,1.242,1.242v9.935
													c0,0.686-0.557,1.241-1.242,1.241h-1.242c-0.686,0-1.241-0.556-1.241-1.241v-9.935
													C2222.505,1418.567,2223.061,1418.011,2223.746,1418.011z M2218.158,1420.495h1.242c0.686,0,1.241,0.557,1.241,1.242
													v7.45c0,0.686-0.556,1.241-1.241,1.241h-1.242c-0.686,0-1.242-0.556-1.242-1.241v-7.45
													C2216.916,1421.052,2217.473,1420.495,2218.158,1420.495z M2212.57,1422.979h1.242c0.686,0,1.241,0.556,1.241,1.241
													v4.968c0,0.686-0.556,1.241-1.241,1.241h-1.242c-0.686,0-1.242-0.556-1.242-1.241v-4.968
													C2211.328,1423.534,2211.885,1422.979,2212.57,1422.979z M2206.982,1424.841h1.242c0.686,0,1.241,0.557,1.241,1.242
													v3.104c0,0.686-0.556,1.241-1.241,1.241h-1.242c-0.686,0-1.242-0.556-1.242-1.241v-3.104
													C2205.74,1425.397,2206.297,1424.841,2206.982,1424.841z"/>
											</defs>
											<clipPath id="SVGID_14_">
												<use xlink:href="#SVGID_22_"  overflow="visible"/>
											</clipPath>
											<g clip-path="url(#SVGID_14_)">
												<defs>
													<rect id="SVGID_24_" x="2195.683" y="1412.369" width="471.464" height="100.579"/>
												</defs>
												<clipPath id="SVGID_15_">
													<use xlink:href="#SVGID_24_"  overflow="visible"/>
												</clipPath>
											</g>
										</g>
										<g>
											<defs>
												<path id="SVGID_26_" d="M2243.352,1427.682c0.748-0.611,1.704-0.978,2.746-0.978c1.043,0,1.999,0.366,2.748,0.978
													l-2.748,2.747L2243.352,1427.682z M2240.27,1424.601c1.542-1.395,3.586-2.243,5.828-2.243s4.287,0.849,5.828,2.243
													l-1.759,1.76c-1.09-0.946-2.513-1.52-4.069-1.52s-2.979,0.573-4.068,1.52L2240.27,1424.601z M2237.193,1421.525
													c2.331-2.18,5.462-3.515,8.904-3.515c3.443,0,6.574,1.335,8.904,3.515l-1.758,1.757c-1.88-1.73-4.389-2.787-7.146-2.787
													c-2.756,0-5.267,1.057-7.146,2.787L2237.193,1421.525z"/>
											</defs>
											<clipPath id="SVGID_17_">
												<use xlink:href="#SVGID_26_"  overflow="visible"/>
											</clipPath>
											<g clip-path="url(#SVGID_17_)">
												<defs>
													<rect id="SVGID_28_" x="2195.683" y="1412.369" width="471.464" height="100.579"/>
												</defs>
												<clipPath id="SVGID_19_">
													<use xlink:href="#SVGID_28_"  overflow="visible"/>
												</clipPath>
											</g>
										</g>
									</g>
								</g>
								<g>
									<g>
										<g>
											<g opacity="0.4">
												<rect x="2652.117" y="1418.672" fill="#FFFFFF" width="8.148" height="11.097"/>
											</g>
										</g>
									</g>
									<g>
										<defs>
											<polygon id="SVGID_30_" points="2625.049,1417.08 2653.986,1417.08 2654.018,1421.622 2656.268,1421.638 
												2656.268,1426.638 2654.018,1426.638 2654.049,1431.36 2625.049,1431.36 											"/>
										</defs>
										<use xlink:href="#SVGID_30_"  overflow="visible" fill-rule="evenodd" clip-rule="evenodd" fill="#FFFFFF"/>
										<clipPath id="SVGID_21_">
											<use xlink:href="#SVGID_30_"  overflow="visible"/>
										</clipPath>
										<g clip-path="url(#SVGID_21_)">
											<defs>
												<rect id="SVGID_32_" x="2195.683" y="1411.42" width="471.464" height="100.579"/>
											</defs>
											<use xlink:href="#SVGID_32_"  overflow="visible" fill="#FFFFFF"/>
											<clipPath id="SVGID_23_">
												<use xlink:href="#SVGID_32_"  overflow="visible"/>
											</clipPath>
										</g>
									</g>
									<g>
										<defs>
											<rect id="SVGID_34_" x="2627.32" y="1419.563" width="18.594" height="9.313"/>
										</defs>
										<use xlink:href="#SVGID_34_"  overflow="visible" fill-rule="evenodd" clip-rule="evenodd" fill="#56A545"/>
										<clipPath id="SVGID_25_">
											<use xlink:href="#SVGID_34_"  overflow="visible"/>
										</clipPath>
									</g>
									<g>
										<g>
											<defs>
												<path id="SVGID_36_" d="M2223.746,1418.011h1.242c0.686,0,1.242,0.557,1.242,1.242v9.935
													c0,0.686-0.557,1.241-1.242,1.241h-1.242c-0.686,0-1.241-0.556-1.241-1.241v-9.935
													C2222.505,1418.567,2223.061,1418.011,2223.746,1418.011z M2218.158,1420.495h1.242c0.686,0,1.241,0.557,1.241,1.242
													v7.45c0,0.686-0.556,1.241-1.241,1.241h-1.242c-0.686,0-1.242-0.556-1.242-1.241v-7.45
													C2216.916,1421.052,2217.473,1420.495,2218.158,1420.495z M2212.57,1422.979h1.242c0.686,0,1.241,0.556,1.241,1.241
													v4.968c0,0.686-0.556,1.241-1.241,1.241h-1.242c-0.686,0-1.242-0.556-1.242-1.241v-4.968
													C2211.328,1423.534,2211.885,1422.979,2212.57,1422.979z M2206.982,1424.841h1.242c0.686,0,1.241,0.557,1.241,1.242
													v3.104c0,0.686-0.556,1.241-1.241,1.241h-1.242c-0.686,0-1.242-0.556-1.242-1.241v-3.104
													C2205.74,1425.397,2206.297,1424.841,2206.982,1424.841z"/>
											</defs>
											<use xlink:href="#SVGID_36_"  overflow="visible" fill-rule="evenodd" clip-rule="evenodd" fill="#FFFFFF"/>
											<clipPath id="SVGID_27_">
												<use xlink:href="#SVGID_36_"  overflow="visible"/>
											</clipPath>
											<g clip-path="url(#SVGID_27_)">
												<defs>
													<rect id="SVGID_38_" x="2195.683" y="1412.369" width="471.464" height="100.579"/>
												</defs>
												<use xlink:href="#SVGID_38_"  overflow="visible" fill="#FFFFFF"/>
												<clipPath id="SVGID_29_">
													<use xlink:href="#SVGID_38_"  overflow="visible"/>
												</clipPath>
												<rect x="2202.598" y="1414.868" clip-path="url(#SVGID_29_)" fill="#FFFFFF" width="26.775" height="18.704"/>
											</g>
										</g>
										<g>
											<defs>
												<path id="SVGID_40_" d="M2243.352,1427.682c0.748-0.611,1.704-0.978,2.746-0.978c1.043,0,1.999,0.366,2.748,0.978
													l-2.748,2.747L2243.352,1427.682z M2240.27,1424.601c1.542-1.395,3.586-2.243,5.828-2.243s4.287,0.849,5.828,2.243
													l-1.759,1.76c-1.09-0.946-2.513-1.52-4.069-1.52s-2.979,0.573-4.068,1.52L2240.27,1424.601z M2237.193,1421.525
													c2.331-2.18,5.462-3.515,8.904-3.515c3.443,0,6.574,1.335,8.904,3.515l-1.758,1.757c-1.88-1.73-4.389-2.787-7.146-2.787
													c-2.756,0-5.267,1.057-7.146,2.787L2237.193,1421.525z"/>
											</defs>
											<use xlink:href="#SVGID_40_"  overflow="visible" fill-rule="evenodd" clip-rule="evenodd" fill="#FFFFFF"/>
											<clipPath id="SVGID_31_">
												<use xlink:href="#SVGID_40_"  overflow="visible"/>
											</clipPath>
											<g clip-path="url(#SVGID_31_)">
												<defs>
													<rect id="SVGID_42_" x="2195.683" y="1412.369" width="471.464" height="100.579"/>
												</defs>
												<use xlink:href="#SVGID_42_"  overflow="visible" fill="#FFFFFF"/>
												<clipPath id="SVGID_33_">
													<use xlink:href="#SVGID_42_"  overflow="visible"/>
												</clipPath>
												<rect x="2234.051" y="1414.868" clip-path="url(#SVGID_33_)" fill="#FFFFFF" width="24.094" height="18.704"/>
											</g>
										</g>
									</g>
									<path fill="#FFFFFF" d="M2567.071,1431.755v-5.813l-2.686,2.462l-0.839-0.916l3.524-3.23v-0.074l-3.524-3.23l0.839-0.915
										l2.686,2.462v-5.813l5.289,4.408l-3.411,3.126l3.411,3.127L2567.071,1431.755z M2568.312,1425.321v3.782l2.162-1.802
										L2568.312,1425.321z M2568.312,1419.337v3.781l2.162-1.98L2568.312,1419.337z"/>
								</g>
								<g>
									<g>
										<defs>
											<polygon id="SVGID_44_" points="2625.049,1417.08 2653.986,1417.08 2654.018,1421.622 2656.268,1421.638 
												2656.268,1426.638 2654.018,1426.638 2654.049,1431.36 2625.049,1431.36 											"/>
										</defs>
										<clipPath id="SVGID_35_">
											<use xlink:href="#SVGID_44_"  overflow="visible"/>
										</clipPath>
										<g clip-path="url(#SVGID_35_)">
											<defs>
												<rect id="SVGID_46_" x="2195.683" y="1411.42" width="471.464" height="100.579"/>
											</defs>
											<clipPath id="SVGID_37_">
												<use xlink:href="#SVGID_46_"  overflow="visible"/>
											</clipPath>
										</g>
									</g>
									<g>
										<defs>
											<rect id="SVGID_48_" x="2627.32" y="1419.563" width="18.594" height="9.313"/>
										</defs>
										<clipPath id="SVGID_39_">
											<use xlink:href="#SVGID_48_"  overflow="visible"/>
										</clipPath>
									</g>
									<g>
										<g>
											<defs>
												<path id="SVGID_50_" d="M2223.746,1418.011h1.242c0.686,0,1.242,0.557,1.242,1.242v9.935
													c0,0.686-0.557,1.241-1.242,1.241h-1.242c-0.686,0-1.241-0.556-1.241-1.241v-9.935
													C2222.505,1418.567,2223.061,1418.011,2223.746,1418.011z M2218.158,1420.495h1.242c0.686,0,1.241,0.557,1.241,1.242
													v7.45c0,0.686-0.556,1.241-1.241,1.241h-1.242c-0.686,0-1.242-0.556-1.242-1.241v-7.45
													C2216.916,1421.052,2217.473,1420.495,2218.158,1420.495z M2212.57,1422.979h1.242c0.686,0,1.241,0.556,1.241,1.241
													v4.968c0,0.686-0.556,1.241-1.241,1.241h-1.242c-0.686,0-1.242-0.556-1.242-1.241v-4.968
													C2211.328,1423.534,2211.885,1422.979,2212.57,1422.979z M2206.982,1424.841h1.242c0.686,0,1.241,0.557,1.241,1.242
													v3.104c0,0.686-0.556,1.241-1.241,1.241h-1.242c-0.686,0-1.242-0.556-1.242-1.241v-3.104
													C2205.74,1425.397,2206.297,1424.841,2206.982,1424.841z"/>
											</defs>
											<clipPath id="SVGID_41_">
												<use xlink:href="#SVGID_50_"  overflow="visible"/>
											</clipPath>
											<g clip-path="url(#SVGID_41_)">
												<defs>
													<rect id="SVGID_52_" x="2195.683" y="1412.369" width="471.464" height="100.579"/>
												</defs>
												<clipPath id="SVGID_43_">
													<use xlink:href="#SVGID_52_"  overflow="visible"/>
												</clipPath>
											</g>
										</g>
										<g>
											<defs>
												<path id="SVGID_54_" d="M2243.352,1427.682c0.748-0.611,1.704-0.978,2.746-0.978c1.043,0,1.999,0.366,2.748,0.978
													l-2.748,2.747L2243.352,1427.682z M2240.27,1424.601c1.542-1.395,3.586-2.243,5.828-2.243s4.287,0.849,5.828,2.243
													l-1.759,1.76c-1.09-0.946-2.513-1.52-4.069-1.52s-2.979,0.573-4.068,1.52L2240.27,1424.601z M2237.193,1421.525
													c2.331-2.18,5.462-3.515,8.904-3.515c3.443,0,6.574,1.335,8.904,3.515l-1.758,1.757c-1.88-1.73-4.389-2.787-7.146-2.787
													c-2.756,0-5.267,1.057-7.146,2.787L2237.193,1421.525z"/>
											</defs>
											<clipPath id="SVGID_45_">
												<use xlink:href="#SVGID_54_"  overflow="visible"/>
											</clipPath>
											<g clip-path="url(#SVGID_45_)">
												<defs>
													<rect id="SVGID_56_" x="2195.683" y="1412.369" width="471.464" height="100.579"/>
												</defs>
												<clipPath id="SVGID_47_">
													<use xlink:href="#SVGID_56_"  overflow="visible"/>
												</clipPath>
											</g>
										</g>
									</g>
								</g>
							</g>
							<g>
								<g>
									<path fill="#FFFFFF" d="M2408.498,1427.079h-4.799v-0.819l4.888-6.988h0.864v7.003h1.461v0.805h-1.461v2.593h-0.953
										V1427.079z M2404.639,1426.274h3.859v-5.573L2404.639,1426.274z"/>
									<path fill="#FFFFFF" d="M2413.177,1423.652v-1.312h1.088v1.312H2413.177z M2413.177,1429.672v-1.312h1.088v1.312H2413.177z
										"/>
									<path fill="#FFFFFF" d="M2417.036,1422.609c0-0.518,0.079-0.986,0.238-1.408c0.159-0.423,0.388-0.785,0.686-1.088
										s0.658-0.537,1.08-0.701s0.892-0.246,1.408-0.246c0.526,0,0.991,0.078,1.394,0.231c0.402,0.154,0.74,0.36,1.013,0.618
										c0.273,0.259,0.479,0.566,0.619,0.924c0.139,0.357,0.208,0.736,0.208,1.133c0,0.467-0.077,0.879-0.23,1.236
										c-0.154,0.357-0.357,0.676-0.611,0.954c-0.253,0.278-0.541,0.526-0.864,0.745s-0.653,0.425-0.991,0.618
										c-0.337,0.194-0.67,0.38-0.998,0.56c-0.328,0.178-0.621,0.367-0.879,0.566c-0.169,0.129-0.333,0.266-0.492,0.409
										s-0.303,0.3-0.432,0.47c-0.13,0.168-0.233,0.355-0.313,0.559c-0.079,0.203-0.124,0.43-0.134,0.678h5.856v0.805h-6.87
										c0.01-0.507,0.064-0.963,0.164-1.371c0.1-0.407,0.318-0.805,0.656-1.191c0.367-0.418,0.747-0.775,1.14-1.073
										s0.777-0.563,1.155-0.798c0.377-0.232,0.734-0.447,1.072-0.641s0.636-0.404,0.895-0.633
										c0.258-0.229,0.462-0.486,0.61-0.775c0.149-0.287,0.224-0.641,0.224-1.058c0-0.337-0.06-0.641-0.179-0.909
										c-0.119-0.268-0.283-0.496-0.491-0.686c-0.209-0.188-0.452-0.33-0.73-0.424c-0.278-0.095-0.581-0.143-0.909-0.143
										c-0.348,0-0.663,0.072-0.946,0.217s-0.526,0.335-0.73,0.573c-0.203,0.239-0.359,0.517-0.469,0.835
										s-0.154,0.655-0.135,1.014H2417.036z"/>
									<path fill="#FFFFFF" d="M2428.645,1419.166c0.517,0,0.964,0.078,1.341,0.231c0.378,0.154,0.698,0.365,0.961,0.634
										c0.264,0.268,0.478,0.58,0.642,0.938c0.163,0.357,0.29,0.737,0.38,1.14c0.089,0.402,0.148,0.817,0.179,1.244
										c0.029,0.428,0.045,0.845,0.045,1.252c0,0.695-0.05,1.361-0.149,1.996c-0.1,0.637-0.281,1.197-0.544,1.685
										c-0.264,0.487-0.623,0.874-1.08,1.162s-1.049,0.433-1.773,0.433c-0.726,0-1.318-0.145-1.78-0.433s-0.825-0.678-1.088-1.169
										c-0.264-0.492-0.445-1.063-0.544-1.715c-0.1-0.65-0.149-1.338-0.149-2.063c0-0.665,0.045-1.315,0.134-1.952
										c0.09-0.635,0.261-1.204,0.515-1.706c0.253-0.501,0.613-0.906,1.08-1.214
										C2427.278,1419.32,2427.89,1419.166,2428.645,1419.166z M2431.237,1424.501c0-0.565-0.032-1.12-0.097-1.661
										s-0.191-1.025-0.38-1.453c-0.189-0.427-0.455-0.77-0.798-1.028c-0.343-0.258-0.792-0.388-1.349-0.388
										c-0.526,0-0.956,0.133-1.288,0.396c-0.333,0.263-0.594,0.613-0.783,1.05c-0.188,0.438-0.32,0.935-0.395,1.49
										c-0.074,0.557-0.111,1.123-0.111,1.699c0,0.676,0.042,1.289,0.126,1.84c0.085,0.552,0.227,1.021,0.425,1.408
										c0.199,0.388,0.465,0.688,0.798,0.902c0.332,0.213,0.752,0.32,1.259,0.32c0.566,0,1.021-0.139,1.363-0.418
										c0.343-0.277,0.604-0.635,0.782-1.072s0.298-0.93,0.357-1.476S2431.237,1425.027,2431.237,1424.501z"/>
									<path fill="#FFFFFF" d="M2438.509,1429.672v-10.729h3.919c0.695,0,1.27,0.079,1.722,0.238
										c0.451,0.158,0.81,0.377,1.072,0.655c0.264,0.278,0.447,0.599,0.552,0.962c0.104,0.362,0.156,0.742,0.156,1.139
										c0,0.597-0.122,1.088-0.365,1.477c-0.243,0.387-0.559,0.692-0.946,0.916c-0.387,0.223-0.827,0.38-1.318,0.469
										c-0.492,0.09-0.986,0.135-1.482,0.135h-2.295v4.738H2438.509z M2441.847,1424.068c0.477,0,0.904-0.029,1.281-0.089
										c0.378-0.06,0.698-0.171,0.962-0.335c0.263-0.164,0.467-0.388,0.61-0.671c0.145-0.283,0.216-0.653,0.216-1.11
										c0-0.676-0.221-1.187-0.663-1.535c-0.441-0.347-1.145-0.521-2.108-0.521h-2.622v4.262H2441.847z"/>
									<path fill="#FFFFFF" d="M2447.821,1429.672v-10.729h1.55l3.517,9.462h0.03l3.457-9.462h1.534v10.729h-1.013v-9.566h-0.03
										l-3.517,9.566h-0.953l-3.532-9.566h-0.029v9.566H2447.821z"/>
								</g>
							</g>
							<g>
								<g>
									<path fill="#FFFFFF" d="M2583.522,1421.863h-2.712v-0.625c0.397-0.03,0.758-0.07,1.08-0.119
										c0.323-0.051,0.606-0.145,0.85-0.283c0.243-0.14,0.447-0.341,0.611-0.604c0.164-0.264,0.285-0.619,0.365-1.066h0.76v10.506
										h-0.954V1421.863z"/>
									<path fill="#FFFFFF" d="M2591.659,1419.166c0.517,0,0.964,0.078,1.341,0.231c0.378,0.154,0.698,0.365,0.961,0.634
										c0.264,0.268,0.478,0.58,0.642,0.938c0.163,0.357,0.29,0.737,0.38,1.14c0.089,0.402,0.148,0.817,0.179,1.244
										c0.029,0.428,0.045,0.845,0.045,1.252c0,0.695-0.05,1.361-0.149,1.996c-0.1,0.637-0.281,1.197-0.544,1.685
										c-0.264,0.487-0.623,0.874-1.08,1.162s-1.049,0.433-1.773,0.433c-0.726,0-1.318-0.145-1.78-0.433s-0.825-0.678-1.088-1.169
										c-0.264-0.492-0.445-1.063-0.544-1.715c-0.1-0.65-0.149-1.338-0.149-2.063c0-0.665,0.045-1.315,0.134-1.952
										c0.09-0.635,0.261-1.204,0.515-1.706c0.253-0.501,0.613-0.906,1.08-1.214
										C2590.293,1419.32,2590.904,1419.166,2591.659,1419.166z M2594.252,1424.501c0-0.565-0.032-1.12-0.097-1.661
										s-0.191-1.025-0.38-1.453c-0.189-0.427-0.455-0.77-0.798-1.028c-0.343-0.258-0.792-0.388-1.349-0.388
										c-0.526,0-0.956,0.133-1.288,0.396c-0.333,0.263-0.594,0.613-0.783,1.05c-0.188,0.438-0.32,0.935-0.395,1.49
										c-0.074,0.557-0.111,1.123-0.111,1.699c0,0.676,0.042,1.289,0.126,1.84c0.085,0.552,0.227,1.021,0.425,1.408
										c0.199,0.388,0.465,0.688,0.798,0.902c0.332,0.213,0.752,0.32,1.259,0.32c0.566,0,1.021-0.139,1.363-0.418
										c0.343-0.277,0.604-0.635,0.782-1.072s0.298-0.93,0.357-1.476S2594.252,1425.027,2594.252,1424.501z"/>
									<path fill="#FFFFFF" d="M2600.152,1419.166c0.517,0,0.964,0.078,1.341,0.231c0.378,0.154,0.698,0.365,0.961,0.634
										c0.264,0.268,0.478,0.58,0.642,0.938c0.163,0.357,0.29,0.737,0.38,1.14c0.089,0.402,0.148,0.817,0.179,1.244
										c0.029,0.428,0.045,0.845,0.045,1.252c0,0.695-0.05,1.361-0.149,1.996c-0.1,0.637-0.281,1.197-0.544,1.685
										c-0.264,0.487-0.623,0.874-1.08,1.162s-1.049,0.433-1.773,0.433c-0.726,0-1.318-0.145-1.78-0.433s-0.825-0.678-1.088-1.169
										c-0.264-0.492-0.445-1.063-0.544-1.715c-0.1-0.65-0.149-1.338-0.149-2.063c0-0.665,0.045-1.315,0.134-1.952
										c0.09-0.635,0.261-1.204,0.515-1.706c0.253-0.501,0.613-0.906,1.08-1.214
										C2598.786,1419.32,2599.397,1419.166,2600.152,1419.166z M2602.745,1424.501c0-0.565-0.032-1.12-0.097-1.661
										s-0.191-1.025-0.38-1.453c-0.189-0.427-0.455-0.77-0.798-1.028c-0.343-0.258-0.792-0.388-1.349-0.388
										c-0.526,0-0.956,0.133-1.288,0.396c-0.333,0.263-0.594,0.613-0.783,1.05c-0.188,0.438-0.32,0.935-0.395,1.49
										c-0.074,0.557-0.111,1.123-0.111,1.699c0,0.676,0.042,1.289,0.126,1.84c0.085,0.552,0.227,1.021,0.425,1.408
										c0.199,0.388,0.465,0.688,0.798,0.902c0.332,0.213,0.752,0.32,1.259,0.32c0.566,0,1.021-0.139,1.363-0.418
										c0.343-0.277,0.604-0.635,0.782-1.072s0.298-0.93,0.357-1.476S2602.745,1425.027,2602.745,1424.501z"/>
									<path fill="#FFFFFF" d="M2610.435,1421.744c0,0.338-0.064,0.656-0.193,0.954c-0.13,0.298-0.306,0.559-0.529,0.782
										s-0.487,0.4-0.79,0.529s-0.623,0.193-0.961,0.193s-0.655-0.064-0.954-0.193c-0.298-0.129-0.559-0.306-0.782-0.529
										c-0.223-0.224-0.399-0.484-0.528-0.782c-0.13-0.298-0.194-0.616-0.194-0.954s0.064-0.655,0.194-0.953
										c0.129-0.299,0.306-0.559,0.528-0.783c0.224-0.223,0.484-0.402,0.782-0.535c0.299-0.135,0.616-0.201,0.954-0.201
										s0.658,0.064,0.961,0.193s0.566,0.305,0.79,0.529c0.224,0.223,0.399,0.486,0.529,0.789
										C2610.37,1421.086,2610.435,1421.406,2610.435,1421.744z M2607.961,1423.339c0.219,0,0.425-0.042,0.618-0.126
										c0.194-0.083,0.365-0.199,0.515-0.347c0.148-0.147,0.268-0.317,0.357-0.509c0.089-0.191,0.134-0.396,0.134-0.613
										s-0.042-0.42-0.126-0.612c-0.085-0.192-0.201-0.362-0.351-0.509c-0.149-0.148-0.323-0.267-0.521-0.355
										c-0.199-0.088-0.407-0.133-0.626-0.133s-0.425,0.043-0.618,0.126c-0.194,0.083-0.365,0.199-0.515,0.347
										c-0.148,0.148-0.266,0.32-0.35,0.518c-0.085,0.196-0.127,0.402-0.127,0.619s0.042,0.422,0.127,0.613
										c0.084,0.191,0.201,0.361,0.35,0.509c0.149,0.147,0.32,0.264,0.515,0.347
										C2607.536,1423.297,2607.742,1423.339,2607.961,1423.339z M2608.542,1429.881h-0.774l5.915-10.715h0.775L2608.542,1429.881
										z M2614.309,1424.725c0.338,0,0.656,0.064,0.954,0.194s0.556,0.307,0.774,0.53c0.219,0.225,0.39,0.486,0.515,0.785
										c0.124,0.299,0.186,0.617,0.186,0.957c0,0.338-0.062,0.66-0.186,0.963c-0.125,0.305-0.296,0.568-0.515,0.793
										s-0.477,0.4-0.774,0.53s-0.616,0.194-0.954,0.194s-0.658-0.064-0.961-0.194s-0.566-0.306-0.79-0.53
										c-0.223-0.225-0.399-0.488-0.528-0.793c-0.13-0.303-0.194-0.625-0.194-0.963c0-0.34,0.067-0.658,0.201-0.957
										c0.135-0.299,0.313-0.561,0.537-0.785c0.224-0.224,0.484-0.4,0.782-0.53S2613.971,1424.725,2614.309,1424.725z
										 M2614.294,1425.589c-0.229,0-0.439,0.045-0.633,0.134c-0.194,0.089-0.363,0.207-0.507,0.355
										c-0.145,0.148-0.259,0.322-0.343,0.52c-0.085,0.197-0.127,0.405-0.127,0.623c0,0.207,0.045,0.408,0.134,0.601
										c0.09,0.192,0.209,0.363,0.358,0.512c0.148,0.148,0.32,0.265,0.514,0.349s0.395,0.126,0.604,0.126
										c0.219,0,0.425-0.044,0.618-0.134c0.194-0.088,0.363-0.207,0.507-0.355s0.258-0.319,0.343-0.512
										c0.084-0.193,0.127-0.398,0.127-0.615c0-0.219-0.043-0.424-0.127-0.615c-0.085-0.193-0.199-0.364-0.343-0.513
										c-0.144-0.147-0.312-0.265-0.507-0.349C2614.719,1425.631,2614.513,1425.589,2614.294,1425.589z"/>
								</g>
							</g>
						</g>
					</g>
				</g>
			</g>
			<g clip-path="url(#SVGID_9_)">
				<text transform="matrix(1 0 0 1 2351.1465 1658.3379)"><tspan x="0" y="0" fill="#2B68B3" font-family="'Rubik-Bold'" font-size="57.639">DATA</tspan><tspan x="-37.033" y="55.661" fill="#2B68B3" font-family="'Rubik-Bold'" font-size="57.639">SECURE</tspan></text>
			</g>
			<path clip-path="url(#SVGID_9_)" fill="#FFFFFF" d="M2624.395,1555.33c0,6.628-5.373,12-12,12h-365.98c-6.627,0-12-5.372-12-12
				v-2.771c0-6.628,5.373-12,12-12h365.98c6.627,0,12,5.372,12,12V1555.33z"/>
			<path clip-path="url(#SVGID_9_)" fill="#2D2B6F" d="M2457.904,1555.33c0,6.628-5.373,12-12,12h-199.49c-6.627,0-12-5.372-12-12
				v-2.771c0-6.628,5.373-12,12-12h199.49c6.627,0,12,5.372,12,12V1555.33z"/>
		</g>
		<g>
			<g>
				<path fill="none" stroke="#FAFCFD" stroke-width="7" stroke-miterlimit="10" d="M1766.808,1379.501
					c0,0,5.505-0.496,14.482-0.575"/>
				<path fill="none" stroke="#FAFCFD" stroke-width="7" stroke-miterlimit="10" stroke-dasharray="30.6787,30.6787" d="
					M1811.922,1380.331c47.992,4.879,116.979,25.165,116.284,101.547c-0.263,28.964-0.396,47.081-0.447,57.948"/>
				<path fill="none" stroke="#FAFCFD" stroke-width="7" stroke-miterlimit="10" d="M1927.867,1553.375
					c0.141-3.281,0.339-14.491,0.339-14.491s0.206,5.727,1.427,14.425"/>
				<path fill="none" stroke="#FAFCFD" stroke-width="7" stroke-miterlimit="10" stroke-dasharray="27.1109,27.1109" d="
					M1935.305,1579.796c8.087,27.257,25.275,58.098,61.66,58.098c40.264,0,84.154,0,111.834,0"/>
				<path fill="none" stroke="#FAFCFD" stroke-width="7" stroke-miterlimit="10" d="M2122.363,1637.894c9.123,0,14.497,0,14.497,0"
					/>
			</g>
		</g>
		<g>
			<rect x="2199.666" y="805.632" fill="none" width="472.834" height="352"/>
			<text transform="matrix(1 0 0 1 2199.666 832.6118)"><tspan x="0" y="0" fill="#FFFFFF" font-family="'Rubik-Light'" font-size="38">Lorem Ipsum is simply </tspan><tspan x="0" y="45.601" fill="#FFFFFF" font-family="'Rubik-Light'" font-size="38">dummy text of the printing </tspan><tspan x="0" y="91.201" fill="#FFFFFF" font-family="'Rubik-Light'" font-size="38">and typesetting industry.</tspan><tspan x="0" y="228" fill="#FFFFFF" font-family="'Rubik-Light'" font-size="38">Lorem Ipsum has been the </tspan><tspan x="0" y="273.601" fill="#FFFFFF" font-family="'Rubik-Light'" font-size="38">industry&apos;s standard dummy </tspan><tspan x="0" y="319.201" fill="#FFFFFF" font-family="'Rubik-Light'" font-size="38">text ever since the 1500s,</tspan></text>
		</g>
		<path fill="#2D2B6F" d="M1445.5,1119.81c0,6.627-3.656,12-8.166,12h-116.169c-4.509,0-8.165-5.373-8.165-12v-21.587
			c0-6.628,3.656-12,8.165-12h116.169c4.51,0,8.166,5.372,8.166,12V1119.81z"/>
		<g>
			<path fill="#EA7200" d="M1569.95,1381.978h-83.973c-9.216,0-16.468-2.735-21.555-8.13c-7.72-8.187-7.482-19.555-7.423-20.932
				v-70.411c0-7.355-1.547-12.617-4.473-15.218c-2.37-2.107-4.986-1.825-5.099-1.813l-0.262,0.04l-0.211-0.008h-26.591
				c-6.63,0-11.677-1.946-14.999-5.785c-4.423-5.11-4.023-11.775-3.866-13.281v-114.63h7v115.083l-0.036,0.25
				c-0.003,0.026-0.596,4.815,2.229,8.035c1.937,2.209,5.19,3.328,9.673,3.328h26.389c1.338-0.131,5.97-0.28,10.234,3.384
				c4.652,3.996,7.012,10.933,7.012,20.615l-0.006,70.7c-0.005,0.084-0.426,9.575,5.561,15.881
				c3.711,3.909,9.236,5.892,16.423,5.892h83.973V1381.978z"/>
		</g>
		<g>
			<path fill="#4383C4" d="M1572.577,1396.834h-102.034c-9.216,0-16.468-2.735-21.555-8.13c-7.72-8.187-7.482-19.555-7.423-20.932
				v-149.295c0-7.443-1.581-12.735-4.572-15.306c-2.354-2.021-4.92-1.738-4.943-1.733l-0.528,0.04h-26.591
				c-6.63,0-11.677-1.946-14.999-5.785c-4.423-5.11-4.023-11.775-3.866-13.281v-59.27h7v59.723l-0.036,0.25
				c-0.003,0.026-0.596,4.815,2.229,8.035c1.937,2.209,5.19,3.328,9.673,3.328h26.389c1.337-0.133,5.97-0.279,10.234,3.384
				c4.652,3.996,7.012,10.933,7.012,20.615l-0.006,149.584c-0.005,0.084-0.426,9.575,5.561,15.881
				c3.711,3.909,9.236,5.892,16.423,5.892h102.034V1396.834z"/>
		</g>
		<g>
			<path fill="#F9EC08" d="M1529.262,1328.836h-139.787c-5.672,0-10.271-1.975-13.672-5.869c-7.71-8.831-6.118-24.72-5.843-27.002
				V1131.81h7v164.613l-0.032,0.234c-0.547,4.091-0.868,15.974,4.156,21.716c2.04,2.33,4.784,3.463,8.391,3.463h139.787V1328.836z"
				/>
		</g>
		<g>
			<path fill="#56A545" d="M1545.591,1358.088h-99.034c-10.97,0-19.022-3.073-23.935-9.134c-6.28-7.749-5.021-17.622-4.653-19.771
				c-0.108-23.196-12.097-25.339-13.235-25.488h-15.259c-24.116,0-33.306-18.424-34.796-28.166l-0.04-0.529v-143.19h7V1274.7
				c0.463,2.483,4.836,21.995,27.836,21.995l15.695,0.01c0.809,0.061,19.8,1.835,19.8,32.795v0.366l-0.076,0.358
				c-0.014,0.07-1.644,8.436,3.202,14.365c3.523,4.312,9.734,6.498,18.461,6.498h99.034V1358.088z"/>
		</g>
		<g>
			<path fill="#2B68B3" d="M1807.812,1199.221l-153.362-76.078l0,0h-0.001l0,0l0,0l-153.362,76.078
				c0,0-7.601,171.351,153.362,270.007v0.001l0,0h0.001v-0.001C1815.413,1370.571,1807.812,1199.221,1807.812,1199.221z"/>
			<path fill="#4383C4" d="M1783.59,1214.536l-129.14-64.062l0,0h-0.001l0,0l0,0l-129.14,64.062c0,0-6.399,144.286,129.14,227.36
				l0,0l0,0h0.001l0,0C1789.99,1358.822,1783.59,1214.536,1783.59,1214.536z"/>
			<g>
				<path fill="none" stroke="#FAFCFD" stroke-width="7" stroke-miterlimit="10" d="M1688.343,1246.641
					c15.575,10.522,25.816,28.342,25.816,48.554c0,32.339-26.216,58.556-58.556,58.556c-32.338,0-58.555-26.217-58.555-58.556
					c0-19.645,9.674-37.03,24.518-47.651"/>
				<g>
					<path fill="none" stroke="#FAFCFD" stroke-width="7" stroke-miterlimit="10" d="M1689.64,1315.967
						c0,3.822-3.1,6.922-6.923,6.922h-54.227c-3.822,0-6.922-3.1-6.922-6.922v-44.997c0-3.823,3.1-6.923,6.922-6.923h54.227
						c3.823,0,6.923,3.1,6.923,6.923V1315.967z"/>
					<path fill="none" stroke="#FAFCFD" stroke-width="7" stroke-miterlimit="10" d="M1635.99,1265.777v-35.699
						c0,0,4.038-17.95,19.613-17.95c15.576,0,20.26,16.798,20.26,16.798v36.852"/>
					
						<line fill="none" stroke="#FAFCFD" stroke-width="7" stroke-miterlimit="10" x1="1655.927" y1="1288.276" x2="1655.927" y2="1300.967"/>
				</g>
			</g>
		</g>
	</g>
</g>
</svg>
