<svg width="285" height="87" viewBox="0 0 285 87" fill="none" xmlns="http://www.w3.org/2000/svg">
<path d="M48.5021 23.4979C48.5021 23.2971 48.5021 23.0962 48.5021 22.9958C48.5021 22.8954 48.5021 22.8954 48.5021 22.795C48.5021 22.6946 48.5021 22.4937 48.5021 22.3933C48.5021 22.1925 48.5021 21.9916 48.5021 21.7908C48.5021 21.6904 48.5021 21.4895 48.5021 21.3891C48.5021 21.2887 48.5021 21.2887 48.5021 21.1883C48.5021 21.0879 48.5021 20.887 48.5021 20.7866V20.6862C48.5021 20.5858 48.5021 20.3849 48.4017 20.2845C48.4017 20.2845 48.4017 20.2845 48.4017 20.1841C48.4017 19.9833 48.3013 19.8828 48.3013 19.682C48.3013 19.682 48.3013 19.682 48.3013 19.5816C48.3013 19.4812 48.3013 19.2803 48.2008 19.1799C48.2008 19.1799 48.2008 19.1799 48.2008 19.0795V18.9791C48.2008 18.8787 48.1004 18.6778 48.1004 18.5774C48.1004 18.3766 48 18.2762 48 18.0753C48 17.9749 47.8996 17.8745 47.8996 17.6736C47.8996 17.5732 47.8996 17.5732 47.8996 17.4728C47.8996 17.3724 47.7992 17.1715 47.7992 17.0711V16.9707C47.7992 16.7699 47.6987 16.6695 47.6987 16.4686C47.5983 16.2678 47.5983 16.1674 47.4979 15.9665C47.3975 15.7657 47.3975 15.6653 47.2971 15.4644C47.1967 15.2636 47.1967 15.1632 47.0962 14.9623C46.9958 14.8619 46.9958 14.6611 46.8954 14.5607C46.8954 14.5607 46.8954 14.4603 46.795 14.4603C46.6946 14.3598 46.6946 14.159 46.5941 14.0586C46.4937 13.7573 46.2929 13.4561 46.0921 13.1548C45.9916 12.954 45.8912 12.8536 45.8912 12.6527C45.7908 12.5523 45.7908 12.3515 45.6904 12.251C45.59 12.0502 45.4895 11.9498 45.3891 11.749C45.2887 11.6485 45.1883 11.4477 45.1883 11.3473C45.1883 11.3473 45.1883 11.2469 45.0879 11.2469C44.9874 11.1464 44.887 10.9456 44.7866 10.8452C44.7866 10.8452 44.7866 10.7448 44.6862 10.7448C44.5858 10.6444 44.4854 10.5439 44.4854 10.4435C44.3849 10.3431 44.2845 10.2427 44.1841 10.0418C44.1841 9.94142 44.0837 9.94142 44.0837 9.841C43.9833 9.64017 43.7824 9.43933 43.5816 9.23849L43.4812 9.13808C43.1799 8.7364 42.8787 8.33473 42.5774 8.03347L42.477 7.93306C41.9749 7.33054 41.3724 6.72803 40.7699 6.22594C40.6695 6.12552 40.6695 6.12552 40.569 6.0251C40.2678 5.72385 39.9665 5.52301 39.6653 5.22176C39.5649 5.12134 39.5649 5.12134 39.4644 5.02092C39.2636 4.82008 38.9623 4.61925 38.7615 4.51883C38.6611 4.41841 38.6611 4.41841 38.5607 4.31799C38.3598 4.11716 38.0586 4.01674 37.8577 3.8159C37.7573 3.71548 37.6569 3.61506 37.4561 3.61506C37.3556 3.51464 37.1548 3.41423 37.0544 3.41423C36.954 3.41423 36.954 3.31381 36.8536 3.31381C36.251 3.01255 35.6485 2.61088 35.046 2.30962C34.9456 2.2092 34.8452 2.2092 34.7448 2.10879C34.6444 2.10879 34.6444 2.00837 34.5439 2.00837C34.4435 2.00837 34.3431 1.90795 34.2427 1.90795C34.1423 1.90795 34.1423 1.90795 34.0418 1.80753C33.841 1.70711 33.5397 1.60669 33.3389 1.50628C33.2385 1.50628 33.2385 1.40586 33.1381 1.40586C33.0377 1.40586 32.8368 1.30544 32.7364 1.30544C32.636 1.30544 32.4351 1.20502 32.3347 1.20502C32.2343 1.20502 32.2343 1.20502 32.1339 1.1046C31.9331 1.00418 31.7322 1.00418 31.5314 0.903766C31.431 0.903766 31.3305 0.803347 31.2301 0.803347C31.0293 0.803347 30.9289 0.702929 30.728 0.702929C30.6276 0.702929 30.4268 0.602511 30.3264 0.602511C29.9247 0.502092 29.4226 0.401674 29.0209 0.301255C28.9205 0.301255 28.8201 0.301255 28.7197 0.200837C28.7197 0.200837 28.7197 0.200837 28.6192 0.200837C28.5188 0.200837 28.4184 0.200837 28.2176 0.100418C28.1172 0.100418 28.0167 0.100418 27.9163 0.100418C27.7155 0.100418 27.6151 0.100418 27.4142 0C27.3138 0 27.2134 0 27.113 0C27.0126 0 26.8117 0 26.7113 0C26.6109 0 26.6109 0 26.5105 0C26.3096 0 26.1088 0 25.9079 0H25.8075C25.7071 0 25.7071 0 25.6067 0C25.5063 0 25.4059 0 25.205 0C25.1046 0 25.1046 0 25.0042 0C24.9038 0 24.7029 0 24.6025 0C24.5021 0 24.3013 0 24.2008 0C24.1004 0 24.1004 0 24 0C23.8996 0 23.7992 0 23.5983 0C23.4979 0 23.4979 0 23.3975 0H23.2971C23.0962 0 22.8954 0 22.6946 0C22.5941 0 22.5941 0 22.4937 0C22.3933 0 22.1925 0 22.0921 0C21.9916 0 21.8912 0 21.7908 0C21.59 0 21.4895 7.45058e-09 21.2887 0.100418C21.1883 0.100418 21.0879 0.100418 20.9874 0.100418C20.887 0.100418 20.6862 0.100418 20.5858 0.200837C20.4854 0.200837 20.3849 0.200837 20.2845 0.301255C19.8828 0.401674 19.3808 0.502092 18.9791 0.602511C18.8787 0.602511 18.6778 0.702929 18.5774 0.702929C18.3766 0.702929 18.2762 0.803347 18.0753 0.803347C17.9749 0.803347 17.8745 0.903766 17.7741 0.903766C17.5732 1.00418 17.3724 1.00418 17.1715 1.1046C17.0711 1.1046 17.0711 1.1046 16.9707 1.20502C16.8703 1.20502 16.6695 1.30544 16.569 1.30544C16.4686 1.30544 16.2678 1.40586 16.1674 1.40586C16.0669 1.40586 16.0669 1.50628 15.9665 1.50628C15.7657 1.60669 15.4644 1.70711 15.2636 1.80753C15.1632 1.80753 15.1632 1.80753 15.0628 1.90795C14.9623 1.90795 14.8619 2.00837 14.7615 2.00837C14.6611 2.00837 14.6611 2.10879 14.5607 2.10879C14.4603 2.2092 14.3598 2.2092 14.2594 2.30962C13.6569 2.61088 13.0544 2.91213 12.4519 3.31381C12.3515 3.31381 12.3515 3.41423 12.251 3.41423C12.1506 3.51464 11.9498 3.61506 11.8494 3.61506C11.1464 3.61506 11.046 3.71548 10.9456 3.8159C10.6444 4.01674 10.4435 4.11716 10.2427 4.31799C10.1423 4.31799 10.1423 4.41841 10.0418 4.51883C9.74059 4.61925 9.53975 4.82008 9.23849 5.02092C9.23849 5.02092 9.13808 5.12134 9.03766 5.12134C8.7364 5.42259 8.43515 5.62343 8.13389 5.92469C8.13389 5.92469 8.03347 6.0251 7.93305 6.12552C7.33054 6.62762 6.82845 7.23013 6.22594 7.83264L6.12552 7.93306C5.82427 8.33473 5.52301 8.7364 5.22176 9.03766L5.12134 9.13808C4.9205 9.43933 4.71967 9.64017 4.61925 9.841C4.61925 9.94142 4.51883 9.94142 4.51883 10.0418C4.41841 10.1423 4.31799 10.2427 4.21757 10.4435C4.11715 10.5439 4.01674 10.6444 4.01674 10.7448C4.01674 10.7448 4.01674 10.8452 3.91632 10.8452C3.8159 10.9456 3.71548 11.1464 3.61506 11.2469C3.61506 11.2469 3.61506 11.3473 3.51464 11.3473C3.41423 11.4477 3.31381 11.6485 3.31381 11.749C3.21339 11.9498 3.11297 12.0502 3.01255 12.251C2.91213 12.3515 2.91213 12.5523 2.81172 12.6527C2.7113 12.8536 2.61088 12.954 2.61088 13.1548C2.41004 13.4561 2.30962 13.7573 2.10879 14.0586C2.10879 14.2594 2.00837 14.3598 2.00837 14.4603C2.00837 14.4603 2.00837 14.5607 1.90795 14.5607C1.80753 14.6611 1.80753 14.8619 1.70711 14.9623C1.60669 15.1632 1.60669 15.2636 1.50628 15.4644C1.40586 15.6653 1.40586 15.7657 1.30544 15.9665C1.20502 16.1674 1.20502 16.2678 1.1046 16.4686C1.1046 16.569 1.00418 16.7699 1.00418 16.9707V17.0711C1.00418 17.1715 0.903766 17.3724 0.903766 17.4728C0.903766 17.5732 0.903766 17.5732 0.903766 17.6736C0.903766 17.7741 0.803347 17.8745 0.803347 18.0753C0.803347 18.2762 0.702929 18.3766 0.702929 18.5774C0.702929 18.6778 0.602511 18.8787 0.602511 18.9791V19.0795C0.602511 19.0795 0.602511 19.0795 0.602511 19.1799C0.602511 19.2803 0.502092 19.4812 0.502092 19.5816C0.502092 19.5816 0.502092 19.5816 0.502092 19.682C0.502092 19.8828 0.401674 19.9833 0.401674 20.1841C0.401674 20.1841 0.401674 20.1841 0.401674 20.2845C0.401674 20.3849 0.401674 20.5858 0.301255 20.6862V20.7866C0.301255 20.887 0.301255 21.0879 0.301255 21.1883C0.301255 21.2887 0.301255 21.2887 0.301255 21.3891C0.301255 21.4895 0.301255 21.6904 0.301255 21.7908C0.301255 21.9916 0.301255 22.1925 0.301255 22.3933C0.301255 22.4937 0.301255 22.6946 0.301255 22.795C0 22.8954 0 22.8954 0 22.9958C0 23.1967 0 23.2971 0 23.4979V23.5983C0 23.7992 0 24 0 24.1004C0 24.3013 0 24.5021 0 24.7029C0 24.8033 0 24.9038 0 25.0042C0 25.1046 0 25.3054 0 25.4059C0 25.5063 0 25.6067 0 25.7071C0 25.8075 0 25.9079 0 25.9079C0 26.0084 0 26.0084 0 26.1088C0 26.2092 0 26.2092 0 26.3096C0 26.41 0 26.5105 0 26.6109C0 26.7113 0 26.7113 0 26.8117C0 26.9121 0 27.0126 0 27.113C0 27.2134 0 27.3138 0 27.4142C0 27.6151 0 27.7155 0.100418 27.9163C0.100418 28.0167 0.100418 28.1172 0.200837 28.2176C0.200837 28.318 0.200837 28.4184 0.301255 28.5188V28.6192C0.301255 28.8201 0.401674 28.9205 0.401674 29.1213C0.502092 29.4226 0.502092 29.7239 0.602511 30.0251C0.702929 30.3264 0.803347 30.6276 0.803347 30.9289C1.1046 32.0335 1.50628 33.0377 2.00837 34.0418C2.00837 34.1423 2.10879 34.1423 2.10879 34.2427C2.2092 34.5439 2.30962 34.7448 2.51046 35.046C2.61088 35.2469 2.7113 35.4477 2.81172 35.5481C3.01255 35.9498 3.31381 36.4519 3.61506 36.8536C3.71548 36.954 3.71548 37.0544 3.8159 37.1548C4.9205 38.7615 6.12552 40.2678 7.53138 41.6736C7.6318 41.7741 7.6318 41.7741 7.73222 41.8745L7.83264 41.9749C7.93305 42.0753 8.03347 42.1757 8.23431 42.2761C10.3431 44.0837 13.0544 45.1883 16.0669 45.1883C17.4728 45.1883 18.8787 44.9874 20.0837 44.4854C22.4937 43.682 24.5021 42.0753 25.9079 40.0669C27.3138 38.0586 28.1172 35.6485 28.1172 33.0377V25.7071H24.1004C21.8912 25.7071 20.0837 27.5146 20.0837 29.7238V32.9372C20.0837 35.1464 18.3766 37.0544 16.1674 37.0544C15.1632 37.0544 14.2594 36.7531 13.5565 36.1506C13.4561 36.0502 13.3556 36.0502 13.3556 35.9498C13.3556 35.9498 13.3556 35.9498 13.2552 35.8494C10.0418 32.9372 8.03347 28.6192 8.03347 23.8996C8.03347 16.3682 13.1548 10.0418 20.1841 8.23431C21.4895 7.93305 22.795 7.73222 24.2008 7.73222C25.6067 7.73222 26.9121 7.93305 28.2176 8.23431C35.1464 10.0418 40.3682 16.3682 40.3682 23.8996C40.3682 30.5272 36.3515 36.251 30.728 38.7615C29.3222 39.364 28.2176 40.7699 28.2176 42.477V48C30.1255 47.6987 32.0335 47.0962 33.7406 46.3933H33.841C33.9414 46.2929 34.1423 46.2929 34.2427 46.1925C34.3431 46.0921 34.5439 46.0921 34.6444 45.9916C34.7448 45.8912 34.9456 45.8912 35.046 45.7908C35.1464 45.6904 35.2469 45.6904 35.4477 45.59C35.5481 45.59 35.6485 45.4895 35.749 45.3891C35.8494 45.3891 35.9498 45.2887 35.9498 45.2887C36.0502 45.1883 36.251 45.0879 36.3515 45.0879C36.6527 44.887 36.954 44.7866 37.1548 44.5858C37.2552 44.5858 37.2552 44.4854 37.3557 44.4854C37.7573 44.1841 38.159 43.9833 38.5607 43.682C38.6611 43.5816 38.7615 43.5816 38.7615 43.4812C38.9623 43.2803 39.2636 43.0795 39.4644 42.9791C39.5649 42.8787 39.7657 42.7782 39.8661 42.5774C39.9665 42.477 39.9665 42.477 40.0669 42.3766C40.1674 42.2762 40.3682 42.0753 40.4686 41.9749C40.569 41.8745 40.569 41.8745 40.6695 41.7741C40.7699 41.6736 40.7699 41.6736 40.8703 41.5732C40.9707 41.4728 41.1715 41.272 41.272 41.1716C41.4728 40.9707 41.6736 40.7699 41.8745 40.569C41.9749 40.4686 41.9749 40.4686 42.0753 40.3682C42.1757 40.2678 42.1757 40.2678 42.2761 40.1674C42.3766 40.0669 42.3766 40.0669 42.477 39.9665C42.5774 39.8661 42.5774 39.8661 42.6778 39.7657C42.8787 39.5649 43.0795 39.364 43.1799 39.0628C43.2803 38.8619 43.3808 38.7615 43.5816 38.5607C43.682 38.4603 43.682 38.3598 43.7824 38.3598C43.8828 38.159 43.9833 38.0586 44.0837 37.8577C44.1841 37.7573 44.1841 37.6569 44.2845 37.6569C44.3849 37.4561 44.4854 37.3556 44.5858 37.1548C44.6862 37.0544 44.6862 36.954 44.7866 36.954C44.887 36.7531 44.9874 36.6527 45.0879 36.4519C45.0879 36.3515 45.1883 36.251 45.1883 36.251C45.2887 36.0502 45.3891 35.9498 45.4895 35.749C45.4895 35.6485 45.59 35.6485 45.59 35.5481C45.6904 35.4477 45.6904 35.3473 45.7908 35.2469C45.8912 35.1464 45.8912 35.046 45.9916 34.8452C46.0921 34.7448 46.0921 34.5439 46.1925 34.4435C46.1925 34.3431 46.2929 34.2427 46.2929 34.1423C46.2929 34.0418 46.3933 33.9414 46.3933 33.841C46.3933 33.7406 46.4937 33.6402 46.4937 33.5397C46.5941 33.4393 46.5941 33.2385 46.6946 33.1381C46.6946 33.0377 46.795 32.9372 46.795 32.7364C46.8954 32.636 46.8954 32.4351 46.9958 32.3347C46.9958 32.2343 47.0962 32.0335 47.0962 31.9331C47.0962 31.8326 47.1967 31.6318 47.1967 31.5314C47.1967 31.431 47.2971 31.2301 47.2971 31.1297C47.2971 31.0293 47.3975 30.9289 47.3975 30.8285C47.3975 30.728 47.3975 30.728 47.3975 30.6276C47.3975 30.5272 47.3975 30.4268 47.4979 30.3264C47.4979 30.1255 47.5983 29.9247 47.5983 29.7238C47.5983 29.6234 47.5983 29.523 47.6987 29.4226C47.6987 29.2218 47.7992 29.1213 47.7992 28.9205C47.7992 28.8201 47.8996 28.6192 47.8996 28.5188C47.8996 28.4184 47.8996 28.318 48 28.1172C48 28.1172 48 28.1172 48 28.0167C48 27.9163 48 27.8159 48 27.7155C48 27.6151 48 27.5146 48 27.4142C48 27.3138 48 27.2134 48 27.113C48 27.0126 48 26.8117 48 26.7113C48 26.6109 48 26.41 48 26.3096C48 26.3096 48 26.3096 48 26.2092C48 26.1088 48 26.0084 48 25.8075C48 25.7071 48 25.7071 48 25.6067C48 25.5063 48 25.4059 48 25.3054C48 25.1046 48 25.0042 48 24.8033C48 24.6025 48 24.5021 48 24.3013C48.5021 23.8996 48.5021 23.6987 48.5021 23.4979Z" fill="#FF2E2E"/>
<path d="M28.3181 22.2929H23.6988C21.088 22.2929 19.0796 20.1842 19.0796 17.6737C19.0796 15.0628 21.1884 13.0544 23.6988 13.0544C26.3097 13.0544 28.3181 15.1632 28.3181 17.6737V22.2929Z" fill="#FF2E2E"/>
<path d="M72.502 24.4016L69.389 24C68.2844 23.7991 67.481 23.4979 67.0794 23.0962C66.6777 22.6945 66.4769 22.092 66.4769 21.3891C66.4769 20.6862 66.7781 20.1841 67.2802 19.682C67.8827 19.2803 68.7865 19.0795 70.0919 19.0795C71.1965 19.0795 72.4015 19.3807 73.5061 19.8828C74.6107 20.3849 75.6149 21.0878 76.4183 21.9916L80.8367 17.4728C80.1338 16.7698 79.4308 16.1673 78.7279 15.6652C78.025 15.1632 77.2216 14.6611 76.4183 14.2594C75.6149 13.8577 74.6107 13.6569 73.5061 13.456C72.4015 13.2552 71.0961 13.1548 69.6903 13.1548C68.0836 13.1548 66.5773 13.3556 65.2718 13.8577C63.9664 14.2594 62.8618 14.8619 61.958 15.6652C61.0543 16.4686 60.3513 17.3724 59.8492 18.477C59.3472 19.5816 59.0459 20.7866 59.0459 22.092C59.0459 27.0125 62.1589 29.8242 68.2844 30.5272L71.2969 30.9288C73.1045 31.1297 74.1087 31.933 74.1087 33.2385C74.1087 34.0418 73.8074 34.6443 73.2049 35.1464C72.6024 35.6485 71.4978 35.8493 69.9915 35.8493C68.4852 35.8493 67.1798 35.5481 65.9748 34.9456C64.7697 34.3431 63.6651 33.4393 62.7614 32.3347L58.1421 36.9539C59.548 38.5606 61.1547 39.7657 62.9622 40.569C64.7697 41.4728 66.979 41.8745 69.6903 41.8745C71.4978 41.8745 73.1045 41.6736 74.5103 41.1715C75.9162 40.6694 77.2216 40.0669 78.2258 39.2636C79.23 38.4602 80.0334 37.456 80.6359 36.3514C81.2384 35.2468 81.4392 34.0418 81.4392 32.7364C81.5396 27.9163 78.5271 25.205 72.502 24.4016Z" fill="#FF2E2E"/>
<path d="M109.155 29.4224V27.1128C109.155 25.3053 108.954 23.4977 108.452 21.7906C107.95 20.0835 107.247 18.5772 106.243 17.2718C105.238 15.9664 103.933 14.9622 102.226 14.1588C100.619 13.3555 98.6111 13.0542 96.4019 13.0542C94.2931 13.0542 92.4855 13.3555 90.8788 14.0584C89.2721 14.7613 87.9667 15.6651 86.8621 16.9705C85.7575 18.276 84.9542 19.7823 84.3516 21.4894C83.7491 23.2969 83.5483 25.2048 83.5483 27.4141C83.5483 29.6233 83.8496 31.6316 84.4521 33.3387C85.0546 35.1463 85.8579 36.6525 87.0629 37.8576C88.1675 39.0626 89.5734 40.0668 91.1801 40.7697C92.7868 41.4726 94.6947 41.7739 96.8035 41.7739C99.314 41.7739 101.523 41.3722 103.531 40.5689C105.54 39.7655 107.146 38.6609 108.351 37.2551L104.435 32.435C103.531 33.3387 102.628 34.1421 101.623 34.7446C100.619 35.3471 99.314 35.7488 97.7073 35.7488C95.5985 35.7488 94.0922 35.2467 93.088 34.1421C92.0839 33.0375 91.5818 31.6316 91.5818 29.8241V29.4224H109.155ZM91.4814 24.4015C91.4814 22.6944 91.883 21.2885 92.7868 20.2843C93.6906 19.2802 94.8956 18.7781 96.5023 18.7781C98.109 18.7781 99.2136 19.2802 100.017 20.2843C100.72 21.2885 101.121 22.6944 101.121 24.3011V24.9036H91.4814V24.4015Z" fill="#FF2E2E"/>
<path d="M161.373 16.6693V34.1421C161.373 38.6609 157.958 42.4768 153.64 43.0793C153.239 43.1797 152.737 43.1797 152.335 43.1797C151.933 43.1797 151.431 43.1797 151.029 43.0793C146.611 42.4768 143.297 38.6609 143.297 34.1421V24.6023C143.297 21.0877 141.992 19.3806 139.481 19.3806C138.377 19.3806 137.272 19.6818 136.368 20.3848C135.465 21.0877 134.962 22.0919 134.962 23.3973V41.1714H127.23V24.6023C127.23 21.0877 125.925 19.3806 123.414 19.3806C122.812 19.3806 122.31 19.481 121.808 19.5814C121.306 19.7823 120.804 19.9831 120.301 20.3848C119.9 20.686 119.498 21.1881 119.297 21.6902C118.996 22.1923 118.896 22.7948 118.896 23.3973V41.1714H111.163V18.0751C111.163 15.6651 113.172 13.6567 115.582 13.6567H118.996V18.276H119.297C119.799 16.7697 120.603 15.5647 121.808 14.5605C123.013 13.5563 124.619 13.0542 126.628 13.0542C128.536 13.0542 130.142 13.5563 131.448 14.4601C132.753 15.3638 133.757 16.7697 134.36 18.5772H134.561C134.762 17.7739 135.163 17.071 135.665 16.368C136.168 15.6651 136.77 15.0626 137.473 14.6609C138.176 14.1588 138.979 13.7572 139.983 13.4559C140.887 13.1546 141.891 13.0542 142.896 13.0542C145.506 13.0542 147.615 13.958 149.021 15.8659C150.327 17.5731 151.029 19.9831 151.13 23.0961C151.13 23.3973 151.13 23.5982 151.13 23.8994V34.0417C151.13 34.7446 151.732 35.3471 152.536 35.3471C153.239 35.3471 153.741 34.6442 153.741 33.9413V20.8869C153.741 18.4768 155.749 16.4684 158.159 16.4684H161.373V16.6693Z" fill="#FF2E2E"/>
<path d="M181.958 31.5314C181.557 32.636 181.055 33.6401 180.251 34.4435C179.448 35.2468 178.343 35.6485 176.837 35.6485C175.23 35.6485 174.126 35.1464 173.322 34.1422C172.519 33.1381 172.117 31.7322 172.117 30.0251V24.9037C172.117 23.1966 172.519 21.7908 173.322 20.7866C174.126 19.7824 175.331 19.2803 176.837 19.2803C178.243 19.2803 179.247 19.682 180.05 20.3849C180.854 21.0878 181.356 21.9916 181.557 23.0962L187.883 20.3849C187.08 18.0753 185.774 16.3682 183.866 15.0627C181.958 13.7573 179.649 13.1548 176.837 13.1548C174.728 13.1548 172.921 13.456 171.314 14.159C169.707 14.8619 168.402 15.7657 167.297 17.0711C166.193 18.3765 165.389 19.8828 164.787 21.5899C164.184 23.3975 163.983 25.3054 163.983 27.5146C163.983 29.7238 164.285 31.7322 164.787 33.4393C165.389 35.2468 166.193 36.7531 167.297 37.9581C168.402 39.1632 169.707 40.1673 171.314 40.8703C172.921 41.5732 174.728 41.8745 176.837 41.8745C179.548 41.8745 181.858 41.2719 183.766 40.0669C185.674 38.8619 187.08 36.9539 187.983 34.2427L181.958 31.5314Z" fill="#FF2E2E"/>
<path d="M214.896 21.4895C214.293 19.682 213.49 18.1757 212.385 16.9707C211.28 15.7657 209.975 14.7615 208.368 14.159C206.762 13.456 204.954 13.1548 202.946 13.1548C200.937 13.1548 199.13 13.456 197.523 14.159C195.916 14.8619 194.611 15.7657 193.506 16.9707C192.402 18.1757 191.598 19.682 190.996 21.4895C190.393 23.297 190.092 25.3054 190.092 27.4142C190.092 29.523 190.393 31.6318 190.996 33.3389C191.598 35.1464 192.402 36.6527 193.506 37.8577C194.611 39.0627 195.916 40.0669 197.523 40.7698C199.13 41.4728 200.937 41.774 202.946 41.774C204.954 41.774 206.762 41.4728 208.368 40.7698C209.975 40.0669 211.28 39.1632 212.385 37.8577C213.49 36.5523 214.293 35.046 214.896 33.3389C215.498 31.5314 215.799 29.523 215.799 27.4142C215.799 25.3054 215.498 23.1966 214.896 21.4895ZM207.665 30.2259C207.665 31.933 207.264 33.3389 206.46 34.2427C205.657 35.1464 204.452 35.6485 202.946 35.6485C201.439 35.6485 200.234 35.1464 199.431 34.2427C198.628 33.3389 198.226 31.933 198.226 30.2259V24.6025C198.226 22.8954 198.628 21.4895 199.431 20.5857C200.234 19.682 201.439 19.1799 202.946 19.1799C204.452 19.1799 205.657 19.682 206.46 20.5857C207.264 21.4895 207.665 22.8954 207.665 24.6025V30.2259Z" fill="#FF2E2E"/>
<path d="M226.243 33.138V4.61914H218.51V33.6401C218.51 36.0501 219.113 37.9581 220.318 39.2635C221.523 40.569 223.531 41.1715 226.142 41.1715H231.464V35.1464H228.151C227.146 35.1464 226.243 34.2426 226.243 33.138Z" fill="#FF2E2E"/>
<path d="M257.674 21.4895C257.071 19.682 256.268 18.1757 255.163 16.9707C254.059 15.7657 252.753 14.7615 251.147 14.159C249.54 13.456 247.732 13.1548 245.724 13.1548C243.716 13.1548 241.908 13.456 240.301 14.159C238.695 14.8619 237.389 15.7657 236.285 16.9707C235.18 18.1757 234.377 19.682 233.774 21.4895C233.172 23.297 232.87 25.3054 232.87 27.4142C232.87 29.523 233.172 31.6318 233.774 33.3389C234.377 35.1464 235.18 36.6527 236.285 37.8577C237.389 39.0627 238.695 40.0669 240.301 40.7698C241.908 41.4728 243.716 41.774 245.724 41.774C247.732 41.774 249.54 41.4728 251.147 40.7698C252.753 40.0669 254.059 39.1632 255.163 37.8577C256.268 36.5523 257.071 35.046 257.674 33.3389C258.276 31.5314 258.577 29.523 258.577 27.4142C258.577 25.3054 258.276 23.1966 257.674 21.4895ZM250.444 30.2259C250.444 31.933 250.042 33.3389 249.239 34.2427C248.435 35.1464 247.23 35.6485 245.724 35.6485C244.218 35.6485 243.013 35.1464 242.209 34.2427C241.406 33.3389 240.904 31.933 240.904 30.2259V24.6025C240.904 22.8954 241.306 21.4895 242.209 20.5857C243.013 19.682 244.218 19.1799 245.724 19.1799C247.23 19.1799 248.435 19.682 249.239 20.5857C250.042 21.4895 250.444 22.8954 250.444 24.6025V30.2259Z" fill="#FF2E2E"/>
<path d="M282.678 15.8659C281.272 13.958 279.063 13.0542 276.251 13.0542C274.042 13.0542 272.435 13.5563 271.13 14.6609C269.925 15.6651 269.021 16.9705 268.519 18.3764H268.218V13.7572H264.803C262.393 13.7572 260.385 15.7655 260.385 18.1756V41.2718H268.117V23.3973C268.117 22.6944 268.218 22.1923 268.519 21.6902C268.82 21.1881 269.222 20.7864 269.624 20.3848C270.126 20.0835 270.628 19.7823 271.23 19.5814C271.833 19.3806 272.435 19.3806 273.038 19.3806C274.444 19.3806 275.448 19.7823 276.05 20.686C276.653 21.4894 276.854 22.8952 276.854 24.6023V41.1714H284.586V23.9998C284.787 20.4852 284.084 17.7739 282.678 15.8659Z" fill="#FF2E2E"/>
<path d="M161.372 13.3556H156.954C154.544 13.3556 152.536 11.3473 152.536 8.93721C152.536 6.52717 154.544 4.5188 156.954 4.5188C159.364 4.5188 161.372 6.52717 161.372 8.93721V13.3556Z" fill="#FF2E2E"/>
<rect x="61" y="48" width="224" height="39" fill="#FF2E2E"/>
<path d="M115.523 75V57.9375H120.773C122.273 57.9375 123.613 58.2773 124.793 58.957C125.98 59.6289 126.906 60.5898 127.57 61.8398C128.234 63.082 128.566 64.4961 128.566 66.082V66.8672C128.566 68.4531 128.238 69.8633 127.582 71.0977C126.934 72.332 126.016 73.2891 124.828 73.9688C123.641 74.6484 122.301 74.9922 120.809 75H115.523ZM119.039 60.7852V72.1758H120.738C122.113 72.1758 123.164 71.7266 123.891 70.8281C124.617 69.9297 124.988 68.6445 125.004 66.9727V66.0703C125.004 64.3359 124.645 63.0234 123.926 62.1328C123.207 61.2344 122.156 60.7852 120.773 60.7852H119.039ZM142.38 70.5234C142.38 69.8594 142.146 69.3516 141.677 69C141.209 68.6406 140.365 68.2656 139.146 67.875C137.927 67.4766 136.962 67.0859 136.252 66.7031C134.314 65.6562 133.345 64.2461 133.345 62.4727C133.345 61.5508 133.603 60.7305 134.119 60.0117C134.642 59.2852 135.388 58.7188 136.357 58.3125C137.334 57.9062 138.427 57.7031 139.638 57.7031C140.857 57.7031 141.943 57.9258 142.896 58.3711C143.849 58.8086 144.587 59.4297 145.111 60.2344C145.642 61.0391 145.908 61.9531 145.908 62.9766H142.392C142.392 62.1953 142.146 61.5898 141.654 61.1602C141.162 60.7227 140.47 60.5039 139.58 60.5039C138.72 60.5039 138.052 60.6875 137.576 61.0547C137.099 61.4141 136.861 61.8906 136.861 62.4844C136.861 63.0391 137.138 63.5039 137.693 63.8789C138.255 64.2539 139.08 64.6055 140.166 64.9336C142.166 65.5352 143.623 66.2812 144.537 67.1719C145.451 68.0625 145.908 69.1719 145.908 70.5C145.908 71.9766 145.349 73.1367 144.232 73.9805C143.115 74.8164 141.611 75.2344 139.72 75.2344C138.408 75.2344 137.212 74.9961 136.134 74.5195C135.056 74.0352 134.232 73.375 133.662 72.5391C133.099 71.7031 132.818 70.7344 132.818 69.6328H136.345C136.345 71.5156 137.47 72.457 139.72 72.457C140.556 72.457 141.209 72.2891 141.677 71.9531C142.146 71.6094 142.38 71.1328 142.38 70.5234ZM167.923 70.5234C167.923 69.8594 167.688 69.3516 167.22 69C166.751 68.6406 165.907 68.2656 164.688 67.875C163.47 67.4766 162.505 67.0859 161.794 66.7031C159.856 65.6562 158.888 64.2461 158.888 62.4727C158.888 61.5508 159.145 60.7305 159.661 60.0117C160.184 59.2852 160.93 58.7188 161.899 58.3125C162.876 57.9062 163.97 57.7031 165.18 57.7031C166.399 57.7031 167.485 57.9258 168.438 58.3711C169.391 58.8086 170.13 59.4297 170.653 60.2344C171.184 61.0391 171.45 61.9531 171.45 62.9766H167.934C167.934 62.1953 167.688 61.5898 167.196 61.1602C166.704 60.7227 166.013 60.5039 165.122 60.5039C164.263 60.5039 163.595 60.6875 163.118 61.0547C162.641 61.4141 162.403 61.8906 162.403 62.4844C162.403 63.0391 162.68 63.5039 163.235 63.8789C163.798 64.2539 164.622 64.6055 165.708 64.9336C167.708 65.5352 169.165 66.2812 170.079 67.1719C170.993 68.0625 171.45 69.1719 171.45 70.5C171.45 71.9766 170.891 73.1367 169.774 73.9805C168.657 74.8164 167.153 75.2344 165.263 75.2344C163.95 75.2344 162.755 74.9961 161.677 74.5195C160.598 74.0352 159.774 73.375 159.204 72.5391C158.641 71.7031 158.36 70.7344 158.36 69.6328H161.888C161.888 71.5156 163.013 72.457 165.263 72.457C166.098 72.457 166.751 72.2891 167.22 71.9531C167.688 71.6094 167.923 71.1328 167.923 70.5234ZM189.155 57.9375V69.1758C189.155 71.043 188.569 72.5195 187.397 73.6055C186.233 74.6914 184.639 75.2344 182.616 75.2344C180.623 75.2344 179.041 74.707 177.87 73.6523C176.698 72.5977 176.1 71.1484 176.077 69.3047V57.9375H179.592V69.1992C179.592 70.3164 179.858 71.1328 180.389 71.6484C180.928 72.1562 181.67 72.4102 182.616 72.4102C184.592 72.4102 185.596 71.3711 185.627 69.293V57.9375H189.155ZM198.176 75H194.66V57.9375H198.176V75ZM216.338 60.7852H211.111V75H207.595V60.7852H202.439V57.9375H216.338V60.7852ZM231.019 67.6055H224.269V72.1758H232.191V75H220.753V57.9375H232.167V60.7852H224.269V64.8516H231.019V67.6055Z" fill="#FEFEFE"/>
</svg>
