<svg width="606" height="396" viewBox="0 0 606 396" fill="none" xmlns="http://www.w3.org/2000/svg">
<path opacity="0.15" d="M30.08 386.78C30.08 386.78 -16.92 337.54 6.58 263.16C30.08 188.78 125.58 160.32 138.58 135.05C151.58 109.78 154.44 51.2801 196.28 20.7801C245.37 -14.9999 316.18 -2.58995 349.08 42.7801C381.98 88.1501 411.66 145.35 453.87 150.07C496.08 154.79 538.08 150.12 572.08 215.7C606.08 281.28 563.58 371.78 550.58 387.28" fill="#6FCECC"/>
<path d="M457.22 46.2599C457.216 46.2965 457.216 46.3334 457.22 46.3699C457.22 46.5599 457.22 46.74 457.14 46.93C457.06 47.12 457.08 47.3099 457.03 47.5099M467.09 42.84C467.059 42.6238 467.002 42.4122 466.92 42.2099V42.2099C466.865 42.0826 466.801 41.959 466.73 41.84C466.655 41.7246 466.568 41.6174 466.47 41.52L466.32 41.3699L466.17 41.24C466.101 41.1875 466.027 41.1407 465.95 41.0999C465.784 40.9947 465.601 40.9171 465.41 40.8699H465.22C464.972 40.83 464.718 40.83 464.47 40.8699V40.8699C464.175 40.916 463.874 40.9036 463.584 40.8332C463.294 40.7629 463.021 40.636 462.78 40.4599C462.719 40.4223 462.662 40.3788 462.61 40.33L462.45 40.1699C462.365 40.0827 462.291 39.9853 462.23 39.88C462.168 39.7868 462.111 39.69 462.06 39.59C462.06 39.53 462.01 39.4799 461.99 39.4199C461.978 39.3718 461.961 39.3249 461.94 39.2799C461.78 38.8399 461.61 38.42 461.41 38C461.379 37.9282 461.352 37.8548 461.33 37.7799C461.216 37.4596 461.182 37.1165 461.23 36.7799C461.263 36.5167 461.338 36.2603 461.45 36.02C461.57 35.7795 461.733 35.5628 461.93 35.38C461.995 35.3147 462.066 35.2545 462.14 35.2V35.2L462.34 35.0299C462.52 34.8681 462.669 34.675 462.78 34.4599C462.836 34.3596 462.886 34.2561 462.93 34.15V34.15L463.02 33.82C463.095 33.4906 463.094 33.1486 463.018 32.8195C462.942 32.4905 462.792 32.183 462.58 31.92C462.089 31.2963 461.561 30.7019 461 30.1399C460.458 29.5925 459.884 29.0782 459.28 28.6C459.01 28.3872 458.695 28.238 458.359 28.1636C458.023 28.0891 457.675 28.0913 457.34 28.17L457.09 28.25C456.75 28.3622 456.444 28.5582 456.2 28.82L456 29V29.0499C455.727 29.4069 455.36 29.6806 454.94 29.84C454.787 29.8919 454.63 29.9287 454.47 29.95H454.28C454.124 29.9651 453.966 29.9651 453.81 29.95C453.69 29.9353 453.572 29.9051 453.46 29.86C453.38 29.8388 453.303 29.8086 453.23 29.77L452.94 29.6399L452.51 29.45L451.78 29.17C451.328 28.9906 450.945 28.672 450.686 28.2603C450.427 27.8486 450.306 27.3651 450.34 26.8799V26.8799V26.7C450.421 26.1306 450.286 25.5517 449.962 25.0764C449.639 24.6012 449.149 24.2637 448.59 24.1299L448.33 24.08C447.57 23.9962 446.805 23.9528 446.04 23.95C445.268 23.9525 444.497 23.9959 443.73 24.08C443.138 24.1528 442.598 24.4537 442.224 24.9188C441.851 25.3838 441.674 25.9762 441.73 26.57V26.74C441.73 26.85 441.73 26.97 441.73 27.08C441.732 27.514 441.611 27.9396 441.38 28.3077C441.15 28.6758 440.821 28.9712 440.43 29.16L440.24 29.24L439.53 29.51L438.97 29.76L438.83 29.82C438.351 30.0391 437.81 30.0862 437.3 29.9532C436.79 29.8202 436.341 29.5153 436.03 29.09V29.09C435.683 28.6184 435.17 28.2963 434.594 28.1886C434.019 28.0809 433.424 28.1958 432.93 28.51L432.73 28.65C432.136 29.1216 431.572 29.6292 431.04 30.17C430.502 30.704 429.994 31.2683 429.52 31.86C429.287 32.1506 429.128 32.4941 429.059 32.8602C428.989 33.2263 429.01 33.6039 429.12 33.9599C429.18 34.177 429.275 34.3829 429.4 34.57C429.496 34.7171 429.607 34.8544 429.73 34.9799L429.95 35.16C430.375 35.4696 430.679 35.9165 430.812 36.4249C430.945 36.9333 430.899 37.472 430.68 37.95C430.47 38.42 430.27 38.89 430.1 39.36C429.997 39.6403 429.841 39.8983 429.64 40.1199C429.519 40.2405 429.389 40.3509 429.25 40.45C429.105 40.5456 428.951 40.6261 428.79 40.6899C428.683 40.7341 428.572 40.7708 428.46 40.7999C428.176 40.85 427.885 40.85 427.6 40.7999C427.487 40.7903 427.373 40.7903 427.26 40.7999C427.12 40.7847 426.98 40.7847 426.84 40.7999C426.349 40.8815 425.898 41.1209 425.555 41.4818C425.212 41.8426 424.996 42.3054 424.94 42.7999C424.856 43.5571 424.813 44.3182 424.81 45.08C424.813 45.8351 424.856 46.5895 424.94 47.34C425.001 47.8328 425.219 48.293 425.561 48.653C425.903 49.013 426.351 49.2538 426.84 49.34C427.092 49.3801 427.348 49.3801 427.6 49.34C427.713 49.3297 427.827 49.3297 427.94 49.34C428.407 49.339 428.863 49.4784 429.25 49.74C429.349 49.8021 429.439 49.876 429.52 49.9599C429.78 50.1996 429.979 50.4979 430.1 50.83C430.27 51.3 430.47 51.7699 430.68 52.2299C430.881 52.6674 430.938 53.1569 430.845 53.629C430.752 54.1011 430.512 54.5318 430.16 54.86L429.95 55.0299L429.73 55.22C429.607 55.3455 429.496 55.4828 429.4 55.63C429.273 55.8161 429.178 56.0223 429.12 56.24C429.114 56.3065 429.114 56.3734 429.12 56.4399C429.11 56.5096 429.11 56.5803 429.12 56.65C429.11 56.7263 429.11 56.8036 429.12 56.88V57V57.33C429.12 57.43 429.18 57.5299 429.21 57.6399V57.75C429.243 57.8252 429.279 57.8987 429.32 57.97C429.32 57.97 429.32 57.97 429.32 57.97C429.367 58.0601 429.421 58.147 429.48 58.2299C430.423 59.4166 431.5 60.4904 432.69 61.43C432.917 61.6161 433.179 61.7552 433.461 61.8394C433.742 61.9235 434.038 61.9509 434.33 61.9199C434.548 61.978 434.774 62.005 435 62C435.43 61.8495 435.806 61.5745 436.08 61.2099L436.26 60.99C436.509 60.7252 436.818 60.523 437.16 60.4L437.95 60.2599C438.275 60.2603 438.596 60.332 438.89 60.47C439.35 60.69 439.81 60.8799 440.28 61.0499C440.728 61.2088 441.113 61.5066 441.38 61.9C441.474 62.0456 441.554 62.1996 441.62 62.36C441.767 62.7383 441.815 63.1478 441.76 63.5499V63.5499C441.673 64.1283 441.81 64.7181 442.142 65.1992C442.475 65.6804 442.978 66.0167 443.55 66.1399V66.1399H443.77C444.527 66.2237 445.288 66.2671 446.05 66.2699C446.805 66.2668 447.56 66.2234 448.31 66.1399C448.844 66.0758 449.339 65.8284 449.71 65.44C449.853 65.2888 449.977 65.1209 450.08 64.94C450.129 64.8495 450.173 64.756 450.21 64.66C450.355 64.2846 450.4 63.8779 450.34 63.4799C450.33 63.3702 450.33 63.2597 450.34 63.15C450.336 62.687 450.473 62.2337 450.731 61.8499C450.99 61.4661 451.359 61.1698 451.79 61C452.27 60.83 452.73 60.6399 453.2 60.4199C453.511 60.2672 453.853 60.1878 454.2 60.1878C454.547 60.1878 454.889 60.2672 455.2 60.4199C455.359 60.5059 455.51 60.6063 455.65 60.72C455.727 60.7754 455.797 60.8391 455.86 60.91L456.04 61.1199C456.39 61.5873 456.902 61.907 457.476 62.0161C458.049 62.1253 458.643 62.0161 459.14 61.7099C459.215 61.6667 459.285 61.6164 459.35 61.56C459.93 61.09 460.5 60.5599 461.04 60.0499C461.58 59.5399 462.09 58.9299 462.56 58.3499C462.793 58.0549 462.95 57.7076 463.018 57.3382C463.085 56.9688 463.062 56.5884 462.95 56.2299C462.95 56.1299 462.88 56.03 462.84 55.93C462.797 55.8281 462.743 55.731 462.68 55.6399C462.583 55.4903 462.469 55.3527 462.34 55.2299L462.12 55.04C462.044 54.9914 461.973 54.9343 461.91 54.8699C461.558 54.5418 461.318 54.1111 461.225 53.639C461.132 53.1669 461.189 52.6774 461.39 52.24C461.61 51.78 461.8 51.31 461.97 50.84C462.155 50.3451 462.504 49.9289 462.959 49.6613C463.414 49.3936 463.948 49.2907 464.47 49.3699C464.996 49.456 465.535 49.3608 466 49.0999C466.116 49.0247 466.226 48.9412 466.33 48.8499L466.48 48.7099L466.6 48.57C466.876 48.2286 467.049 47.8159 467.1 47.38C467.184 46.6295 467.227 45.8751 467.23 45.1199C467.224 44.358 467.177 43.5969 467.09 42.84V42.84Z" stroke="#0BB3B7" stroke-width="0.5" stroke-miterlimit="10"/>
<path d="M205.78 77.42C205.775 77.4565 205.775 77.4935 205.78 77.53C205.78 77.72 205.73 77.9 205.7 78.08C205.674 78.2752 205.637 78.4688 205.59 78.66C205.59 78.66 205.59 78.66 205.59 78.66C205.509 79.0348 205.409 79.4052 205.29 79.77C205.23 79.98 205.14 80.19 205.06 80.4C204.99 80.5909 204.91 80.7778 204.82 80.96C204.76 81.1 204.69 81.24 204.62 81.37C204.437 81.7386 204.226 82.0929 203.99 82.43C203.94 82.52 203.87 82.61 203.81 82.7C203.787 82.7445 203.756 82.7851 203.72 82.82L203.5 83.12C203.411 83.2488 203.311 83.3693 203.2 83.48C203.003 83.7306 202.789 83.9678 202.56 84.19L202.26 84.47L201.95 84.75L201.49 85.12C201.115 85.4103 200.724 85.6807 200.32 85.93L199.94 86.14C199.79 86.23 199.64 86.3 199.48 86.38L199.04 86.58L198.31 86.86L197.89 87C197.58 87.09 197.28 87.17 196.96 87.23C196.809 87.2705 196.655 87.3006 196.5 87.32C196.345 87.3531 196.188 87.3764 196.03 87.39C195.242 87.465 194.448 87.465 193.66 87.39C193.504 87.3992 193.347 87.3992 193.19 87.39C193.035 87.3765 192.882 87.3531 192.73 87.32C192.572 87.3006 192.415 87.2705 192.26 87.23C191.721 87.1118 191.189 86.9581 190.67 86.77L190.27 86.61H190.22L189.77 86.41H189.72L189.26 86.18C188.939 86.0091 188.628 85.8188 188.33 85.61C188.182 85.5215 188.042 85.4212 187.91 85.31C187.78 85.22 187.66 85.12 187.54 85.02C187.42 84.92 187.2 84.73 187.04 84.58C186.88 84.43 186.72 84.28 186.57 84.13C186.42 83.98 186.31 83.86 186.19 83.72C185.745 83.2104 185.347 82.6614 185 82.08C184.91 81.92 184.81 81.77 184.73 81.61C184.63 81.4351 184.54 81.2548 184.46 81.07L184.31 80.75C184.279 80.6851 184.252 80.6183 184.23 80.55L184.11 80.27C184.11 80.15 184.02 80.03 183.99 79.91C183.969 79.8616 183.952 79.8114 183.94 79.76C183.94 79.61 183.84 79.46 183.8 79.31C183.76 79.16 183.67 78.85 183.62 78.62C183.57 78.39 183.62 78.34 183.54 78.2C183.46 78.06 183.46 77.67 183.43 77.4C183.39 77.0179 183.37 76.6341 183.37 76.25C183.37 75.8725 183.39 75.4953 183.43 75.12C183.435 75.0835 183.435 75.0465 183.43 75.01C183.43 74.83 183.48 74.64 183.51 74.46C183.536 74.2648 183.573 74.0712 183.62 73.88M215.65 74C215.621 73.7835 215.564 73.5718 215.48 73.37V73.37C215.425 73.2458 215.362 73.1255 215.29 73.01C215.215 72.8916 215.128 72.781 215.03 72.68L214.88 72.54L214.73 72.41L214.51 72.26C214.355 72.1468 214.183 72.059 214 72L213.81 71.95C213.562 71.91 213.309 71.91 213.06 71.95H213C212.824 71.9649 212.647 71.9649 212.47 71.95C212.054 71.9108 211.655 71.7662 211.31 71.53L211.14 71.39C211.082 71.3418 211.028 71.2882 210.98 71.23C210.895 71.1462 210.821 71.0522 210.76 70.95C210.698 70.8569 210.641 70.76 210.59 70.66C210.59 70.6 210.54 70.54 210.52 70.49C210.508 70.4386 210.491 70.3884 210.47 70.34C210.31 69.91 210.14 69.48 209.94 69.07C209.909 68.9983 209.883 68.9248 209.86 68.85C209.747 68.5296 209.712 68.1865 209.76 67.85C209.794 67.59 209.868 67.3368 209.98 67.1C210.095 66.8565 210.259 66.6388 210.46 66.46C210.525 66.3915 210.596 66.328 210.67 66.27C210.741 66.2222 210.808 66.1687 210.87 66.11C211.047 65.9457 211.196 65.7531 211.31 65.54C211.37 65.44 211.41 65.33 211.46 65.23L211.55 64.91C211.625 64.5806 211.624 64.2386 211.548 63.9096C211.472 63.5806 211.322 63.273 211.11 63.01C210.157 61.8037 209.066 60.7129 207.86 59.76C207.592 59.5432 207.277 59.3916 206.941 59.317C206.604 59.2423 206.255 59.2468 205.92 59.33L205.67 59.4C205.331 59.5195 205.026 59.7184 204.78 59.98L204.6 60.19C204.33 60.5497 203.962 60.824 203.54 60.98C203.388 61.0352 203.23 61.0754 203.07 61.1H202.88C202.724 61.1202 202.566 61.1202 202.41 61.1C202.269 61.088 202.131 61.0543 202 61L201.77 60.91C201.677 60.8584 201.58 60.8149 201.48 60.78L201.05 60.59C200.81 60.49 200.57 60.39 200.32 60.31C199.861 60.133 199.471 59.8127 199.208 59.3966C198.945 58.9805 198.823 58.4908 198.86 58V58V57.82C198.938 57.2522 198.802 56.6758 198.479 56.2027C198.155 55.7296 197.667 55.3936 197.11 55.26C197.024 55.2496 196.937 55.2496 196.85 55.26C196.09 55.1713 195.325 55.1278 194.56 55.13C193.788 55.1276 193.017 55.171 192.25 55.26C191.658 55.3328 191.118 55.6338 190.744 56.0988C190.371 56.5638 190.194 57.1562 190.25 57.75V57.92C190.25 58.03 190.25 58.14 190.25 58.25C190.253 58.6855 190.132 59.1127 189.902 59.4825C189.672 59.8523 189.342 60.1496 188.95 60.34L188.76 60.41L188.05 60.69L187.49 60.93L187.35 61C186.869 61.2162 186.329 61.2607 185.819 61.126C185.309 60.9913 184.861 60.6856 184.55 60.26V60.26C184.202 59.7904 183.689 59.4698 183.114 59.3622C182.539 59.2547 181.945 59.3682 181.45 59.68L181.25 59.83C180.656 60.2982 180.092 60.8025 179.56 61.34C179.043 61.866 178.556 62.4201 178.1 63C177.866 63.2922 177.707 63.6373 177.637 64.0052C177.568 64.373 177.589 64.7524 177.7 65.11C177.758 65.3246 177.853 65.5276 177.98 65.71C178.079 65.8584 178.189 65.9989 178.31 66.13L178.53 66.31C178.956 66.6214 179.26 67.07 179.393 67.5801C179.526 68.0902 179.479 68.6305 179.26 69.11C179.05 69.57 178.85 70.04 178.68 70.52C178.579 70.7984 178.422 71.0535 178.22 71.27C178.1 71.3937 177.969 71.5075 177.83 71.61C177.685 71.7024 177.531 71.7795 177.37 71.84C177.266 71.8929 177.155 71.93 177.04 71.95C176.756 72.005 176.464 72.005 176.18 71.95C176.067 71.94 175.953 71.94 175.84 71.95C175.7 71.9397 175.56 71.9397 175.42 71.95C174.93 72.0331 174.48 72.2729 174.137 72.6335C173.794 72.9941 173.578 73.456 173.52 73.95C173.347 75.4583 173.347 76.9816 173.52 78.49C173.58 78.9834 173.797 79.4444 174.139 79.8047C174.481 80.165 174.93 80.4053 175.42 80.49C175.672 80.5302 175.928 80.5302 176.18 80.49C176.293 80.4797 176.407 80.4797 176.52 80.49C176.986 80.4938 177.441 80.6327 177.83 80.89C177.926 80.9553 178.017 81.0289 178.1 81.11C178.358 81.3514 178.556 81.6491 178.68 81.98C178.85 82.46 179.05 82.93 179.26 83.39C179.46 83.8259 179.517 84.3137 179.424 84.7841C179.331 85.2545 179.091 85.6834 178.74 86.01L178.53 86.19L178.31 86.37C178.189 86.4976 178.079 86.6347 177.98 86.78C177.855 86.967 177.76 87.1729 177.7 87.39C177.695 87.4599 177.695 87.5301 177.7 87.6C177.696 87.6666 177.696 87.7334 177.7 87.8C177.691 87.8797 177.691 87.9603 177.7 88.04V88.11C177.7 88.21 177.7 88.33 177.7 88.43C177.717 88.5388 177.744 88.6459 177.78 88.75V88.75V88.86C177.813 88.9353 177.85 89.0087 177.89 89.08V89.08C177.935 89.1714 177.989 89.2585 178.05 89.34C178.522 89.9371 179.029 90.5048 179.57 91.04C180.105 91.5748 180.669 92.079 181.26 92.55C181.722 92.9211 182.31 93.0969 182.9 93.04C183.228 93.0112 183.547 92.9135 183.834 92.7533C184.122 92.593 184.373 92.3738 184.57 92.11L184.75 91.9C185.002 91.6354 185.309 91.4304 185.65 91.3L186.44 91.17C186.764 91.1717 187.084 91.2398 187.38 91.37C187.84 91.59 188.31 91.79 188.77 91.96C189.22 92.115 189.607 92.4137 189.87 92.81C189.968 92.9499 190.048 93.1009 190.11 93.26C190.257 93.6418 190.305 94.0546 190.25 94.46V94.46C190.163 95.0396 190.299 95.6306 190.632 96.1134C190.964 96.5962 191.468 96.9346 192.04 97.06V97.06H192.26C193.017 97.1487 193.778 97.1921 194.54 97.19C195.295 97.1902 196.049 97.1501 196.8 97.07C197.334 97.0059 197.829 96.7584 198.2 96.37C198.343 96.2188 198.467 96.0509 198.57 95.87C198.619 95.7795 198.663 95.686 198.7 95.59C198.844 95.2142 198.889 94.808 198.83 94.41C198.821 94.2969 198.821 94.1831 198.83 94.07C198.826 93.6003 198.967 93.1408 199.233 92.7541C199.5 92.3675 199.88 92.0727 200.32 91.91C200.8 91.74 201.26 91.54 201.73 91.33C202.041 91.1773 202.383 91.0978 202.73 91.0978C203.077 91.0978 203.419 91.1773 203.73 91.33C203.893 91.4112 204.047 91.5083 204.19 91.62C204.26 91.69 204.33 91.75 204.39 91.82C204.455 91.8857 204.515 91.9559 204.57 92.03V92.03C204.92 92.4973 205.432 92.817 206.006 92.9262C206.579 93.0353 207.173 92.9261 207.67 92.62L207.88 92.47C208.469 91.9929 209.034 91.4856 209.57 90.95C210.108 90.4123 210.616 89.8447 211.09 89.25C211.323 88.9569 211.48 88.6113 211.548 88.2435C211.616 87.8757 211.592 87.4968 211.48 87.14C211.48 87.04 211.41 86.94 211.37 86.84C211.325 86.736 211.271 86.6357 211.21 86.54C211.111 86.3922 210.997 86.2548 210.87 86.13L210.65 85.95L210.44 85.77C210.089 85.4434 209.85 85.0145 209.756 84.5441C209.663 84.0737 209.72 83.5859 209.92 83.15C210.138 82.6906 210.332 82.2199 210.5 81.74C210.685 81.2459 211.035 80.8308 211.49 80.5648C211.946 80.2988 212.479 80.1982 213 80.28C213.542 80.3573 214.093 80.2442 214.56 79.96C214.678 79.8914 214.789 79.811 214.89 79.72L215.04 79.58L215.16 79.44C215.434 79.0975 215.607 78.6854 215.66 78.25C215.834 76.7416 215.834 75.2183 215.66 73.71L215.65 74Z" stroke="#0BB3B7" stroke-width="0.5" stroke-miterlimit="10"/>
<path d="M547.46 313.27H488.07V382.85H547.46V313.27Z" fill="#2573AD"/>
<path d="M547.46 313.27H488.07V333.91H547.46V313.27Z" fill="#1BA4CE"/>
<path d="M547.46 337.74H488.07V358.38H547.46V337.74Z" fill="#1BA4CE"/>
<path d="M547.46 362.21H488.07V382.85H547.46V362.21Z" fill="#1BA4CE"/>
<path d="M493.48 382.85H488.07V386.21H493.48V382.85Z" fill="#068484"/>
<path d="M547.46 382.85H542.05V386.21H547.46V382.85Z" fill="#068484"/>
<path d="M493.48 316.08H491.47V331.58H493.48V316.08Z" fill="#04B6BA"/>
<path d="M497.57 316.08H495.56V331.58H497.57V316.08Z" fill="#04B6BA"/>
<path d="M501.66 316.08H499.65V331.58H501.66V316.08Z" fill="#04B6BA"/>
<path d="M505.75 316.08H503.74V331.58H505.75V316.08Z" fill="#04B6BA"/>
<path d="M544.13 316.08H508.37V331.58H544.13V316.08Z" fill="#94E1EB"/>
<path d="M493.48 340.31H491.47V355.81H493.48V340.31Z" fill="#04B6BA"/>
<path d="M497.57 340.31H495.56V355.81H497.57V340.31Z" fill="#04B6BA"/>
<path d="M501.66 340.31H499.65V355.81H501.66V340.31Z" fill="#04B6BA"/>
<path d="M505.75 340.31H503.74V355.81H505.75V340.31Z" fill="#04B6BA"/>
<path d="M509.84 340.31H507.83V355.81H509.84V340.31Z" fill="#04B6BA"/>
<path d="M513.92 340.31H511.91V355.81H513.92V340.31Z" fill="#04B6BA"/>
<path d="M518.01 340.31H516V355.81H518.01V340.31Z" fill="#04B6BA"/>
<path d="M544.13 340.31H520.51V355.81H544.13V340.31Z" fill="#94E1EB"/>
<path d="M493.48 364.53H491.47V380.03H493.48V364.53Z" fill="#04B6BA"/>
<path d="M497.57 364.53H495.56V380.03H497.57V364.53Z" fill="#04B6BA"/>
<path d="M501.66 364.53H499.65V380.03H501.66V364.53Z" fill="#04B6BA"/>
<path d="M505.75 364.53H503.74V380.03H505.75V364.53Z" fill="#04B6BA"/>
<path d="M535.95 364.53H533.94V380.03H535.95V364.53Z" fill="#04B6BA"/>
<path d="M540.04 364.53H538.03V380.03H540.04V364.53Z" fill="#04B6BA"/>
<path d="M544.13 364.53H542.12V380.03H544.13V364.53Z" fill="#04B6BA"/>
<path d="M531.5 364.53H508.37V380.03H531.5V364.53Z" fill="#94E1EB"/>
<path d="M456.95 171.12H459.45" stroke="#6FCECC" stroke-miterlimit="10"/>
<path d="M464.54 171.12H512.96" stroke="#6FCECC" stroke-miterlimit="10" stroke-dasharray="5.1 5.1"/>
<path d="M515.51 171.12H518.01V173.62" stroke="#6FCECC" stroke-miterlimit="10"/>
<path d="M518.01 178.7V308.23" stroke="#6FCECC" stroke-miterlimit="10" stroke-dasharray="5.08 5.08"/>
<path d="M518.01 310.77V313.27" stroke="#6FCECC" stroke-miterlimit="10"/>
<path d="M317.85 316.56H255.67V375.32H317.85V316.56Z" fill="#00BFCD"/>
<path d="M194.41 371.46H379.1C381.041 371.46 382.903 372.231 384.276 373.604C385.649 374.977 386.42 376.839 386.42 378.78V386.1H187.09V378.78C187.09 376.839 187.861 374.977 189.234 373.604C190.607 372.231 192.468 371.46 194.41 371.46Z" fill="#1ECCDE"/>
<path d="M449.52 100.14H123.98C119.882 100.14 116.56 103.462 116.56 107.56V331.53C116.56 335.628 119.882 338.95 123.98 338.95H449.52C453.618 338.95 456.94 335.628 456.94 331.53V107.56C456.94 103.462 453.618 100.14 449.52 100.14Z" fill="#1ECCDE"/>
<path d="M446.4 111.7V307C446.401 307.345 446.334 307.687 446.203 308.006C446.072 308.325 445.879 308.615 445.636 308.859C445.393 309.104 445.103 309.297 444.785 309.43C444.466 309.562 444.125 309.63 443.78 309.63H128.7C128.002 309.63 127.333 309.353 126.84 308.86C126.347 308.367 126.07 307.698 126.07 307V111.7C126.07 111.002 126.347 110.332 126.84 109.837C127.332 109.342 128.001 109.063 128.7 109.06H443.78C444.125 109.061 444.467 109.131 444.786 109.264C445.104 109.397 445.393 109.592 445.637 109.837C445.88 110.083 446.073 110.373 446.203 110.693C446.334 111.012 446.401 111.355 446.4 111.7Z" fill="#94E1EB"/>
<path d="M435 324.76C435 326.02 434.626 327.252 433.926 328.299C433.226 329.347 432.231 330.163 431.067 330.645C429.904 331.127 428.623 331.254 427.387 331.008C426.151 330.762 425.016 330.155 424.126 329.264C423.235 328.374 422.628 327.238 422.382 326.003C422.136 324.767 422.263 323.486 422.745 322.322C423.227 321.158 424.043 320.164 425.091 319.464C426.138 318.764 427.37 318.39 428.63 318.39C430.319 318.39 431.939 319.061 433.134 320.256C434.329 321.45 435 323.071 435 324.76Z" fill="#5CEFF7"/>
<g opacity="0.35">
<path opacity="0.35" d="M429.22 114.48H225.54C219.89 114.48 215.31 119.06 215.31 124.71V254.91C215.31 260.56 219.89 265.14 225.54 265.14H429.22C434.87 265.14 439.45 260.56 439.45 254.91V124.71C439.45 119.06 434.87 114.48 429.22 114.48Z" fill="white"/>
</g>
<path d="M402 109.06V285C401.997 289.206 400.325 293.238 397.352 296.212C394.378 299.186 390.345 300.857 386.14 300.86H157.69C153.483 300.86 149.447 299.189 146.472 296.215C143.496 293.241 141.822 289.207 141.82 285V109.06H402Z" fill="#67D7E0"/>
<path d="M403.25 76.25H158.66C152.508 76.25 147.52 81.2375 147.52 87.39V279.92C147.52 286.072 152.508 291.06 158.66 291.06H403.25C409.402 291.06 414.39 286.072 414.39 279.92V87.39C414.39 81.2375 409.402 76.25 403.25 76.25Z" fill="white"/>
<path d="M403.25 76.25H158.66C155.705 76.2527 152.871 77.4286 150.782 79.5193C148.693 81.61 147.52 84.4446 147.52 87.4V97.15H414.39V87.4C414.39 84.4446 413.217 81.61 411.128 79.5193C409.039 77.4286 406.205 76.2527 403.25 76.25Z" fill="#1ECCDE"/>
<path d="M381.68 87.0801C381.682 87.7174 381.495 88.3409 381.142 88.8718C380.79 89.4026 380.288 89.8169 379.699 90.0621C379.111 90.3074 378.463 90.3726 377.838 90.2495C377.213 90.1263 376.638 89.8205 376.187 89.3705C375.736 88.9206 375.428 88.3469 375.303 87.722C375.178 87.0971 375.241 86.4492 375.484 85.8602C375.728 85.2712 376.141 84.7677 376.67 84.4135C377.2 84.0592 377.823 83.8701 378.46 83.8701C379.312 83.8701 380.13 84.208 380.734 84.8097C381.337 85.4114 381.678 86.2279 381.68 87.0801Z" fill="white"/>
<path d="M394.77 87.0801C394.77 87.715 394.582 88.3356 394.229 88.8635C393.876 89.3914 393.375 89.8028 392.789 90.0458C392.202 90.2887 391.557 90.3523 390.934 90.2284C390.311 90.1046 389.739 89.7989 389.29 89.3499C388.841 88.901 388.536 88.329 388.412 87.7064C388.288 87.0837 388.351 86.4383 388.594 85.8517C388.837 85.2651 389.249 84.7638 389.777 84.4111C390.305 84.0584 390.925 83.8701 391.56 83.8701C392.411 83.8701 393.228 84.2083 393.83 84.8103C394.432 85.4123 394.77 86.2288 394.77 87.0801Z" fill="white"/>
<path d="M407.87 87.0801C407.87 87.715 407.682 88.3356 407.329 88.8635C406.976 89.3914 406.475 89.8028 405.889 90.0458C405.302 90.2887 404.657 90.3523 404.034 90.2284C403.411 90.1046 402.839 89.7989 402.39 89.3499C401.941 88.901 401.636 88.329 401.512 87.7064C401.388 87.0837 401.452 86.4383 401.695 85.8517C401.937 85.2651 402.349 84.7638 402.877 84.4111C403.405 84.0584 404.025 83.8701 404.66 83.8701C405.511 83.8728 406.326 84.2118 406.927 84.8132C407.529 85.4146 407.868 86.2296 407.87 87.0801Z" fill="white"/>
<path d="M402.85 109.23H320.59V113.72H402.85V109.23Z" fill="#DCFDFF"/>
<path d="M402.85 276.23V278.73H400.35" stroke="#6FCECC" stroke-miterlimit="10"/>
<path d="M395.43 278.73H161.67" stroke="#6FCECC" stroke-miterlimit="10" stroke-dasharray="4.92 4.92"/>
<path d="M159.21 278.73H156.71V276.23" stroke="#6FCECC" stroke-miterlimit="10"/>
<path d="M156.71 271.05V201.19" stroke="#6FCECC" stroke-miterlimit="10" stroke-dasharray="5.18 5.18"/>
<path d="M156.71 198.6V196.1H159.21" stroke="#6FCECC" stroke-miterlimit="10"/>
<path d="M164.13 196.1H397.89" stroke="#6FCECC" stroke-miterlimit="10" stroke-dasharray="4.92 4.92"/>
<path d="M400.35 196.1H402.85V198.6" stroke="#6FCECC" stroke-miterlimit="10"/>
<path d="M402.85 203.78V273.64" stroke="#6FCECC" stroke-miterlimit="10" stroke-dasharray="5.18 5.18"/>
<path d="M402.85 119.17H320.59V123.66H402.85V119.17Z" fill="#DCFDFF"/>
<path d="M402.85 129.11H261.1V133.6H402.85V129.11Z" fill="#DCFDFF"/>
<path d="M402.85 139.05H261.1V143.54H402.85V139.05Z" fill="#DCFDFF"/>
<path d="M402.85 149H261.1V153.49H402.85V149Z" fill="#DCFDFF"/>
<path d="M402.85 158.94H261.1V163.43H402.85V158.94Z" fill="#DCFDFF"/>
<path d="M402.85 168.88H261.1V173.37H402.85V168.88Z" fill="#DCFDFF"/>
<path d="M355.39 178.82H261.1V183.31H355.39V178.82Z" fill="#DCFDFF"/>
<path d="M253.63 180.81V183.31H251.13" stroke="#6FCECC" stroke-miterlimit="10"/>
<path d="M246.33 183.31H162.25" stroke="#6FCECC" stroke-miterlimit="10" stroke-dasharray="4.8 4.8"/>
<path d="M159.85 183.31H157.35V180.81" stroke="#6FCECC" stroke-miterlimit="10"/>
<path d="M157.35 175.5V114.38" stroke="#6FCECC" stroke-miterlimit="10" stroke-dasharray="5.31 5.31"/>
<path d="M157.35 111.73V109.23H159.85" stroke="#6FCECC" stroke-miterlimit="10"/>
<path d="M164.65 109.23H248.73" stroke="#6FCECC" stroke-miterlimit="10" stroke-dasharray="4.8 4.8"/>
<path d="M251.13 109.23H253.63V111.73" stroke="#6FCECC" stroke-miterlimit="10"/>
<path d="M253.63 117.04V178.15" stroke="#6FCECC" stroke-miterlimit="10" stroke-dasharray="5.31 5.31"/>
<path d="M274.14 109.23H262.23C261.606 109.23 261.1 109.736 261.1 110.36V122.27C261.1 122.894 261.606 123.4 262.23 123.4H274.14C274.764 123.4 275.27 122.894 275.27 122.27V110.36C275.27 109.736 274.764 109.23 274.14 109.23Z" fill="#156F93"/>
<path d="M269.82 119.84L266.3 116.31L269.82 112.79" stroke="white" stroke-width="1.5" stroke-linecap="round" stroke-linejoin="round"/>
<path d="M313.4 109.23H301.49C300.866 109.23 300.36 109.736 300.36 110.36V122.27C300.36 122.894 300.866 123.4 301.49 123.4H313.4C314.024 123.4 314.53 122.894 314.53 122.27V110.36C314.53 109.736 314.024 109.23 313.4 109.23Z" fill="#156F93"/>
<path d="M306.28 119.84L309.8 116.31L306.28 112.79" stroke="white" stroke-width="1.5" stroke-linecap="round" stroke-linejoin="round"/>
<path d="M293.5 109.23H281.59C280.966 109.23 280.46 109.736 280.46 110.36V122.27C280.46 122.894 280.966 123.4 281.59 123.4H293.5C294.124 123.4 294.63 122.894 294.63 122.27V110.36C294.63 109.736 294.124 109.23 293.5 109.23Z" fill="#156F93"/>
<path d="M289.4 112.79L285.95 119.84" stroke="white" stroke-width="1.5" stroke-linecap="round" stroke-linejoin="round"/>
<path d="M160.72 107.34H155.56V112.5H160.72V107.34Z" fill="#1ECCDE"/>
<path d="M256.22 107.34H251.06V112.5H256.22V107.34Z" fill="#1ECCDE"/>
<path d="M160.72 144.71H155.56V149.87H160.72V144.71Z" fill="#1ECCDE"/>
<path d="M256.22 144.71H251.06V149.87H256.22V144.71Z" fill="#1ECCDE"/>
<path d="M208.47 107.34H203.31V112.5H208.47V107.34Z" fill="#1ECCDE"/>
<path d="M160.72 180.73H155.56V185.89H160.72V180.73Z" fill="#1ECCDE"/>
<path d="M256.22 180.73H251.06V185.89H256.22V180.73Z" fill="#1ECCDE"/>
<path d="M208.47 180.73H203.31V185.89H208.47V180.73Z" fill="#1ECCDE"/>
<path d="M159.29 193.31H154.13V198.47H159.29V193.31Z" fill="#1ECCDE"/>
<path d="M405.43 193.31H400.27V198.47H405.43V193.31Z" fill="#1ECCDE"/>
<path d="M159.29 230.68H154.13V235.84H159.29V230.68Z" fill="#1ECCDE"/>
<path d="M405.43 230.68H400.27V235.84H405.43V230.68Z" fill="#1ECCDE"/>
<path d="M286.33 193.31H281.17V198.47H286.33V193.31Z" fill="#1ECCDE"/>
<path d="M159.29 276.15H154.13V281.31H159.29V276.15Z" fill="#1ECCDE"/>
<path d="M405.43 276.15H400.27V281.31H405.43V276.15Z" fill="#1ECCDE"/>
<path d="M286.33 276.15H281.17V281.31H286.33V276.15Z" fill="#1ECCDE"/>
<path d="M280.95 260.27C292.918 260.27 302.62 250.568 302.62 238.6C302.62 226.632 292.918 216.93 280.95 216.93C268.982 216.93 259.28 226.632 259.28 238.6C259.28 250.568 268.982 260.27 280.95 260.27Z" fill="#94E1EB"/>
<path d="M275.04 251.2V226L292.45 238.6L275.04 251.2Z" fill="#156F93"/>
<path d="M129.4 320.4V382.85C129.4 383.609 129.099 384.338 128.563 384.876C128.027 385.414 127.299 385.717 126.54 385.72H56.54V328C56.54 327.22 56.8498 326.472 57.4011 325.921C57.9525 325.37 58.7003 325.06 59.48 325.06H104C104.778 325.06 105.524 324.752 106.075 324.202C106.626 323.653 106.937 322.908 106.94 322.13V320.4C106.94 319.62 107.25 318.872 107.801 318.321C108.353 317.77 109.1 317.46 109.88 317.46H126.49C127.265 317.468 128.005 317.781 128.55 318.332C129.094 318.882 129.4 319.625 129.4 320.4Z" fill="#FF2A00"/>
<path d="M129.03 326.66H64.5298C63.7014 326.66 63.0298 327.332 63.0298 328.16V377.96C63.0298 378.789 63.7014 379.46 64.5298 379.46H129.03C129.858 379.46 130.53 378.789 130.53 377.96V328.16C130.53 327.332 129.858 326.66 129.03 326.66Z" fill="#FCFCFC"/>
<path d="M127.28 328.66H62.7798C61.9514 328.66 61.2798 329.332 61.2798 330.16V379.96C61.2798 380.789 61.9514 381.46 62.7798 381.46H127.28C128.108 381.46 128.78 380.789 128.78 379.96V330.16C128.78 329.332 128.108 328.66 127.28 328.66Z" fill="#E2DED0"/>
<path d="M129.46 385.71H58.81C58.1736 385.71 57.557 385.489 57.0662 385.083C56.5753 384.678 56.2408 384.115 56.12 383.49L47.05 335.61C46.9748 335.215 46.988 334.808 47.0885 334.418C47.189 334.028 47.3745 333.666 47.6315 333.356C47.8886 333.047 48.2109 332.798 48.5754 332.627C48.9399 332.457 49.3376 332.369 49.74 332.37H120.39C121.026 332.37 121.643 332.592 122.134 332.997C122.625 333.402 122.959 333.965 123.08 334.59L132.15 382.47C132.225 382.865 132.212 383.273 132.112 383.662C132.011 384.052 131.826 384.414 131.569 384.724C131.311 385.034 130.989 385.283 130.625 385.453C130.26 385.624 129.862 385.711 129.46 385.71Z" fill="#FF2A00"/>
<path d="M19.2998 385.72H574.77" stroke="#028E8E" stroke-miterlimit="10" stroke-linecap="round"/>
<path d="M15.27 385.71H3.77002" stroke="#028E8E" stroke-miterlimit="10" stroke-linecap="round"/>
<path d="M579.2 385.72H605.02" stroke="#028E8E" stroke-miterlimit="10" stroke-linecap="round"/>
<path d="M451.79 388.36C450.656 389.834 449.147 390.978 447.42 391.67C445.09 392.72 440.14 393.21 442.89 394.12C445.64 395.03 448.84 394.49 450.46 394.23C452.08 393.97 453.59 394.47 455.51 394.46C458.03 394.46 458.12 393.75 457.78 390.9C457.31 387 452.93 386.15 451.79 388.36Z" fill="#222B70"/>
<path d="M497.12 385.69C496.98 386.48 498.12 388.87 496.12 390.63C494.12 392.39 489.56 394.24 492.58 394.31C495.138 394.395 497.684 393.921 500.04 392.92C501.58 392.16 500.35 390.97 502.26 390.37C504.77 389.57 504.26 387.73 502.94 386.58C501.24 382.82 497.57 383.13 497.12 385.69Z" fill="#222B70"/>
<path d="M487.92 307.17C487.92 307.17 493.92 289.48 476.86 274.91C476.86 274.91 467.71 278.55 460.39 278.99C457.316 279.239 454.223 279.112 451.18 278.61C451.18 278.61 449.81 294.41 449.79 302.88L487.92 307.17Z" fill="#3E89CC"/>
<path d="M453.52 288.51C452.17 289.01 450.52 291.04 449.79 302.88C449.62 305.66 448.49 327.07 448.1 332.28C448.035 333.075 448.035 333.875 448.1 334.67C448.03 335.184 448.006 335.702 448.03 336.22C448.39 344.67 451.96 371.77 451.77 388.12C452.134 388.603 452.607 388.993 453.15 389.26C454.591 389.78 456.169 389.78 457.61 389.26C458.78 376.09 467.52 348.49 461.43 336.03C463.85 328.27 469.23 311.58 470.32 305.13C472.09 294.74 460.22 286 453.52 288.51Z" fill="#3E89CC"/>
<path d="M488.07 338.29C487.58 330.02 489.07 308.99 487.62 302.49C485.34 292.16 473.45 287.88 468.18 292.75C467.13 293.75 466.37 299.43 467.23 302.08C468.09 304.73 472.97 334.46 474.57 339.44C474.79 340.14 475.51 342.27 475.69 342.78C478.52 350.78 491.89 371.78 496.53 387.47C497.091 387.646 497.673 387.75 498.26 387.78C499.163 387.864 500.073 387.751 500.927 387.449C501.782 387.147 502.561 386.663 503.21 386.03C500.45 373.09 499.13 349.25 488.07 338.29Z" fill="#3E89CC"/>
<path d="M412.83 232.59C412.83 232.59 410.67 230.22 410.05 229.31C409.43 228.4 406.42 228.25 405.58 226.48C404.74 224.71 403 222.27 404.89 221.36C406.78 220.45 406.7 220.36 407.19 219.69C407.68 219.02 404.05 216.34 403.42 214.32C402.79 212.3 408.42 217.04 409.28 218.23C410.14 219.42 411.44 218.37 412.28 220.46C413.12 222.55 413.28 225.2 415.41 228.2" fill="#FFCCB0"/>
<path d="M447.7 225.35C443.57 228.89 436.7 238.7 433.39 243.2C427.21 235.69 414.97 225.88 414.97 225.88C414.97 225.88 409.42 230.05 410.28 230.88C411.14 231.71 428.33 256.48 432.65 256.81C433.218 256.827 433.779 256.685 434.27 256.4C434.27 256.4 440.42 253.98 449.43 244C449.685 243.635 450.019 243.331 450.406 243.111C450.793 242.891 451.225 242.76 451.669 242.728C452.113 242.695 452.56 242.762 452.975 242.923C453.39 243.084 453.764 243.336 454.07 243.66L456.73 222.43C456.73 222.43 451 222.87 447.7 225.35Z" fill="#FF2A00"/>
<path d="M446.88 227.34C451.158 223.679 456.652 221.752 462.28 221.94C467.7 222.11 482.47 223.01 484.12 226.64C484.97 228.49 485.87 247.48 484.64 254.03C483.71 258.96 481.33 271.16 481.33 274.1C481.33 277.04 482.92 278.31 482.18 279.16C480.52 281.08 469.18 281.88 463.92 281.88C459.19 281.88 451.15 280.62 450.75 279.11C450.55 278.4 450.92 274.48 450.7 269.34C450.23 258.26 449.09 241.52 448.24 239.23C447.3 236.7 444.7 229.15 446.88 227.34Z" fill="#FF2A00"/>
<path d="M448.4 234.38C448.4 234.38 448.67 236.45 448.98 239.55C449.13 241.11 449.33 242.92 449.49 244.87C449.65 246.82 449.81 248.87 449.98 250.96C450.15 253.05 450.28 255.13 450.35 257.08C450.42 259.03 450.49 260.85 450.54 262.41C450.63 265.53 450.63 267.62 450.63 267.62C450.63 267.62 450.39 265.54 450.12 262.43L449.24 251C449.1 248.92 448.97 246.84 448.84 244.89C448.71 242.94 448.65 241.12 448.57 239.56C448.43 236.46 448.4 234.38 448.4 234.38Z" fill="#FCB424"/>
<path d="M471.14 222.8C471.14 222.8 465.46 226.7 461.66 226.46C459.81 225.59 458.66 222.72 458.66 222.72C459.171 222.482 459.663 222.205 460.13 221.89C460.329 220.566 460.416 219.228 460.39 217.89C460.39 217.35 460.39 216.83 460.39 216.42C460.39 215.84 460.39 215.42 460.39 215.42L471.64 210.64C470.912 212.15 470.391 213.751 470.09 215.4C469.876 217.51 469.783 219.63 469.81 221.75C469.88 222.28 471.14 222.8 471.14 222.8Z" fill="#FFCCB0"/>
<path d="M457 193.58C456.349 195.244 455.853 196.965 455.52 198.72C455.441 199.178 455.516 199.649 455.733 200.06C455.95 200.471 456.297 200.798 456.72 200.99C457.06 201.16 458.9 193.79 458.9 193.79" fill="#3B2E7A"/>
<path d="M464.45 191.64C463.08 192.01 459.45 191.26 458.45 192.76C457.45 194.26 456.58 197.88 456.2 198.87C455.46 200.87 454.97 202.99 454.43 205.04C453.72 207.71 452.56 212.6 455.17 214.83C455.707 215.377 456.411 215.729 457.17 215.83C458.41 216.06 459.64 216.31 460.87 216.53C462.79 216.88 464.87 217.28 466.87 216.66C469.41 215.83 470.81 212.34 471.46 209.96L475.2 196.36L464.45 191.64Z" fill="#FFCCB0"/>
<path d="M469.88 220.29C470.927 220.928 471.824 221.784 472.51 222.8C471.39 225.36 468.87 229.91 466.08 231.98C465.39 230.007 464.293 228.201 462.86 226.68C465.6 225.035 467.986 222.863 469.88 220.29Z" fill="#FCB424"/>
<path d="M461.24 226.47C459.555 227.41 458.195 228.84 457.34 230.57C457.06 228.012 457.26 225.425 457.93 222.94C457.93 222.94 459.71 220.66 460.33 220.61C460.232 222.605 460.541 224.599 461.24 226.47Z" fill="#FCB424"/>
<path d="M471.654 242.191L443.578 265.483C442.779 266.146 442.668 267.332 443.331 268.131L477.178 308.928C477.841 309.728 479.026 309.838 479.825 309.175L507.901 285.882C508.7 285.22 508.811 284.034 508.148 283.235L474.301 242.438C473.638 241.638 472.453 241.528 471.654 242.191Z" fill="#94E1EB"/>
<path d="M474.29 242.41L476.14 244.64L445.14 270.33L443.29 268.1C443.131 267.912 443.01 267.694 442.936 267.458C442.862 267.223 442.835 266.976 442.857 266.73C442.88 266.484 442.951 266.245 443.066 266.027C443.182 265.809 443.339 265.617 443.53 265.46L471.61 242.15C471.801 241.987 472.023 241.864 472.263 241.788C472.503 241.713 472.755 241.686 473.005 241.711C473.255 241.735 473.498 241.809 473.719 241.93C473.94 242.05 474.134 242.213 474.29 242.41Z" fill="#1BB9C1"/>
<path d="M465.68 250.26C465.82 250.429 465.907 250.635 465.93 250.853C465.953 251.071 465.91 251.291 465.808 251.485C465.707 251.679 465.549 251.838 465.357 251.943C465.165 252.048 464.946 252.094 464.727 252.074C464.509 252.055 464.301 251.971 464.13 251.834C463.96 251.697 463.833 251.512 463.767 251.303C463.701 251.094 463.699 250.87 463.76 250.66C463.821 250.449 463.943 250.261 464.11 250.12C464.338 249.932 464.63 249.841 464.924 249.867C465.218 249.893 465.49 250.035 465.68 250.26Z" fill="white"/>
<path d="M469.49 247.1C469.63 247.269 469.717 247.475 469.739 247.693C469.762 247.911 469.72 248.131 469.618 248.325C469.516 248.519 469.359 248.678 469.167 248.783C468.974 248.888 468.755 248.934 468.537 248.914C468.319 248.895 468.111 248.811 467.94 248.674C467.769 248.537 467.643 248.352 467.577 248.143C467.511 247.934 467.508 247.71 467.569 247.5C467.63 247.289 467.752 247.101 467.92 246.96C468.032 246.866 468.161 246.794 468.301 246.75C468.441 246.706 468.588 246.69 468.734 246.703C468.88 246.716 469.022 246.758 469.152 246.826C469.281 246.894 469.396 246.987 469.49 247.1Z" fill="white"/>
<path d="M473.3 244C473.457 244.231 473.522 244.512 473.483 244.788C473.443 245.065 473.302 245.316 473.087 245.494C472.872 245.672 472.598 245.763 472.319 245.749C472.04 245.735 471.777 245.618 471.58 245.42C471.423 245.189 471.358 244.908 471.397 244.632C471.436 244.356 471.577 244.104 471.793 243.926C472.008 243.749 472.282 243.658 472.561 243.671C472.839 243.685 473.103 243.802 473.3 244Z" fill="white"/>
<path opacity="0.5" d="M463.184 258.477L448.33 270.8L457.41 281.744L472.263 269.421L463.184 258.477Z" fill="white"/>
<path opacity="0.5" d="M486.286 260.264L458.634 283.205L478.51 307.164L506.163 284.222L486.286 260.264Z" fill="white"/>
<path opacity="0.5" d="M476.002 247.859L464.766 257.181L465.557 258.136L476.794 248.814L476.002 247.859Z" fill="white"/>
<path opacity="0.5" d="M477.657 249.849L466.42 259.171L467.212 260.125L478.449 250.803L477.657 249.849Z" fill="white"/>
<path opacity="0.5" d="M479.315 251.84L468.079 261.162L468.87 262.117L480.107 252.795L479.315 251.84Z" fill="white"/>
<path opacity="0.5" d="M480.98 253.85L469.743 263.172L470.535 264.126L481.771 254.804L480.98 253.85Z" fill="white"/>
<path opacity="0.5" d="M482.627 255.845L471.39 265.167L472.182 266.122L483.418 256.8L482.627 255.845Z" fill="white"/>
<path opacity="0.5" d="M481.027 260.548L473.054 267.163L473.845 268.117L481.819 261.502L481.027 260.548Z" fill="white"/>
<path d="M460.47 279.67C458.124 280.037 455.963 281.165 454.32 282.88C454.251 282.932 454.194 283 454.156 283.079C454.118 283.157 454.099 283.243 454.1 283.33C454.1 283.54 454.38 283.64 454.6 283.67C455.85 283.87 456.06 283.07 457.23 282.58L459.58 281.58" fill="#FF2A00"/>
<path d="M469.68 279.66L466.27 281.8C465.76 282.04 465.35 282.45 465.11 282.96C464.37 285.38 462.86 285.51 462.01 286.06C461.11 286.498 460.181 286.876 459.23 287.19C459.45 287.49 459.65 287.75 459.83 287.98C459.677 288.059 459.521 288.129 459.36 288.19H459.3C458.963 288.248 458.617 288.224 458.291 288.12C457.966 288.015 457.67 287.834 457.43 287.59C456.495 286.746 455.734 285.727 455.19 284.59C455.066 284.287 455.024 283.956 455.068 283.632C455.112 283.307 455.24 283 455.44 282.74C456.51 281.81 457.657 280.974 458.87 280.24C459.45 279.96 465.02 278.3 467.12 277.86L469.68 279.66Z" fill="#FF2A00"/>
<path d="M480 238.63C480.79 249.78 484.58 263.69 484.58 263.69L463.4 278.32C463.4 278.32 463.71 279.56 464.19 280.89C464.537 281.73 464.976 282.528 465.5 283.27C465.5 283.27 492.68 273.53 494.64 267.82C494.12 260.87 494.97 236.41 488.07 227.37C485.87 224.49 472.51 222.8 472.51 222.8" fill="#FF2A00"/>
<path d="M477.58 195.1C477.402 194.961 477.265 194.779 477.18 194.57C477.24 191.27 475.55 190.67 473.5 189.75C470.56 188.43 459.04 188.2 457.88 183.87C456.98 184.28 456.14 184.79 456.4 188.01C456.165 187.613 455.977 187.191 455.84 186.75C455.151 187.841 454.778 189.1 454.76 190.39C454.757 191.03 454.889 191.664 455.148 192.25C455.406 192.836 455.785 193.36 456.26 193.79C456.883 194.279 457.597 194.639 458.36 194.85C460.184 195.334 462.034 195.718 463.9 196C465.766 196.295 467.53 197.051 469.03 198.2C469.439 198.531 469.779 198.938 470.03 199.4C469.543 200.78 469.207 202.208 469.03 203.66C469.051 204.359 469.325 205.027 469.8 205.54C469.65 207.28 469.55 208.69 469.8 208.63C470.31 208.48 470.49 207.87 470.8 207.43C471.36 206.6 472.02 207.14 472.88 207.64L472.51 208.44L473.89 207.79C473.89 207.79 482.08 199.79 477.58 195.1Z" fill="#3B2E7A"/>
<path d="M469.54 211.1C469.501 211.29 469.502 211.486 469.543 211.676C469.584 211.865 469.665 212.044 469.78 212.2C470.11 212.62 470.78 212.56 471.27 212.41C471.924 212.16 472.501 211.744 472.943 211.201C473.385 210.659 473.677 210.01 473.79 209.32C474.09 207.73 473.23 206.14 471.79 206.55C471.369 206.711 471.009 207.001 470.761 207.377C470.514 207.754 470.391 208.199 470.41 208.65" fill="#FFCCB0"/>
<path d="M465.24 217C463.729 217.685 462.076 217.997 460.42 217.91C460.42 217.37 460.42 216.85 460.42 216.44L465.24 217Z" fill="#F2A181"/>
<path d="M480.17 240.87L480.39 241.87C480.53 242.49 480.72 243.38 480.95 244.45C481.39 246.59 481.95 249.45 482.45 252.29C482.95 255.13 483.45 258 483.86 260.14C484.07 261.2 484.2 262.14 484.35 262.72C484.5 263.3 484.55 263.72 484.55 263.72C484.55 263.72 484.4 263.39 484.17 262.79C483.94 262.19 483.62 261.33 483.3 260.29C482.539 257.724 481.925 255.116 481.46 252.48C480.95 249.61 480.58 246.72 480.39 244.54C480.28 243.46 480.25 242.54 480.2 241.91C480.15 241.28 480.17 240.87 480.17 240.87Z" fill="#FCB424"/>
<path d="M465.64 296L466 297.41C466.21 298.31 466.54 299.59 466.88 301.14C467.22 302.69 467.64 304.49 468.05 306.43C468.46 308.37 468.87 310.43 469.29 312.5C469.71 314.57 470.08 316.65 470.45 318.6C470.82 320.55 471.13 322.36 471.45 323.92L472.37 329.13C472.37 329.13 471.68 327.13 470.9 324.04C470.52 322.5 470.05 320.71 469.63 318.77C469.21 316.83 468.77 314.77 468.35 312.7C467.93 310.63 467.56 308.54 467.23 306.59C466.9 304.64 466.62 302.81 466.37 301.24C466.12 299.67 465.98 298.36 465.85 297.44C465.72 296.52 465.64 296 465.64 296Z" fill="#256EA5"/>
<path d="M425.03 394.63H506.16" stroke="#028E8E" stroke-miterlimit="10" stroke-linecap="round"/>
<path d="M509.17 394.63H520.78" stroke="#028E8E" stroke-miterlimit="10" stroke-linecap="round"/>
<path d="M131.28 394.63L153.53 242.07H142.4L120.15 394.63H131.28Z" fill="#65739B"/>
<path d="M133.2 394.63L155.46 242.07H144.33L122.07 394.63H133.2Z" fill="#35416D"/>
<path d="M195.98 313.27H138.19" stroke="#222B54" stroke-width="2" stroke-miterlimit="10" stroke-linecap="round"/>
<path d="M200.08 283.84H142.29" stroke="#222B54" stroke-width="2" stroke-miterlimit="10" stroke-linecap="round"/>
<path d="M204.82 254.42H146.55" stroke="#222B54" stroke-width="2" stroke-miterlimit="10" stroke-linecap="round"/>
<path d="M191.92 342.69H134.13" stroke="#222B54" stroke-width="2" stroke-miterlimit="10" stroke-linecap="round"/>
<path d="M187.24 372.12H129.45" stroke="#222B54" stroke-width="2" stroke-miterlimit="10" stroke-linecap="round"/>
<path d="M210.06 137.5L109.794 125.597L100.636 202.745L200.902 214.648L210.06 137.5Z" fill="#0E627C"/>
<path d="M207.524 139.012L111.906 127.661L103.173 201.224L198.792 212.575L207.524 139.012Z" fill="#156F93"/>
<path d="M175.52 164.79L142.79 196.72L144.38 196.91L143.31 205.98L198.79 212.57L199.87 203.49L175.52 164.79Z" fill="#1ECCDE"/>
<path d="M104.25 192.14L148.46 147.28L187.26 211.2L103.18 201.22L104.25 192.14Z" fill="#64E2E2"/>
<path d="M193.557 154.291C195.822 149.121 193.467 143.094 188.297 140.829C183.127 138.564 177.1 140.919 174.835 146.089C172.57 151.258 174.924 157.286 180.094 159.551C185.264 161.816 191.292 159.461 193.557 154.291Z" fill="white"/>
<path d="M144.59 332.37C144.59 332.37 144.18 336.85 144.02 337.99C143.86 339.13 140.21 338.99 139.82 338.35C139.43 337.71 139.58 332.46 139.58 332.46" fill="#FFCCB0"/>
<path d="M138.79 339.29C138.763 340.345 138.807 341.401 138.92 342.45L143.11 342.73L143.37 342.04C144.098 342.483 144.907 342.779 145.75 342.91L149.3 343.15C151.89 343.32 153.38 343.09 153.48 342.64C153.88 340.75 150.78 340.64 149.97 340.57C147.65 340.42 145.22 339.16 144.75 337.95C144.41 337.07 144.6 336.86 144.11 336.95C143.951 336.991 143.801 337.063 143.671 337.162C143.54 337.262 143.431 337.387 143.35 337.53C143.123 337.913 142.783 338.215 142.375 338.395C141.968 338.574 141.515 338.621 141.08 338.53C140.551 338.425 140.07 338.151 139.71 337.75C139.415 337.878 139.167 338.096 139.002 338.372C138.837 338.648 138.763 338.969 138.79 339.29Z" fill="#3E89CC"/>
<path d="M186.63 301.5C186.388 302.92 186.054 304.323 185.63 305.7C185.21 306.77 181.7 305.76 181.47 305.06C181.24 304.36 182.62 299.28 182.62 299.28" fill="#FFCCB0"/>
<path d="M180.27 305.94C179.96 307.09 179.56 309.31 179.56 309.31L183.07 310.86L183.65 310.32C184.189 310.964 184.848 311.497 185.59 311.89C186.676 312.357 187.814 312.692 188.98 312.89C192.05 313.24 194.31 312.68 194.5 312.26C195.27 310.49 191.2 309.98 190.39 309.77C189.465 309.518 188.622 309.026 187.95 308.342C187.277 307.659 186.797 306.809 186.56 305.88C186.39 304.94 186.62 304.78 186.1 304.81C185.933 304.814 185.769 304.852 185.617 304.923C185.466 304.993 185.33 305.095 185.22 305.22C184.911 305.559 184.506 305.795 184.059 305.895C183.611 305.995 183.144 305.955 182.72 305.78C182.205 305.571 181.771 305.203 181.48 304.73C181.181 304.788 180.906 304.934 180.69 305.15C180.474 305.366 180.328 305.641 180.27 305.94Z" fill="#3E89CC"/>
<path d="M136.57 214.64C138.128 215.197 139.746 215.569 141.39 215.75C142.81 215.919 144.24 215.989 145.67 215.96C148.031 215.976 150.368 215.481 152.52 214.51C157.18 212.16 157.76 207.73 158.1 207.32C157.49 207.32 154.32 207.32 151.16 207.2C147.76 207.07 144.37 206.77 144.25 206.09C144.893 204.875 145.393 203.59 145.74 202.26C148.12 193.85 147.48 180.42 146.83 174.26C144.14 174.83 139.76 175.82 138.62 177.82C136.57 181.44 135.62 187.88 134.99 194.7C134.11 204 134.18 213.69 136.57 214.64Z" fill="#FF2A00"/>
<path d="M161.41 227.58L146 227.44C146 227.44 141.35 234.83 141.87 242.29C142.39 249.75 143.98 250.29 144 253.88C144.15 268.49 144.63 278.21 144.95 283.25C145.13 285.913 144.79 288.586 143.95 291.12C142.758 294.497 141.812 297.956 141.12 301.47C140 309 138.89 334 138.89 334C138.89 334 142.74 335.14 144.89 334.67C144.89 334.67 154.5 302.95 157.34 290.35L159.74 280.69C161 276.09 168.09 245.77 168.09 245.77L161.41 227.58Z" fill="#3E89CC"/>
<path d="M191 255.05C193.08 248.96 205.35 250.05 203.46 257.2C201.37 265.12 187.53 302.92 187.53 302.92C185.233 302.812 182.983 302.234 180.92 301.22C180.92 301.22 182.76 292.01 185.25 271.36C185.94 265.5 190.1 256.46 191 255.05Z" fill="#3E89CC"/>
<path d="M160.92 222.44C171.56 225.86 189.5 240.55 199.15 246.66C205.64 250.77 204.96 261.09 198.6 261.66C191 262.34 157.25 255.42 146.16 235.83" fill="#3E89CC"/>
<path d="M150.43 171.55C150.43 171.55 151.67 167.33 151.13 164.21C150.59 161.09 148.71 155.49 149.41 151.28C150.11 147.07 161.3 140.28 165.84 143.66C173.76 149.49 168.1 168.18 167.17 168.73C166.24 169.28 162.72 168.55 162.1 169.22C161.48 169.89 161.02 173.87 161.02 173.87" fill="#FFCCB0"/>
<path d="M148.4 174.84C148.4 174.84 148.4 172.72 149.16 171.97C151.04 169.97 161.25 172.56 161.75 172.91C162.25 173.26 162.75 175.31 162.75 175.31L148.4 174.84Z" fill="#FF2A00"/>
<path d="M149.52 164.4C150.08 165.84 150.34 167.79 151.11 168.15C153.73 168.435 156.364 168.576 159 168.57C162.42 166.97 163.39 158.97 163.39 158.97C163.32 157.91 163.15 156.48 163.59 155.83C164.59 154.36 166.3 155.56 166.45 156.97C166.6 158.38 166.58 159.97 166.94 160.19C167.3 160.41 167.85 158.35 167.65 155.65C167.49 153.31 169.12 149.55 170.48 147.45C172.03 145.02 171.29 138.91 166.3 139.45C166.133 140.057 165.797 140.605 165.332 141.03C164.866 141.454 164.29 141.739 163.67 141.85C160.28 142.78 154.15 142 151.17 143.74C149.9 144.48 148.78 146.15 149.39 147.42C149.39 147.42 146.3 147.06 146.78 151.9C147.84 162.4 148.71 162.31 149.52 164.4Z" fill="#222B54"/>
<path d="M172.49 228.81C171.76 229.07 171.12 229.51 170.36 229.73C168.542 230.108 166.667 230.132 164.84 229.8C162.94 229.63 161.05 229.46 159.15 229.31C149.24 228.89 145.85 231.31 144.24 228.86C143.876 228.261 143.754 227.546 143.9 226.86C144.11 225.55 143.31 213.55 141.66 202.56C140.57 195.26 138.47 188.49 138.3 185.3C137.67 173.9 149.3 174 149.3 174C166.3 172.94 172.67 177.84 173.59 185.15C173.66 185.67 173.7 186.23 173.74 186.82C174.18 194.36 172.04 209.96 170.95 219.06C170.61 221.54 174 228.28 172.49 228.81Z" fill="#FF2A00"/>
<path d="M207.23 162C207.243 161.77 207.243 161.54 207.23 161.31C207.18 160.71 206.53 160.95 206.36 161.45C206.294 161.727 206.244 162.007 206.21 162.29C206.21 162.07 206.21 161.91 206.21 161.83C206.15 161.33 205.58 161.46 205.41 161.83C205.33 162.159 205.27 162.493 205.23 162.83C205.15 163.33 205.01 163.83 204.94 164.37C204.87 164.91 204.31 166.97 203.24 167.19C201.6 167.51 202.68 164.68 201.53 164.03C201.17 163.82 200.76 166.03 200.71 167.27C200.628 168.138 200.628 169.012 200.71 169.88C200.896 170.614 201.036 171.359 201.13 172.11C200.985 172.668 200.795 173.213 200.56 173.74L204.34 175.3C204.531 174.331 204.868 173.397 205.34 172.53C206.563 171.334 207.405 169.803 207.76 168.13C208.53 165.45 207.44 161.67 207.23 162Z" fill="#FFCCB0"/>
<path d="M204.81 174.33C204.81 174.33 203.68 180.89 202.56 186.13C201.598 190.364 200.242 194.499 198.51 198.48C198.51 198.48 195.68 204.83 194.38 205.48C188 208.42 172.29 194.48 169.23 191.81C162.35 193.65 157.23 173.98 157.23 173.98C161.586 174.039 165.931 174.424 170.23 175.13C175.44 176.24 189.92 192.63 190.62 192.68C191.06 191.83 191.48 190.98 193.03 188.03C196.5 181.39 200.78 173.16 200.78 173.16C200.78 173.16 203.94 174.1 204 174.16L204.81 174.33Z" fill="#FF2A00"/>
<path d="M187.1 394.63L209.36 242.07H198.23L175.98 394.63H187.1Z" fill="#3B4772"/>
<path d="M189.03 394.63L211.28 242.07H200.16L177.9 394.63H189.03Z" fill="#222B54"/>
<path d="M152.74 234.12C152.605 234.627 152.498 235.141 152.42 235.66C152.193 237.018 152.13 238.397 152.23 239.77C152.35 241.677 152.929 243.526 153.92 245.16C155.098 246.988 156.764 248.45 158.73 249.38C160.73 250.38 162.85 251.38 164.8 252.28C166.75 253.18 168.57 254.02 170.16 254.7L175.43 256.98C175.43 256.98 174.87 256.84 173.91 256.54C172.95 256.24 171.57 255.82 169.91 255.22C168.25 254.62 166.39 253.93 164.4 253.09C162.41 252.25 160.31 251.3 158.24 250.27C156.238 249.356 154.547 247.878 153.375 246.016C152.202 244.154 151.599 241.99 151.64 239.79C151.631 238.381 151.816 236.978 152.19 235.62C152.336 235.107 152.52 234.606 152.74 234.12Z" fill="#256EA5"/>
<path d="M167 188C167 188 170.32 194.5 181.65 201.47L167 188Z" fill="#FF2A00"/>
<path d="M139.21 190.48C141.444 200.32 142.925 210.315 143.64 220.38L139.21 190.48Z" fill="#FF2A00"/>
<path d="M188.25 190.42C190.21 192.13 191.959 194.067 193.46 196.19L188.25 190.42Z" fill="#FF2A00"/>
<path d="M109.13 394.63H200.08" stroke="#028E8E" stroke-miterlimit="10" stroke-linecap="round"/>
<path d="M81.46 394.63H104.48" stroke="#028E8E" stroke-miterlimit="10" stroke-linecap="round"/>
<path d="M369.43 285.71H304.73C303.222 285.71 302 286.932 302 288.44V391.9C302 393.408 303.222 394.63 304.73 394.63H369.43C370.938 394.63 372.16 393.408 372.16 391.9V288.44C372.16 286.932 370.938 285.71 369.43 285.71Z" fill="#222B54"/>
<path d="M364.93 291.25H309.24C307.732 291.25 306.51 292.472 306.51 293.98V376.06C306.51 377.568 307.732 378.79 309.24 378.79H364.93C366.437 378.79 367.66 377.568 367.66 376.06V293.98C367.66 292.472 366.437 291.25 364.93 291.25Z" fill="#94E1EB"/>
<path d="M287.56 394.63H373.9" stroke="#028E8E" stroke-miterlimit="10" stroke-linecap="round"/>
<path d="M376.15 394.63H382.27" stroke="#028E8E" stroke-miterlimit="10" stroke-linecap="round"/>
<path d="M343.84 297.7V328.83C343.828 329.078 343.724 329.313 343.548 329.488C343.373 329.664 343.138 329.768 342.89 329.78H312.09C311.966 329.78 311.843 329.755 311.728 329.707C311.613 329.66 311.509 329.59 311.422 329.501C311.334 329.413 311.265 329.308 311.219 329.193C311.172 329.078 311.149 328.954 311.15 328.83V297.7C311.162 297.454 311.264 297.22 311.438 297.045C311.611 296.87 311.844 296.765 312.09 296.75H342.89C343.138 296.762 343.373 296.866 343.548 297.042C343.724 297.217 343.828 297.452 343.84 297.7Z" fill="white"/>
<path d="M343.84 323V328.83C343.828 329.078 343.724 329.313 343.548 329.488C343.373 329.664 343.138 329.768 342.89 329.78H327.61L328.26 323L335.45 315L343.84 323Z" fill="#2A8EAD"/>
<path d="M339.56 329.78H312.09C311.966 329.78 311.843 329.755 311.728 329.707C311.613 329.66 311.509 329.589 311.422 329.501C311.334 329.413 311.265 329.308 311.219 329.193C311.172 329.078 311.149 328.954 311.15 328.83V323L321.9 311.71L339.56 329.78Z" fill="#156F93"/>
<path d="M335.72 309.48C337.813 309.48 339.51 307.783 339.51 305.69C339.51 303.597 337.813 301.9 335.72 301.9C333.627 301.9 331.93 303.597 331.93 305.69C331.93 307.783 333.627 309.48 335.72 309.48Z" fill="#2A8EAD"/>
<path d="M362.73 334.51V365.65C362.73 366.18 362.06 366.65 361.24 366.65H312.91C312.1 366.65 311.44 366.23 311.44 365.65V334.51C311.44 334 312.1 333.57 312.91 333.57H361.24C362.06 333.57 362.73 334 362.73 334.51Z" fill="white"/>
<path d="M337.08 359.13C342.073 359.13 346.12 355.083 346.12 350.09C346.12 345.097 342.073 341.05 337.08 341.05C332.087 341.05 328.04 345.097 328.04 350.09C328.04 355.083 332.087 359.13 337.08 359.13Z" fill="#94E1EB"/>
<path d="M334.61 355.35V344.83L341.88 350.09L334.61 355.35Z" fill="#156F93"/>
<path d="M362.73 296.75H346.13V299.21H362.73V296.75Z" fill="#DCFDFF"/>
<path d="M362.73 369.01H311.44V371.47H362.73V369.01Z" fill="#DCFDFF"/>
<path d="M354.78 373.59H311.44V376.05H354.78V373.59Z" fill="#DCFDFF"/>
<path d="M362.73 301.12H346.13V303.58H362.73V301.12Z" fill="#DCFDFF"/>
<path d="M362.73 305.49H346.13V307.95H362.73V305.49Z" fill="#DCFDFF"/>
<path d="M362.73 309.86H346.13V312.32H362.73V309.86Z" fill="#DCFDFF"/>
<path d="M362.73 314.22H346.13V316.68H362.73V314.22Z" fill="#DCFDFF"/>
<path d="M362.73 318.59H346.13V321.05H362.73V318.59Z" fill="#DCFDFF"/>
<path d="M362.73 322.96H346.13V325.42H362.73V322.96Z" fill="#DCFDFF"/>
<path d="M357.47 327.33H346.13V329.79H357.47V327.33Z" fill="#DCFDFF"/>
<path d="M341.88 386.77C341.88 387.638 341.623 388.487 341.14 389.209C340.658 389.931 339.972 390.494 339.17 390.826C338.368 391.158 337.485 391.245 336.634 391.076C335.782 390.906 335 390.488 334.386 389.874C333.772 389.26 333.354 388.478 333.184 387.627C333.015 386.775 333.102 385.892 333.434 385.09C333.767 384.288 334.329 383.602 335.051 383.12C335.773 382.638 336.622 382.38 337.49 382.38C338.067 382.379 338.638 382.491 339.172 382.712C339.705 382.932 340.189 383.255 340.597 383.663C341.005 384.071 341.328 384.555 341.549 385.089C341.769 385.622 341.881 386.193 341.88 386.77Z" fill="white"/>
<path d="M136.2 59.8701H115.94C112.488 59.8701 109.69 62.6683 109.69 66.1201V86.3801C109.69 89.8319 112.488 92.6301 115.94 92.6301H136.2C139.652 92.6301 142.45 89.8319 142.45 86.3801V66.1201C142.45 62.6683 139.652 59.8701 136.2 59.8701Z" fill="#94E1EB"/>
<path d="M131.23 77.9001L124.42 71.0901C124.677 70.2034 124.69 69.2636 124.456 68.3704C124.223 67.4772 123.752 66.6637 123.094 66.016C122.437 65.3683 121.616 64.9106 120.719 64.6913C119.822 64.4719 118.883 64.4992 118 64.7701L121.21 67.9701L120.49 70.7001L117.76 71.4201L114.56 68.2101C114.296 69.0908 114.274 70.0264 114.497 70.9185C114.719 71.8106 115.178 72.6263 115.824 73.28C116.471 73.9337 117.282 74.4012 118.171 74.6335C119.061 74.8658 119.997 74.8542 120.88 74.6001L127.69 81.4101C127.436 82.2937 127.424 83.2294 127.657 84.119C127.889 85.0086 128.357 85.8192 129.01 86.4658C129.664 87.1123 130.48 87.5709 131.372 87.7934C132.264 88.0158 133.199 87.994 134.08 87.7301L130.88 84.5301L131.59 81.8001L134.32 81.0901L137.52 84.2901C137.784 83.4093 137.806 82.4738 137.583 81.5817C137.361 80.6896 136.902 79.8738 136.256 79.2201C135.609 78.5664 134.799 78.0989 133.909 77.8666C133.019 77.6344 132.084 77.6459 131.2 77.9001H131.23Z" fill="white"/>
<path d="M99.3799 242.67C99.3639 242.497 99.32 242.329 99.2499 242.17L99.0999 241.88C99.041 241.788 98.9704 241.704 98.8899 241.63L98.7799 241.51L98.6499 241.41L98.4699 241.29C98.3394 241.21 98.1979 241.149 98.0499 241.11H97.8899C97.6948 241.075 97.495 241.075 97.2999 241.11C97.1603 241.125 97.0195 241.125 96.8799 241.11C96.5493 241.084 96.2317 240.97 95.9599 240.78C95.9122 240.749 95.8685 240.712 95.8299 240.67C95.7817 240.632 95.7381 240.588 95.6999 240.54C95.6317 240.474 95.5713 240.4 95.5199 240.32L95.3899 240.09C95.3857 240.043 95.3857 239.997 95.3899 239.95V239.84C95.2685 239.499 95.1283 239.165 94.9699 238.84C94.9423 238.782 94.9189 238.722 94.8999 238.66C94.8191 238.415 94.7919 238.156 94.8199 237.9C94.8493 237.692 94.91 237.49 94.9999 237.3C95.0934 237.108 95.2223 236.935 95.3799 236.79L95.5499 236.65L95.7099 236.52C95.8511 236.391 95.9694 236.239 96.0599 236.07C96.1025 235.989 96.1393 235.906 96.1699 235.82C96.2011 235.735 96.2278 235.648 96.2499 235.56C96.3069 235.3 96.305 235.03 96.2445 234.77C96.1839 234.511 96.0662 234.268 95.8999 234.06C95.1428 233.106 94.2807 232.241 93.3299 231.48C93.114 231.31 92.8624 231.191 92.5939 231.132C92.3255 231.073 92.0472 231.076 91.7799 231.14L91.5899 231.2C91.3215 231.292 91.0807 231.45 90.8899 231.66L90.7399 231.83C90.5256 232.113 90.2339 232.329 89.8999 232.45C89.7812 232.498 89.6569 232.532 89.5299 232.55H89.3799C89.2537 232.565 89.1261 232.565 88.9999 232.55C88.9037 232.54 88.8094 232.517 88.7199 232.48L88.5499 232.41L88.3099 232.31C88.2038 232.252 88.0935 232.202 87.9799 232.16C87.7799 232.08 87.5899 232 87.3999 231.94C86.985 231.828 86.6244 231.57 86.3838 231.214C86.1433 230.858 86.039 230.427 86.0899 230V229.85C86.1444 229.406 86.0341 228.956 85.7797 228.588C85.5254 228.219 85.1448 227.957 84.7099 227.85H84.4999C83.2902 227.717 82.0696 227.717 80.8599 227.85C80.3856 227.91 79.9534 228.153 79.6548 228.526C79.3562 228.899 79.2145 229.374 79.2599 229.85V229.98C79.2649 230.07 79.2649 230.16 79.2599 230.25C79.2646 230.591 79.1734 230.927 78.9965 231.218C78.8197 231.51 78.5645 231.746 78.2599 231.9L78.1199 231.96L77.5599 232.18L77.1099 232.37L76.9999 232.42C76.6198 232.595 76.191 232.632 75.7863 232.527C75.3815 232.421 75.0259 232.178 74.7799 231.84C74.5053 231.468 74.0991 231.214 73.6439 231.13C73.1888 231.047 72.719 231.14 72.3299 231.39L72.1599 231.5C71.6931 231.873 71.2489 232.274 70.8299 232.7C70.4007 233.12 69.9998 233.567 69.6299 234.04C69.4407 234.267 69.3121 234.539 69.2562 234.829C69.2002 235.119 69.2187 235.419 69.3099 235.7C69.354 235.875 69.4284 236.041 69.5299 236.19C69.608 236.303 69.6949 236.41 69.7899 236.51L69.9699 236.66C70.3059 236.906 70.547 237.259 70.6527 237.662C70.7583 238.064 70.722 238.491 70.5499 238.87C70.3799 239.24 70.2299 239.61 70.0899 239.99C70.0104 240.214 69.8843 240.418 69.7199 240.59C69.6268 240.684 69.5265 240.771 69.4199 240.85C69.3064 240.925 69.1858 240.989 69.0599 241.04C68.9745 241.08 68.8835 241.107 68.7899 241.12C68.565 241.16 68.3348 241.16 68.1099 241.12C68.0202 241.11 67.9296 241.11 67.8399 241.12C67.7268 241.11 67.613 241.11 67.4999 241.12C67.1106 241.189 66.7541 241.382 66.4837 241.67C66.2133 241.959 66.0435 242.327 65.9999 242.72C65.8666 243.913 65.8666 245.117 65.9999 246.31C66.0451 246.702 66.2153 247.07 66.4855 247.358C66.7556 247.646 67.1113 247.84 67.4999 247.91C67.7021 247.94 67.9077 247.94 68.1099 247.91C68.1996 247.9 68.2902 247.9 68.3799 247.91C68.7371 247.918 69.0845 248.029 69.3799 248.23C69.6854 248.442 69.9191 248.742 70.0499 249.09C70.1899 249.47 70.3399 249.84 70.5099 250.21C70.6697 250.554 70.7161 250.94 70.6424 251.312C70.5687 251.684 70.3787 252.023 70.0999 252.28L69.9299 252.42L69.7499 252.57C69.6502 252.665 69.5628 252.773 69.4899 252.89C69.3903 253.037 69.316 253.199 69.2699 253.37C69.2651 253.427 69.2651 253.483 69.2699 253.54C69.265 253.593 69.265 253.647 69.2699 253.7C69.265 253.76 69.265 253.82 69.2699 253.88C69.2699 253.88 69.2699 253.88 69.2699 253.94C69.2653 254.027 69.2653 254.113 69.2699 254.2C69.2699 254.28 69.2699 254.36 69.3399 254.45V254.54L69.4299 254.72C69.465 254.795 69.5086 254.865 69.5599 254.93C69.9298 255.403 70.3307 255.85 70.7599 256.27C71.1789 256.696 71.6231 257.097 72.0899 257.47C72.2853 257.62 72.5085 257.731 72.7466 257.795C72.9848 257.859 73.2333 257.875 73.4777 257.842C73.7222 257.81 73.9578 257.729 74.1709 257.605C74.3841 257.481 74.5707 257.316 74.7199 257.12L74.8599 256.95C75.063 256.743 75.3087 256.583 75.5799 256.48L76.1999 256.37C76.4561 256.372 76.7088 256.43 76.9399 256.54C77.3099 256.71 77.6799 256.86 78.0499 257C78.402 257.128 78.7058 257.362 78.9199 257.67C78.993 257.785 79.0566 257.905 79.1099 258.03C79.2353 258.348 79.2733 258.693 79.2199 259.03C79.1529 259.488 79.2608 259.954 79.5221 260.336C79.7834 260.717 80.1789 260.987 80.6299 261.09C80.6861 261.1 80.7437 261.1 80.7999 261.09C81.3972 261.162 81.9983 261.199 82.5999 261.2C83.1979 261.197 83.7953 261.164 84.3899 261.1C84.816 261.056 85.2109 260.856 85.4999 260.54C85.6192 260.426 85.7203 260.295 85.7999 260.15C85.8704 260.105 85.9373 260.055 85.9999 260C86.1128 259.704 86.1506 259.384 86.1099 259.07C86.1 258.98 86.1 258.89 86.1099 258.8C86.1057 258.428 86.217 258.064 86.4283 257.758C86.6396 257.451 86.9406 257.218 87.2899 257.09C87.6599 256.95 88.0299 256.8 88.3999 256.63C88.6429 256.512 88.9096 256.45 89.1799 256.45C89.4502 256.45 89.7169 256.512 89.9599 256.63C90.0891 256.691 90.2101 256.768 90.3199 256.86L90.4799 257.01C90.5319 257.062 90.5788 257.119 90.6199 257.18C90.8961 257.55 91.3013 257.803 91.7551 257.888C92.209 257.973 92.6783 257.885 93.0699 257.64C93.1311 257.607 93.1882 257.567 93.2399 257.52C94.1728 256.775 95.0212 255.93 95.7699 255C95.9559 254.767 96.0815 254.492 96.1356 254.199C96.1897 253.906 96.1705 253.604 96.0799 253.32C96.0587 253.24 96.0285 253.163 95.9899 253.09C95.9544 253.006 95.9109 252.926 95.8599 252.85C95.7901 252.731 95.7024 252.623 95.5999 252.53L95.4199 252.38L95.2499 252.24C94.9737 251.981 94.7856 251.642 94.712 251.271C94.6385 250.9 94.6832 250.515 94.8399 250.17C95.0162 249.807 95.1699 249.432 95.2999 249.05C95.4489 248.656 95.7292 248.325 96.0935 248.114C96.4579 247.903 96.884 247.824 97.2999 247.89C97.7264 247.948 98.1601 247.86 98.5299 247.64C98.6223 247.585 98.7093 247.521 98.7899 247.45L98.9099 247.33L98.9999 247.22C99.2259 246.955 99.3655 246.627 99.3999 246.28C99.5466 245.088 99.5466 243.882 99.3999 242.69L99.3799 242.67ZM91.5699 245.37C91.5651 245.4 91.5651 245.43 91.5699 245.46L91.5099 245.9C91.5099 246.05 91.5099 246.21 91.4199 246.36C91.3599 246.658 91.2797 246.952 91.1799 247.24C91.1799 247.41 91.0599 247.58 90.9999 247.74C90.9399 247.9 90.8799 248.04 90.8099 248.19L90.6499 248.51C90.5026 248.801 90.3355 249.082 90.1499 249.35C90.1091 249.424 90.0623 249.494 90.0099 249.56C89.99 249.596 89.9665 249.629 89.9399 249.66L89.7599 249.9C89.6887 249.998 89.6119 250.091 89.5299 250.18C89.373 250.378 89.2026 250.565 89.0199 250.74L88.7799 250.97L88.5399 251.19L88.1699 251.48C87.8744 251.714 87.5637 251.927 87.2399 252.12L86.9399 252.29L86.5799 252.48L86.2299 252.63L85.6499 252.86L85.3199 252.97L84.5799 253.16L84.2199 253.22C84.095 253.25 83.9679 253.27 83.8399 253.28C83.218 253.34 82.5918 253.34 81.9699 253.28H81.5999C81.4751 253.271 81.3513 253.25 81.2299 253.22L80.8499 253.16C80.4264 253.061 80.009 252.938 79.5999 252.79L79.2799 252.66L78.9199 252.51L78.5599 252.32C78.3099 252.18 78.0599 252.03 77.8199 251.87C77.7052 251.797 77.595 251.716 77.4899 251.63L77.1999 251.4L76.7999 251.06L76.4299 250.7L76.1299 250.37C75.7804 249.983 75.4721 249.561 75.2099 249.11C75.1299 248.99 75.0599 248.87 74.9899 248.74C74.9199 248.61 74.8399 248.46 74.7699 248.31C74.7273 248.229 74.6905 248.146 74.6599 248.06C74.6599 248.01 74.6099 247.96 74.5899 247.9L74.4999 247.68C74.4999 247.59 74.4299 247.49 74.3999 247.39C74.3699 247.29 74.3999 247.32 74.3999 247.28C74.3999 247.24 74.3199 247.04 74.2899 246.92C74.2599 246.8 74.1899 246.55 74.1499 246.37L74.0899 246.04L73.9999 245.41C73.9999 245.11 73.9999 244.8 73.9999 244.5C73.9999 244.2 73.9999 243.9 73.9999 243.6C74.0048 243.57 74.0048 243.54 73.9999 243.51L74.0599 243.08C74.0599 242.92 74.0599 242.77 74.1499 242.62C74.2199 242.32 74.2999 242.03 74.3899 241.74L74.5199 241.38C74.5199 241.29 74.5899 241.19 74.6299 241.1C74.6699 241.01 74.6299 240.98 74.7099 240.92C74.7424 240.838 74.7791 240.758 74.8199 240.68C74.8687 240.451 74.9288 240.224 74.9999 240L75.1799 239.69L75.3899 239.4L75.6699 239.02L75.9699 238.67C76.0799 238.55 76.1799 238.43 76.2899 238.32C76.8405 237.758 77.4625 237.27 78.1399 236.87L78.4599 236.69L78.7999 236.52C78.9016 236.46 79.0087 236.41 79.1199 236.37C79.3247 236.277 79.5351 236.197 79.7499 236.13L80.0499 236.03L80.4199 235.92L80.7899 235.84C81.0354 235.79 81.2821 235.747 81.5299 235.71H81.8999C82.3995 235.68 82.9004 235.68 83.3999 235.71H83.7699C83.8979 235.72 84.025 235.74 84.1499 235.77C84.2747 235.785 84.3984 235.808 84.5199 235.84C84.8295 235.899 85.1338 235.982 85.4299 236.09L85.6799 236.17C86.1016 236.318 86.5098 236.502 86.8999 236.72L87.2699 236.93C87.3899 237 87.5099 237.07 87.6199 237.15L87.9599 237.4L88.2899 237.66C88.3948 237.744 88.495 237.835 88.5899 237.93C88.8146 238.125 89.0252 238.335 89.2199 238.56C89.3051 238.645 89.3853 238.735 89.4599 238.83C89.5885 238.98 89.7087 239.137 89.8199 239.3L89.9899 239.54C90.1789 239.815 90.3493 240.102 90.4999 240.4L90.6799 240.75V240.82C90.7399 240.94 90.7899 241.07 90.8399 241.2C90.8899 241.33 90.8399 241.2 90.8399 241.26C90.8887 241.367 90.9288 241.477 90.9599 241.59C90.9876 241.652 91.011 241.715 91.0299 241.78C91.1199 242.07 91.1999 242.36 91.2699 242.66C91.2652 242.747 91.2652 242.833 91.2699 242.92C91.2699 243.15 91.3399 243.38 91.3699 243.6C91.3999 243.82 91.3699 244.21 91.3699 244.52C91.3699 244.83 91.5899 245.07 91.5699 245.37Z" fill="#156F93"/>
<path d="M99.8198 221.1H65.5898C62.1381 221.1 59.3398 223.898 59.3398 227.35V261.58C59.3398 265.032 62.1381 267.83 65.5898 267.83H99.8198C103.272 267.83 106.07 265.032 106.07 261.58V227.35C106.07 223.898 103.272 221.1 99.8198 221.1Z" stroke="#94E1EB" stroke-miterlimit="10"/>
<path d="M572.95 234.67H538.72C535.268 234.67 532.47 237.468 532.47 240.92V275.15C532.47 278.602 535.268 281.4 538.72 281.4H572.95C576.402 281.4 579.2 278.602 579.2 275.15V240.92C579.2 237.468 576.402 234.67 572.95 234.67Z" stroke="#94E1EB" stroke-miterlimit="10"/>
<path d="M571.41 271.67H540.27C539.888 271.671 539.513 271.567 539.186 271.37C538.858 271.174 538.591 270.892 538.412 270.554C538.233 270.217 538.149 269.837 538.17 269.456C538.191 269.074 538.315 268.706 538.53 268.39L554.1 245.39C554.292 245.105 554.551 244.872 554.855 244.711C555.158 244.55 555.496 244.466 555.84 244.466C556.183 244.466 556.522 244.55 556.825 244.711C557.128 244.872 557.388 245.105 557.58 245.39L573.15 268.39C573.364 268.706 573.489 269.074 573.51 269.456C573.53 269.837 573.447 270.217 573.268 270.554C573.089 270.892 572.821 271.174 572.494 271.37C572.167 271.567 571.792 271.671 571.41 271.67V271.67Z" stroke="#156F93" stroke-width="2" stroke-miterlimit="10"/>
<path d="M556.23 264.9H555.45C555.193 264.9 554.946 264.802 554.76 264.625C554.574 264.448 554.463 264.206 554.45 263.95L553.91 250.75C553.91 250.485 554.016 250.23 554.203 250.043C554.391 249.855 554.645 249.75 554.91 249.75H556.78C557.045 249.75 557.3 249.855 557.487 250.043C557.675 250.23 557.78 250.485 557.78 250.75L557.24 263.95C557.227 264.208 557.115 264.451 556.927 264.628C556.738 264.806 556.489 264.903 556.23 264.9Z" fill="#156F93"/>
<path d="M555.82 268.88C556.555 268.88 557.15 268.284 557.15 267.55C557.15 266.815 556.555 266.22 555.82 266.22C555.086 266.22 554.49 266.815 554.49 267.55C554.49 268.284 555.086 268.88 555.82 268.88Z" fill="#156F93"/>
<path d="M288.76 26.6201H268.5C265.048 26.6201 262.25 29.4183 262.25 32.8701V53.1301C262.25 56.5819 265.048 59.3801 268.5 59.3801H288.76C292.212 59.3801 295.01 56.5819 295.01 53.1301V32.8701C295.01 29.4183 292.212 26.6201 288.76 26.6201Z" fill="#94E1EB"/>
<path d="M281.7 50.1201C281.7 50.7253 281.521 51.3169 281.184 51.8201C280.848 52.3233 280.37 52.7155 279.811 52.9471C279.252 53.1787 278.637 53.2393 278.043 53.1213C277.45 53.0032 276.904 52.7118 276.476 52.2838C276.048 51.8559 275.757 51.3106 275.639 50.717C275.521 50.1235 275.581 49.5082 275.813 48.949C276.045 48.3899 276.437 47.912 276.94 47.5758C277.443 47.2395 278.035 47.0601 278.64 47.0601C279.452 47.0601 280.23 47.3824 280.804 47.9563C281.378 48.5302 281.7 49.3085 281.7 50.1201Z" fill="#156F93"/>
<path d="M278.63 39.69C277.231 39.6889 275.846 39.971 274.559 40.5192C273.272 41.0674 272.109 41.8705 271.14 42.88L273.23 44.88C273.928 44.1503 274.766 43.5695 275.694 43.1728C276.622 42.776 277.621 42.5714 278.63 42.5714C279.639 42.5714 280.638 42.776 281.566 43.1728C282.495 43.5695 283.333 44.1503 284.03 44.88L286.11 42.88C285.144 41.8698 283.983 41.0663 282.697 40.518C281.412 39.9696 280.028 39.688 278.63 39.69Z" fill="#156F93"/>
<path d="M278.63 32.8201C276.31 32.8176 274.014 33.283 271.878 34.1885C269.742 35.094 267.811 36.421 266.2 38.0901L268.29 40.0901C269.63 38.7013 271.237 37.5968 273.013 36.8423C274.79 36.0879 276.7 35.6991 278.63 35.6991C280.56 35.6991 282.471 36.0879 284.247 36.8423C286.024 37.5968 287.63 38.7013 288.97 40.0901L291.06 38.0901C289.45 36.4201 287.519 35.0925 285.383 34.1869C283.247 33.2813 280.95 32.8164 278.63 32.8201Z" fill="#156F93"/>
</svg>
