<svg width="49" height="48" viewBox="0 0 49 48" fill="none" xmlns="http://www.w3.org/2000/svg">
<path d="M48.5021 23.4979C48.5021 23.2971 48.5021 23.0962 48.5021 22.9958C48.5021 22.8954 48.5021 22.8954 48.5021 22.795C48.5021 22.6946 48.5021 22.4937 48.5021 22.3933C48.5021 22.1925 48.5021 21.9916 48.5021 21.7908C48.5021 21.6904 48.5021 21.4895 48.5021 21.3891C48.5021 21.2887 48.5021 21.2887 48.5021 21.1883C48.5021 21.0879 48.5021 20.887 48.5021 20.7866V20.6862C48.5021 20.5858 48.5021 20.3849 48.4017 20.2845C48.4017 20.2845 48.4017 20.2845 48.4017 20.1841C48.4017 19.9833 48.3013 19.8828 48.3013 19.682C48.3013 19.682 48.3013 19.682 48.3013 19.5816C48.3013 19.4812 48.3013 19.2803 48.2008 19.1799C48.2008 19.1799 48.2008 19.1799 48.2008 19.0795V18.9791C48.2008 18.8787 48.1004 18.6778 48.1004 18.5774C48.1004 18.3766 48 18.2762 48 18.0753C48 17.9749 47.8996 17.8745 47.8996 17.6736C47.8996 17.5732 47.8996 17.5732 47.8996 17.4728C47.8996 17.3724 47.7992 17.1715 47.7992 17.0711V16.9707C47.7992 16.7699 47.6987 16.6695 47.6987 16.4686C47.5983 16.2678 47.5983 16.1674 47.4979 15.9665C47.3975 15.7657 47.3975 15.6653 47.2971 15.4644C47.1967 15.2636 47.1967 15.1632 47.0962 14.9623C46.9958 14.8619 46.9958 14.6611 46.8954 14.5607C46.8954 14.5607 46.8954 14.4603 46.795 14.4603C46.6946 14.3598 46.6946 14.159 46.5941 14.0586C46.4937 13.7573 46.2929 13.4561 46.0921 13.1548C45.9916 12.954 45.8912 12.8536 45.8912 12.6527C45.7908 12.5523 45.7908 12.3515 45.6904 12.251C45.59 12.0502 45.4895 11.9498 45.3891 11.749C45.2887 11.6485 45.1883 11.4477 45.1883 11.3473C45.1883 11.3473 45.1883 11.2469 45.0879 11.2469C44.9874 11.1464 44.887 10.9456 44.7866 10.8452C44.7866 10.8452 44.7866 10.7448 44.6862 10.7448C44.5858 10.6444 44.4854 10.5439 44.4854 10.4435C44.3849 10.3431 44.2845 10.2427 44.1841 10.0418C44.1841 9.94142 44.0837 9.94142 44.0837 9.841C43.9833 9.64017 43.7824 9.43933 43.5816 9.23849L43.4812 9.13808C43.1799 8.7364 42.8787 8.33473 42.5774 8.03347L42.477 7.93306C41.9749 7.33054 41.3724 6.72803 40.7699 6.22594C40.6695 6.12552 40.6695 6.12552 40.569 6.0251C40.2678 5.72385 39.9665 5.52301 39.6653 5.22176C39.5649 5.12134 39.5649 5.12134 39.4644 5.02092C39.2636 4.82008 38.9623 4.61925 38.7615 4.51883C38.6611 4.41841 38.6611 4.41841 38.5607 4.31799C38.3598 4.11716 38.0586 4.01674 37.8577 3.8159C37.7573 3.71548 37.6569 3.61506 37.4561 3.61506C37.3556 3.51464 37.1548 3.41423 37.0544 3.41423C36.954 3.41423 36.954 3.31381 36.8536 3.31381C36.251 3.01255 35.6485 2.61088 35.046 2.30962C34.9456 2.2092 34.8452 2.2092 34.7448 2.10879C34.6444 2.10879 34.6444 2.00837 34.5439 2.00837C34.4435 2.00837 34.3431 1.90795 34.2427 1.90795C34.1423 1.90795 34.1423 1.90795 34.0418 1.80753C33.841 1.70711 33.5397 1.60669 33.3389 1.50628C33.2385 1.50628 33.2385 1.40586 33.1381 1.40586C33.0377 1.40586 32.8368 1.30544 32.7364 1.30544C32.636 1.30544 32.4351 1.20502 32.3347 1.20502C32.2343 1.20502 32.2343 1.20502 32.1339 1.1046C31.9331 1.00418 31.7322 1.00418 31.5314 0.903766C31.431 0.903766 31.3305 0.803347 31.2301 0.803347C31.0293 0.803347 30.9289 0.702929 30.728 0.702929C30.6276 0.702929 30.4268 0.602511 30.3264 0.602511C29.9247 0.502092 29.4226 0.401674 29.0209 0.301255C28.9205 0.301255 28.8201 0.301255 28.7197 0.200837C28.7197 0.200837 28.7197 0.200837 28.6192 0.200837C28.5188 0.200837 28.4184 0.200837 28.2176 0.100418C28.1172 0.100418 28.0167 0.100418 27.9163 0.100418C27.7155 0.100418 27.6151 0.100418 27.4142 0C27.3138 0 27.2134 0 27.113 0C27.0126 0 26.8117 0 26.7113 0C26.6109 0 26.6109 0 26.5105 0C26.3096 0 26.1088 0 25.9079 0H25.8075C25.7071 0 25.7071 0 25.6067 0C25.5063 0 25.4059 0 25.205 0C25.1046 0 25.1046 0 25.0042 0C24.9038 0 24.7029 0 24.6025 0C24.5021 0 24.3013 0 24.2008 0C24.1004 0 24.1004 0 24 0C23.8996 0 23.7992 0 23.5983 0C23.4979 0 23.4979 0 23.3975 0H23.2971C23.0962 0 22.8954 0 22.6946 0C22.5941 0 22.5941 0 22.4937 0C22.3933 0 22.1925 0 22.0921 0C21.9916 0 21.8912 0 21.7908 0C21.59 0 21.4895 7.45058e-09 21.2887 0.100418C21.1883 0.100418 21.0879 0.100418 20.9874 0.100418C20.887 0.100418 20.6862 0.100418 20.5858 0.200837C20.4854 0.200837 20.3849 0.200837 20.2845 0.301255C19.8828 0.401674 19.3808 0.502092 18.9791 0.602511C18.8787 0.602511 18.6778 0.702929 18.5774 0.702929C18.3766 0.702929 18.2762 0.803347 18.0753 0.803347C17.9749 0.803347 17.8745 0.903766 17.7741 0.903766C17.5732 1.00418 17.3724 1.00418 17.1715 1.1046C17.0711 1.1046 17.0711 1.1046 16.9707 1.20502C16.8703 1.20502 16.6695 1.30544 16.569 1.30544C16.4686 1.30544 16.2678 1.40586 16.1674 1.40586C16.0669 1.40586 16.0669 1.50628 15.9665 1.50628C15.7657 1.60669 15.4644 1.70711 15.2636 1.80753C15.1632 1.80753 15.1632 1.80753 15.0628 1.90795C14.9623 1.90795 14.8619 2.00837 14.7615 2.00837C14.6611 2.00837 14.6611 2.10879 14.5607 2.10879C14.4603 2.2092 14.3598 2.2092 14.2594 2.30962C13.6569 2.61088 13.0544 2.91213 12.4519 3.31381C12.3515 3.31381 12.3515 3.41423 12.251 3.41423C12.1506 3.51464 11.9498 3.61506 11.8494 3.61506C11.1464 3.61506 11.046 3.71548 10.9456 3.8159C10.6444 4.01674 10.4435 4.11716 10.2427 4.31799C10.1423 4.31799 10.1423 4.41841 10.0418 4.51883C9.74059 4.61925 9.53975 4.82008 9.23849 5.02092C9.23849 5.02092 9.13808 5.12134 9.03766 5.12134C8.7364 5.42259 8.43515 5.62343 8.13389 5.92469C8.13389 5.92469 8.03347 6.0251 7.93305 6.12552C7.33054 6.62762 6.82845 7.23013 6.22594 7.83264L6.12552 7.93306C5.82427 8.33473 5.52301 8.7364 5.22176 9.03766L5.12134 9.13808C4.9205 9.43933 4.71967 9.64017 4.61925 9.841C4.61925 9.94142 4.51883 9.94142 4.51883 10.0418C4.41841 10.1423 4.31799 10.2427 4.21757 10.4435C4.11715 10.5439 4.01674 10.6444 4.01674 10.7448C4.01674 10.7448 4.01674 10.8452 3.91632 10.8452C3.8159 10.9456 3.71548 11.1464 3.61506 11.2469C3.61506 11.2469 3.61506 11.3473 3.51464 11.3473C3.41423 11.4477 3.31381 11.6485 3.31381 11.749C3.21339 11.9498 3.11297 12.0502 3.01255 12.251C2.91213 12.3515 2.91213 12.5523 2.81172 12.6527C2.7113 12.8536 2.61088 12.954 2.61088 13.1548C2.41004 13.4561 2.30962 13.7573 2.10879 14.0586C2.10879 14.2594 2.00837 14.3598 2.00837 14.4603C2.00837 14.4603 2.00837 14.5607 1.90795 14.5607C1.80753 14.6611 1.80753 14.8619 1.70711 14.9623C1.60669 15.1632 1.60669 15.2636 1.50628 15.4644C1.40586 15.6653 1.40586 15.7657 1.30544 15.9665C1.20502 16.1674 1.20502 16.2678 1.1046 16.4686C1.1046 16.569 1.00418 16.7699 1.00418 16.9707V17.0711C1.00418 17.1715 0.903766 17.3724 0.903766 17.4728C0.903766 17.5732 0.903766 17.5732 0.903766 17.6736C0.903766 17.7741 0.803347 17.8745 0.803347 18.0753C0.803347 18.2762 0.702929 18.3766 0.702929 18.5774C0.702929 18.6778 0.602511 18.8787 0.602511 18.9791V19.0795C0.602511 19.0795 0.602511 19.0795 0.602511 19.1799C0.602511 19.2803 0.502092 19.4812 0.502092 19.5816C0.502092 19.5816 0.502092 19.5816 0.502092 19.682C0.502092 19.8828 0.401674 19.9833 0.401674 20.1841C0.401674 20.1841 0.401674 20.1841 0.401674 20.2845C0.401674 20.3849 0.401674 20.5858 0.301255 20.6862V20.7866C0.301255 20.887 0.301255 21.0879 0.301255 21.1883C0.301255 21.2887 0.301255 21.2887 0.301255 21.3891C0.301255 21.4895 0.301255 21.6904 0.301255 21.7908C0.301255 21.9916 0.301255 22.1925 0.301255 22.3933C0.301255 22.4937 0.301255 22.6946 0.301255 22.795C0 22.8954 0 22.8954 0 22.9958C0 23.1967 0 23.2971 0 23.4979V23.5983C0 23.7992 0 24 0 24.1004C0 24.3013 0 24.5021 0 24.7029C0 24.8033 0 24.9038 0 25.0042C0 25.1046 0 25.3054 0 25.4059C0 25.5063 0 25.6067 0 25.7071C0 25.8075 0 25.9079 0 25.9079C0 26.0084 0 26.0084 0 26.1088C0 26.2092 0 26.2092 0 26.3096C0 26.41 0 26.5105 0 26.6109C0 26.7113 0 26.7113 0 26.8117C0 26.9121 0 27.0126 0 27.113C0 27.2134 0 27.3138 0 27.4142C0 27.6151 0 27.7155 0.100418 27.9163C0.100418 28.0167 0.100418 28.1172 0.200837 28.2176C0.200837 28.318 0.200837 28.4184 0.301255 28.5188V28.6192C0.301255 28.8201 0.401674 28.9205 0.401674 29.1213C0.502092 29.4226 0.502092 29.7239 0.602511 30.0251C0.702929 30.3264 0.803347 30.6276 0.803347 30.9289C1.1046 32.0335 1.50628 33.0377 2.00837 34.0418C2.00837 34.1423 2.10879 34.1423 2.10879 34.2427C2.2092 34.5439 2.30962 34.7448 2.51046 35.046C2.61088 35.2469 2.7113 35.4477 2.81172 35.5481C3.01255 35.9498 3.31381 36.4519 3.61506 36.8536C3.71548 36.954 3.71548 37.0544 3.8159 37.1548C4.9205 38.7615 6.12552 40.2678 7.53138 41.6736C7.6318 41.7741 7.6318 41.7741 7.73222 41.8745L7.83264 41.9749C7.93305 42.0753 8.03347 42.1757 8.23431 42.2761C10.3431 44.0837 13.0544 45.1883 16.0669 45.1883C17.4728 45.1883 18.8787 44.9874 20.0837 44.4854C22.4937 43.682 24.5021 42.0753 25.9079 40.0669C27.3138 38.0586 28.1172 35.6485 28.1172 33.0377V25.7071H24.1004C21.8912 25.7071 20.0837 27.5146 20.0837 29.7238V32.9372C20.0837 35.1464 18.3766 37.0544 16.1674 37.0544C15.1632 37.0544 14.2594 36.7531 13.5565 36.1506C13.4561 36.0502 13.3556 36.0502 13.3556 35.9498C13.3556 35.9498 13.3556 35.9498 13.2552 35.8494C10.0418 32.9372 8.03347 28.6192 8.03347 23.8996C8.03347 16.3682 13.1548 10.0418 20.1841 8.23431C21.4895 7.93305 22.795 7.73222 24.2008 7.73222C25.6067 7.73222 26.9121 7.93305 28.2176 8.23431C35.1464 10.0418 40.3682 16.3682 40.3682 23.8996C40.3682 30.5272 36.3515 36.251 30.728 38.7615C29.3222 39.364 28.2176 40.7699 28.2176 42.477V48C30.1255 47.6987 32.0335 47.0962 33.7406 46.3933H33.841C33.9414 46.2929 34.1423 46.2929 34.2427 46.1925C34.3431 46.0921 34.5439 46.0921 34.6444 45.9916C34.7448 45.8912 34.9456 45.8912 35.046 45.7908C35.1464 45.6904 35.2469 45.6904 35.4477 45.59C35.5481 45.59 35.6485 45.4895 35.749 45.3891C35.8494 45.3891 35.9498 45.2887 35.9498 45.2887C36.0502 45.1883 36.251 45.0879 36.3515 45.0879C36.6527 44.887 36.954 44.7866 37.1548 44.5858C37.2552 44.5858 37.2552 44.4854 37.3557 44.4854C37.7573 44.1841 38.159 43.9833 38.5607 43.682C38.6611 43.5816 38.7615 43.5816 38.7615 43.4812C38.9623 43.2803 39.2636 43.0795 39.4644 42.9791C39.5649 42.8787 39.7657 42.7782 39.8661 42.5774C39.9665 42.477 39.9665 42.477 40.0669 42.3766C40.1674 42.2762 40.3682 42.0753 40.4686 41.9749C40.569 41.8745 40.569 41.8745 40.6695 41.7741C40.7699 41.6736 40.7699 41.6736 40.8703 41.5732C40.9707 41.4728 41.1715 41.272 41.272 41.1716C41.4728 40.9707 41.6736 40.7699 41.8745 40.569C41.9749 40.4686 41.9749 40.4686 42.0753 40.3682C42.1757 40.2678 42.1757 40.2678 42.2761 40.1674C42.3766 40.0669 42.3766 40.0669 42.477 39.9665C42.5774 39.8661 42.5774 39.8661 42.6778 39.7657C42.8787 39.5649 43.0795 39.364 43.1799 39.0628C43.2803 38.8619 43.3808 38.7615 43.5816 38.5607C43.682 38.4603 43.682 38.3598 43.7824 38.3598C43.8828 38.159 43.9833 38.0586 44.0837 37.8577C44.1841 37.7573 44.1841 37.6569 44.2845 37.6569C44.3849 37.4561 44.4854 37.3556 44.5858 37.1548C44.6862 37.0544 44.6862 36.954 44.7866 36.954C44.887 36.7531 44.9874 36.6527 45.0879 36.4519C45.0879 36.3515 45.1883 36.251 45.1883 36.251C45.2887 36.0502 45.3891 35.9498 45.4895 35.749C45.4895 35.6485 45.59 35.6485 45.59 35.5481C45.6904 35.4477 45.6904 35.3473 45.7908 35.2469C45.8912 35.1464 45.8912 35.046 45.9916 34.8452C46.0921 34.7448 46.0921 34.5439 46.1925 34.4435C46.1925 34.3431 46.2929 34.2427 46.2929 34.1423C46.2929 34.0418 46.3933 33.9414 46.3933 33.841C46.3933 33.7406 46.4937 33.6402 46.4937 33.5397C46.5941 33.4393 46.5941 33.2385 46.6946 33.1381C46.6946 33.0377 46.795 32.9372 46.795 32.7364C46.8954 32.636 46.8954 32.4351 46.9958 32.3347C46.9958 32.2343 47.0962 32.0335 47.0962 31.9331C47.0962 31.8326 47.1967 31.6318 47.1967 31.5314C47.1967 31.431 47.2971 31.2301 47.2971 31.1297C47.2971 31.0293 47.3975 30.9289 47.3975 30.8285C47.3975 30.728 47.3975 30.728 47.3975 30.6276C47.3975 30.5272 47.3975 30.4268 47.4979 30.3264C47.4979 30.1255 47.5983 29.9247 47.5983 29.7238C47.5983 29.6234 47.5983 29.523 47.6987 29.4226C47.6987 29.2218 47.7992 29.1213 47.7992 28.9205C47.7992 28.8201 47.8996 28.6192 47.8996 28.5188C47.8996 28.4184 47.8996 28.318 48 28.1172C48 28.1172 48 28.1172 48 28.0167C48 27.9163 48 27.8159 48 27.7155C48 27.6151 48 27.5146 48 27.4142C48 27.3138 48 27.2134 48 27.113C48 27.0126 48 26.8117 48 26.7113C48 26.6109 48 26.41 48 26.3096C48 26.3096 48 26.3096 48 26.2092C48 26.1088 48 26.0084 48 25.8075C48 25.7071 48 25.7071 48 25.6067C48 25.5063 48 25.4059 48 25.3054C48 25.1046 48 25.0042 48 24.8033C48 24.6025 48 24.5021 48 24.3013C48.5021 23.8996 48.5021 23.6987 48.5021 23.4979Z" fill="#FF2E2E"/>
<path d="M28.3181 22.2929H23.6988C21.088 22.2929 19.0796 20.1842 19.0796 17.6737C19.0796 15.0628 21.1884 13.0544 23.6988 13.0544C26.3097 13.0544 28.3181 15.1632 28.3181 17.6737V22.2929Z" fill="#FF2E2E"/>
</svg>
